%FSLAX46Y46*%
%MOMM*%
%TF.GenerationSoftware,cairn,packet-logger-carrier,1.0*%
%TF.CreationDate,2026-08-24T00:00:00*%
%TF.FileFunction,Copper,L1,Top*%
%TF.FilePolarity,Positive*%
%TF.SameCoordinates,Original*%
G04 Packet Logger Carrier v1*
G01*
%LPD*%
D10*
%ADD10C,0.800000*%
%ADD11C,0.500000*%
%ADD12C,0.250000*%
%ADD13C,1.088000*%
%ADD14C,1.024000*%
%ADD15C,0.960000*%
%ADD16C,0.896000*%
%ADD17C,0.832000*%
%ADD18C,1.058000*%
%ADD19C,0.934000*%
%ADD20C,0.810000*%
%ADD21C,0.686000*%
%ADD22C,0.562000*%
%ADD23C,0.932000*%
%ADD24C,0.836000*%
%ADD25C,0.740000*%
%ADD26C,0.644000*%
%ADD27C,0.548000*%
%ADD28C,1.033000*%
%ADD29C,0.859000*%
%ADD30C,0.685000*%
%ADD31C,0.511000*%
%ADD32C,0.337000*%
%ADD33C,1.159000*%
%ADD34C,0.957000*%
%ADD35C,0.755000*%
%ADD36C,0.553000*%
%ADD37C,0.351000*%
%ADD38R,1.600000X1.600000*%
%ADD39C,1.600000*%
%ADD40O,1.600000X2.600000*%
%ADD41R,1.800000X1.800000*%
%ADD42C,1.800000*%
%ADD43R,1.500000X1.500000*%
%ADD44C,1.500000*%
%ADD45R,1.400000X1.400000*%
%ADD46C,1.400000*%
%ADD47C,0.771579*%
%ADD48C,1.192400*%
X6100000Y5900000D02*
X6800000Y5900000D01*
X6800000Y5900000D02*
X6800000Y4200000D01*
X6800000Y4200000D02*
X12900000Y4200000D01*
X12900000Y4200000D02*
X12900000Y5900000D01*
X12900000Y4200000D02*
X22500000Y4200000D01*
X22500000Y4200000D02*
X22500000Y4469622D01*
X22500000Y4469622D02*
X22500000Y5900000D01*
X20100000Y6100000D02*
X20800000Y6100000D01*
X20800000Y6100000D02*
X20800000Y7800000D01*
X20800000Y7800000D02*
X29900000Y7800000D01*
X29900000Y7800000D02*
X29900000Y6100000D01*
D11*
X6100000Y23300000D02*
X6100000Y24800000D01*
X6100000Y24800000D02*
X6100000Y45900000D01*
X6100000Y45900000D02*
X35900000Y45900000D01*
X77000000Y21300000D02*
X76240819Y21300000D01*
X76240819Y21300000D02*
X76100000Y21300000D01*
X76100000Y21300000D02*
X76100000Y23600000D01*
X76100000Y23600000D02*
X43700000Y23600000D01*
X43700000Y23600000D02*
X43700000Y23360664D01*
X43700000Y23360664D02*
X43700000Y22100000D01*
X56500000Y23600000D02*
X56500000Y51450000D01*
X56500000Y51450000D02*
X56500000Y52900000D01*
X56500000Y44300000D02*
X38600000Y44300000D01*
X38600000Y44300000D02*
X38600000Y44554100D01*
X38600000Y44554100D02*
X38600000Y45900000D01*
X76100000Y21300000D02*
X76100000Y14000000D01*
X76100000Y14000000D02*
X72100000Y14000000D01*
X72100000Y14000000D02*
X72100000Y12600000D01*
X43700000Y23600000D02*
X39600000Y23600000D01*
X39600000Y23600000D02*
X39600000Y26400000D01*
X39500000Y26600000D02*
X39500000Y27950000D01*
X39500000Y27950000D02*
X39500000Y29050000D01*
X39500000Y29050000D02*
X39500000Y30400000D01*
X56500000Y51300000D02*
X48100000Y51300000D01*
X48100000Y51300000D02*
X48100000Y52900000D01*
D12*
X28600000Y22800000D02*
X28600000Y21200000D01*
X28600000Y21200000D02*
X28600000Y20500000D01*
X28600000Y20500000D02*
X66800000Y20500000D01*
X66800000Y20500000D02*
X66800000Y20613522D01*
X66800000Y20613522D02*
X66800000Y21200000D01*
X31100000Y23700000D02*
X31100000Y25300000D01*
X31100000Y25300000D02*
X31100000Y36500000D01*
X31100000Y36500000D02*
X55500000Y36500000D01*
X69400000Y21200000D02*
X68550337Y21200000D01*
X68550337Y21200000D02*
X68400000Y21200000D01*
X68400000Y21200000D02*
X68400000Y19600000D01*
X68400000Y19600000D02*
X51300000Y19600000D01*
X74400000Y21200000D02*
X73647284Y21200000D01*
X73647284Y21200000D02*
X73500000Y21200000D01*
X73500000Y21200000D02*
X73500000Y18500000D01*
X73500000Y18500000D02*
X48800000Y18500000D01*
X48800000Y18500000D02*
X48800000Y19600000D01*
X74400000Y36500000D02*
X73649830Y36500000D01*
X73649830Y36500000D02*
X73500000Y36500000D01*
X73500000Y36500000D02*
X73500000Y24600000D01*
X73500000Y24600000D02*
X57500000Y24600000D01*
X69400000Y36600000D02*
X68550337Y36600000D01*
X68550337Y36600000D02*
X68400000Y36600000D01*
X68400000Y36600000D02*
X68400000Y51500000D01*
X68400000Y51500000D02*
X59100000Y51500000D01*
X59100000Y51500000D02*
X59100000Y51724887D01*
X59100000Y51724887D02*
X59100000Y52900000D01*
X71900000Y36600000D02*
X71056438Y36600000D01*
X71056438Y36600000D02*
X70900000Y36600000D01*
X70900000Y36600000D02*
X70900000Y51500000D01*
X70900000Y51500000D02*
X69200000Y51500000D01*
X69200000Y51500000D02*
X69200000Y54500000D01*
X69200000Y54500000D02*
X61700000Y54500000D01*
X61700000Y54500000D02*
X61700000Y53100000D01*
X82100000Y36600000D02*
X81250337Y36600000D01*
X81250337Y36600000D02*
X81100000Y36600000D01*
X81100000Y36600000D02*
X81100000Y40700000D01*
X81100000Y40700000D02*
X71800000Y40700000D01*
X71800000Y40700000D02*
X71800000Y50800000D01*
X74700000Y40700000D02*
X74700000Y40931815D01*
X74700000Y40931815D02*
X74700000Y42200000D01*
X77900000Y42700000D02*
X76400000Y42700000D01*
X76400000Y42700000D02*
X76400000Y51500000D01*
X76400000Y51500000D02*
X73600000Y51500000D01*
X73600000Y51500000D02*
X73600000Y51723980D01*
X73600000Y51723980D02*
X73600000Y52900000D01*
X82200000Y21300000D02*
X82200000Y35000000D01*
X82200000Y35000000D02*
X83600000Y35000000D01*
X83600000Y35000000D02*
X83600000Y51900000D01*
X83600000Y51900000D02*
X80100000Y51900000D01*
X80100000Y51900000D02*
X80100000Y53600000D01*
X80100000Y53600000D02*
X80000000Y53600000D01*
X80000000Y53600000D02*
X80000000Y54000000D01*
X80000000Y54000000D02*
X79700000Y54000000D01*
X79700000Y54000000D02*
X79700000Y54500000D01*
X79700000Y54500000D02*
X71100000Y54500000D01*
X71100000Y54500000D02*
X71100000Y53100000D01*
X23500000Y23700000D02*
X23500000Y25300000D01*
X23500000Y25300000D02*
X23500000Y43300000D01*
X23500000Y43300000D02*
X42900000Y43300000D01*
X11200000Y23300000D02*
X11200000Y24800000D01*
X11200000Y24800000D02*
X11200000Y44500000D01*
X11200000Y44500000D02*
X37300000Y44500000D01*
X37300000Y44500000D02*
X37300000Y47100000D01*
X37300000Y47100000D02*
X37600000Y47100000D01*
X37600000Y47100000D02*
X37600000Y47500000D01*
X37600000Y47500000D02*
X45500000Y47500000D01*
X45500000Y47500000D02*
X45500000Y47275453D01*
X45500000Y47275453D02*
X45500000Y46100000D01*
X13700000Y23300000D02*
X13700000Y24800000D01*
X13700000Y24800000D02*
X13700000Y42200000D01*
X13700000Y42200000D02*
X22600000Y42200000D01*
D13*
X22540000Y6000000D02*
X22540000Y5693924D01*
D14*
X22540000Y5693924D02*
X22540000Y5387849D01*
D15*
X22540000Y5387849D02*
X22540000Y5081773D01*
D16*
X22540000Y5081773D02*
X22540000Y4775698D01*
D17*
X22540000Y4775698D02*
X22540000Y4469622D01*
D18*
X6050000Y23250000D02*
X6050000Y23560000D01*
D19*
X6050000Y23560000D02*
X6050000Y23870000D01*
D20*
X6050000Y23870000D02*
X6050000Y24180000D01*
D21*
X6050000Y24180000D02*
X6050000Y24490000D01*
D22*
X6050000Y24490000D02*
X6050000Y24800000D01*
D18*
X77040000Y21280000D02*
X76880164Y21280000D01*
D19*
X76880164Y21280000D02*
X76720328Y21280000D01*
D20*
X76720328Y21280000D02*
X76560492Y21280000D01*
D21*
X76560492Y21280000D02*
X76400655Y21280000D01*
D22*
X76400655Y21280000D02*
X76240819Y21280000D01*
D18*
X43650000Y22000000D02*
X43650000Y22272133D01*
D19*
X43650000Y22272133D02*
X43650000Y22544266D01*
D20*
X43650000Y22544266D02*
X43650000Y22816398D01*
D21*
X43650000Y22816398D02*
X43650000Y23088531D01*
D22*
X43650000Y23088531D02*
X43650000Y23360664D01*
D18*
X56540000Y53000000D02*
X56540000Y52690000D01*
D19*
X56540000Y52690000D02*
X56540000Y52380000D01*
D20*
X56540000Y52380000D02*
X56540000Y52070000D01*
D21*
X56540000Y52070000D02*
X56540000Y51760000D01*
D22*
X56540000Y51760000D02*
X56540000Y51450000D01*
D18*
X38540000Y46000000D02*
X38540000Y45710820D01*
D19*
X38540000Y45710820D02*
X38540000Y45421640D01*
D20*
X38540000Y45421640D02*
X38540000Y45132460D01*
D21*
X38540000Y45132460D02*
X38540000Y44843280D01*
D22*
X38540000Y44843280D02*
X38540000Y44554100D01*
D23*
X39500000Y26500000D02*
X39500000Y26790000D01*
D24*
X39500000Y26790000D02*
X39500000Y27080000D01*
D25*
X39500000Y27080000D02*
X39500000Y27370000D01*
D26*
X39500000Y27370000D02*
X39500000Y27660000D01*
D27*
X39500000Y27660000D02*
X39500000Y27950000D01*
D23*
X39500000Y30500000D02*
X39500000Y30210000D01*
D24*
X39500000Y30210000D02*
X39500000Y29920000D01*
D25*
X39500000Y29920000D02*
X39500000Y29630000D01*
D26*
X39500000Y29630000D02*
X39500000Y29340000D01*
D27*
X39500000Y29340000D02*
X39500000Y29050000D01*
D28*
X28540000Y23250000D02*
X28540000Y22840000D01*
D29*
X28540000Y22840000D02*
X28540000Y22430000D01*
D30*
X28540000Y22430000D02*
X28540000Y22020000D01*
D31*
X28540000Y22020000D02*
X28540000Y21610000D01*
D32*
X28540000Y21610000D02*
X28540000Y21200000D01*
D28*
X66880000Y21280000D02*
X66880000Y21146704D01*
D29*
X66880000Y21146704D02*
X66880000Y21013409D01*
D30*
X66880000Y21013409D02*
X66880000Y20880113D01*
D31*
X66880000Y20880113D02*
X66880000Y20746818D01*
D32*
X66880000Y20746818D02*
X66880000Y20613522D01*
D28*
X31080000Y23250000D02*
X31080000Y23660000D01*
D29*
X31080000Y23660000D02*
X31080000Y24070000D01*
D30*
X31080000Y24070000D02*
X31080000Y24480000D01*
D31*
X31080000Y24480000D02*
X31080000Y24890000D01*
D32*
X31080000Y24890000D02*
X31080000Y25300000D01*
D28*
X69420000Y21280000D02*
X69246067Y21280000D01*
D29*
X69246067Y21280000D02*
X69072135Y21280000D01*
D30*
X69072135Y21280000D02*
X68898202Y21280000D01*
D31*
X68898202Y21280000D02*
X68724270Y21280000D01*
D32*
X68724270Y21280000D02*
X68550337Y21280000D01*
D28*
X74500000Y21280000D02*
X74329457Y21280000D01*
D29*
X74329457Y21280000D02*
X74158914Y21280000D01*
D30*
X74158914Y21280000D02*
X73988371Y21280000D01*
D31*
X73988371Y21280000D02*
X73817827Y21280000D01*
D32*
X73817827Y21280000D02*
X73647284Y21280000D01*
D28*
X74500000Y36520000D02*
X74329966Y36520000D01*
D29*
X74329966Y36520000D02*
X74159932Y36520000D01*
D30*
X74159932Y36520000D02*
X73989898Y36520000D01*
D31*
X73989898Y36520000D02*
X73819864Y36520000D01*
D32*
X73819864Y36520000D02*
X73649830Y36520000D01*
D28*
X69420000Y36520000D02*
X69246067Y36520000D01*
D29*
X69246067Y36520000D02*
X69072135Y36520000D01*
D30*
X69072135Y36520000D02*
X68898202Y36520000D01*
D31*
X68898202Y36520000D02*
X68724270Y36520000D01*
D32*
X68724270Y36520000D02*
X68550337Y36520000D01*
D28*
X59080000Y53000000D02*
X59080000Y52744977D01*
D29*
X59080000Y52744977D02*
X59080000Y52489955D01*
D30*
X59080000Y52489955D02*
X59080000Y52234932D01*
D31*
X59080000Y52234932D02*
X59080000Y51979909D01*
D32*
X59080000Y51979909D02*
X59080000Y51724887D01*
D28*
X71960000Y36520000D02*
X71779288Y36520000D01*
D29*
X71779288Y36520000D02*
X71598575Y36520000D01*
D30*
X71598575Y36520000D02*
X71417863Y36520000D01*
D31*
X71417863Y36520000D02*
X71237150Y36520000D01*
D32*
X71237150Y36520000D02*
X71056438Y36520000D01*
D28*
X82120000Y36520000D02*
X81946067Y36520000D01*
D29*
X81946067Y36520000D02*
X81772135Y36520000D01*
D30*
X81772135Y36520000D02*
X81598202Y36520000D01*
D31*
X81598202Y36520000D02*
X81424270Y36520000D01*
D32*
X81424270Y36520000D02*
X81250337Y36520000D01*
D33*
X74750000Y42250000D02*
X74750000Y41986363D01*
D34*
X74750000Y41986363D02*
X74750000Y41722726D01*
D35*
X74750000Y41722726D02*
X74750000Y41459089D01*
D36*
X74750000Y41459089D02*
X74750000Y41195452D01*
D37*
X74750000Y41195452D02*
X74750000Y40931815D01*
D28*
X73540000Y53000000D02*
X73540000Y52744796D01*
D29*
X73540000Y52744796D02*
X73540000Y52489592D01*
D30*
X73540000Y52489592D02*
X73540000Y52234388D01*
D31*
X73540000Y52234388D02*
X73540000Y51979184D01*
D32*
X73540000Y51979184D02*
X73540000Y51723980D01*
D28*
X23460000Y23250000D02*
X23460000Y23660000D01*
D29*
X23460000Y23660000D02*
X23460000Y24070000D01*
D30*
X23460000Y24070000D02*
X23460000Y24480000D01*
D31*
X23460000Y24480000D02*
X23460000Y24890000D01*
D32*
X23460000Y24890000D02*
X23460000Y25300000D01*
D28*
X11130000Y23250000D02*
X11130000Y23560000D01*
D29*
X11130000Y23560000D02*
X11130000Y23870000D01*
D30*
X11130000Y23870000D02*
X11130000Y24180000D01*
D31*
X11130000Y24180000D02*
X11130000Y24490000D01*
D32*
X11130000Y24490000D02*
X11130000Y24800000D01*
D28*
X45540000Y46000000D02*
X45540000Y46255091D01*
D29*
X45540000Y46255091D02*
X45540000Y46510181D01*
D30*
X45540000Y46510181D02*
X45540000Y46765272D01*
D31*
X45540000Y46765272D02*
X45540000Y47020363D01*
D32*
X45540000Y47020363D02*
X45540000Y47275453D01*
D28*
X13670000Y23250000D02*
X13670000Y23560000D01*
D29*
X13670000Y23560000D02*
X13670000Y23870000D01*
D30*
X13670000Y23870000D02*
X13670000Y24180000D01*
D31*
X13670000Y24180000D02*
X13670000Y24490000D01*
D32*
X13670000Y24490000D02*
X13670000Y24800000D01*
D38*
X6050000Y23250000D03*
D39*
X8590000Y23250000D03*
X11130000Y23250000D03*
X13670000Y23250000D03*
D40*
X23460000Y23250000D03*
X26000000Y23250000D03*
X28540000Y23250000D03*
X31080000Y23250000D03*
D38*
X66880000Y21280000D03*
D39*
X69420000Y21280000D03*
X71960000Y21280000D03*
X74500000Y21280000D03*
X77040000Y21280000D03*
X79580000Y21280000D03*
X82120000Y21280000D03*
X66880000Y36520000D03*
X69420000Y36520000D03*
X71960000Y36520000D03*
X74500000Y36520000D03*
X77040000Y36520000D03*
X79580000Y36520000D03*
X82120000Y36520000D03*
D38*
X43650000Y22000000D03*
D39*
X46190000Y22000000D03*
X48730000Y22000000D03*
X51270000Y22000000D03*
X53810000Y22000000D03*
X56350000Y22000000D03*
D38*
X54000000Y53000000D03*
D39*
X56540000Y53000000D03*
X59080000Y53000000D03*
X61620000Y53000000D03*
D38*
X65000000Y53000000D03*
D39*
X67540000Y53000000D03*
D38*
X71000000Y53000000D03*
D39*
X73540000Y53000000D03*
X76080000Y53000000D03*
X78620000Y53000000D03*
D41*
X74750000Y42250000D03*
D42*
X81250000Y42250000D03*
X74750000Y46750000D03*
X81250000Y46750000D03*
D38*
X6000000Y6000000D03*
D39*
X8540000Y6000000D03*
D43*
X13000000Y6000000D03*
D44*
X15000000Y6000000D03*
D38*
X20000000Y6000000D03*
D39*
X22540000Y6000000D03*
X25080000Y6000000D03*
D38*
X30000000Y6000000D03*
D39*
X32540000Y6000000D03*
D38*
X36000000Y46000000D03*
D39*
X38540000Y46000000D03*
D38*
X43000000Y46000000D03*
D39*
X45540000Y46000000D03*
X48080000Y46000000D03*
X50620000Y46000000D03*
D45*
X72000000Y12500000D03*
D46*
X74540000Y12500000D03*
D45*
X39500000Y26500000D03*
D46*
X42040000Y26500000D03*
D45*
X39500000Y30500000D03*
D46*
X42040000Y30500000D03*
D45*
X48000000Y53000000D03*
D46*
X50540000Y53000000D03*
D10*
X55500000Y36500000D03*
X51300000Y19600000D03*
X48800000Y19600000D03*
X57500000Y24600000D03*
X71800000Y50800000D03*
X77900000Y42700000D03*
X42900000Y43300000D03*
X22600000Y42200000D03*
D47*
X66859674Y8463529D02*
X67126017Y8314031D01*
X67126017Y8314031D02*
X67366973Y8126339D01*
X67366973Y8126339D02*
X67577111Y7904685D01*
X67577111Y7904685D02*
X67751692Y7654066D01*
X67751692Y7654066D02*
X67886781Y7380134D01*
X67886781Y7380134D02*
X67979331Y7089062D01*
X67979331Y7089062D02*
X68027258Y6787414D01*
X68027258Y6787414D02*
X68029479Y6481991D01*
X68029479Y6481991D02*
X67985945Y6179679D01*
X67985945Y6179679D02*
X67897637Y5887292D01*
X67897637Y5887292D02*
X67766547Y5611423D01*
X67766547Y5611423D02*
X67595629Y5358292D01*
X67595629Y5358292D02*
X67388737Y5133606D01*
X67388737Y5133606D02*
X67150536Y4942429D01*
X67150536Y4942429D02*
X66886396Y4789073D01*
X66886396Y4789073D02*
X66602272Y4676994D01*
X66602272Y4676994D02*
X66304569Y4608720D01*
X66304569Y4608720D02*
X66000000Y4585789D01*
X66000000Y4585789D02*
X65695431Y4608720D01*
X65695431Y4608720D02*
X65397728Y4676994D01*
X65397728Y4676994D02*
X65113604Y4789073D01*
X65113604Y4789073D02*
X64849464Y4942429D01*
X64849464Y4942429D02*
X64611263Y5133606D01*
X64611263Y5133606D02*
X64404371Y5358292D01*
X64404371Y5358292D02*
X64233453Y5611423D01*
X64233453Y5611423D02*
X64102363Y5887292D01*
X64102363Y5887292D02*
X64014055Y6179679D01*
X64014055Y6179679D02*
X63970521Y6481991D01*
X63970521Y6481991D02*
X63972742Y6787414D01*
X63972742Y6787414D02*
X64020669Y7089062D01*
X64020669Y7089062D02*
X64113219Y7380134D01*
X64113219Y7380134D02*
X64248308Y7654066D01*
X64248308Y7654066D02*
X64422889Y7904685D01*
X64422889Y7904685D02*
X64633027Y8126339D01*
X64633027Y8126339D02*
X64873983Y8314031D01*
X64873983Y8314031D02*
X65140326Y8463529D01*
D48*
X66000000Y9003780D03*
M02*
