%FSLAX46Y46*%
%MOMM*%
%TF.GenerationSoftware,cairn,packet-logger-carrier,1.0*%
%TF.CreationDate,2026-08-24T00:00:00*%
%TF.FileFunction,Legend,Top*%
%TF.FilePolarity,Positive*%
%TF.SameCoordinates,Original*%
G04 Packet Logger Carrier v1*
G01*
%LPD*%
D10*
%ADD10C,0.135000*%
%ADD11C,0.120000*%
%ADD12C,0.195000*%
%ADD13C,0.150000*%
%ADD14C,0.180000*%
%ADD15C,0.128000*%
%ADD16C,0.165000*%
%ADD17C,0.142000*%
X5600000Y16775000D02*
X6500000Y17075000D01*
X6500000Y17075000D02*
X5600000Y17375000D01*
X6500000Y17525000D02*
X5600000Y17525000D01*
X5600000Y17525000D02*
X5600000Y17975000D01*
X5600000Y17975000D02*
X5750000Y18125000D01*
X5750000Y18125000D02*
X6350000Y18125000D01*
X6350000Y18125000D02*
X6500000Y17975000D01*
X6500000Y17975000D02*
X6500000Y17525000D01*
X6500000Y18275000D02*
X5600000Y18275000D01*
X5600000Y18275000D02*
X5600000Y18725000D01*
X5600000Y18725000D02*
X5750000Y18875000D01*
X5750000Y18875000D02*
X6350000Y18875000D01*
X6350000Y18875000D02*
X6500000Y18725000D01*
X6500000Y18725000D02*
X6500000Y18275000D01*
X8290000Y17375000D02*
X8140000Y17225000D01*
X8140000Y17225000D02*
X8140000Y16925000D01*
X8140000Y16925000D02*
X8290000Y16775000D01*
X8290000Y16775000D02*
X8890000Y16775000D01*
X8890000Y16775000D02*
X9040000Y16925000D01*
X9040000Y16925000D02*
X9040000Y17225000D01*
X9040000Y17225000D02*
X8890000Y17375000D01*
X8890000Y17375000D02*
X8590000Y17375000D01*
X8590000Y17375000D02*
X8590000Y17075000D01*
X9040000Y17525000D02*
X8140000Y17525000D01*
X8140000Y17525000D02*
X9040000Y18125000D01*
X9040000Y18125000D02*
X8140000Y18125000D01*
X9040000Y18275000D02*
X8140000Y18275000D01*
X8140000Y18275000D02*
X8140000Y18725000D01*
X8140000Y18725000D02*
X8290000Y18875000D01*
X8290000Y18875000D02*
X8890000Y18875000D01*
X8890000Y18875000D02*
X9040000Y18725000D01*
X9040000Y18725000D02*
X9040000Y18275000D01*
X10830000Y17375000D02*
X10680000Y17225000D01*
X10680000Y17225000D02*
X10680000Y16925000D01*
X10680000Y16925000D02*
X10830000Y16775000D01*
X10830000Y16775000D02*
X10980000Y16775000D01*
X10980000Y16775000D02*
X11130000Y16925000D01*
X11130000Y16925000D02*
X11130000Y17225000D01*
X11130000Y17225000D02*
X11280000Y17375000D01*
X11280000Y17375000D02*
X11430000Y17375000D01*
X11430000Y17375000D02*
X11580000Y17225000D01*
X11580000Y17225000D02*
X11580000Y16925000D01*
X11580000Y16925000D02*
X11430000Y16775000D01*
X10830000Y18125000D02*
X10680000Y17975000D01*
X10680000Y17975000D02*
X10680000Y17675000D01*
X10680000Y17675000D02*
X10830000Y17525000D01*
X10830000Y17525000D02*
X11430000Y17525000D01*
X11430000Y17525000D02*
X11580000Y17675000D01*
X11580000Y17675000D02*
X11580000Y17975000D01*
X11580000Y17975000D02*
X11430000Y18125000D01*
X10680000Y18275000D02*
X11580000Y18275000D01*
X11580000Y18275000D02*
X11580000Y18875000D01*
X13370000Y17375000D02*
X13220000Y17225000D01*
X13220000Y17225000D02*
X13220000Y16925000D01*
X13220000Y16925000D02*
X13370000Y16775000D01*
X13370000Y16775000D02*
X13520000Y16775000D01*
X13520000Y16775000D02*
X13670000Y16925000D01*
X13670000Y16925000D02*
X13670000Y17225000D01*
X13670000Y17225000D02*
X13820000Y17375000D01*
X13820000Y17375000D02*
X13970000Y17375000D01*
X13970000Y17375000D02*
X14120000Y17225000D01*
X14120000Y17225000D02*
X14120000Y16925000D01*
X14120000Y16925000D02*
X13970000Y16775000D01*
X14120000Y17525000D02*
X13220000Y17525000D01*
X13220000Y17525000D02*
X13220000Y17975000D01*
X13220000Y17975000D02*
X13370000Y18125000D01*
X13370000Y18125000D02*
X13970000Y18125000D01*
X13970000Y18125000D02*
X14120000Y17975000D01*
X14120000Y17975000D02*
X14120000Y17525000D01*
X14120000Y18275000D02*
X13220000Y18575000D01*
X13220000Y18575000D02*
X14120000Y18875000D01*
X13820000Y18425000D02*
X13820000Y18725000D01*
X23910000Y16400000D02*
X23010000Y16400000D01*
X23010000Y16400000D02*
X23010000Y16850000D01*
X23010000Y16850000D02*
X23160000Y17000000D01*
X23160000Y17000000D02*
X23310000Y17000000D01*
X23310000Y17000000D02*
X23460000Y16850000D01*
X23460000Y16850000D02*
X23460000Y16400000D01*
X23460000Y16850000D02*
X23610000Y17000000D01*
X23610000Y17000000D02*
X23760000Y17000000D01*
X23760000Y17000000D02*
X23910000Y16850000D01*
X23910000Y16850000D02*
X23910000Y16400000D01*
X23910000Y17300000D02*
X23910000Y17600000D01*
X23910000Y17600000D02*
X23760000Y17750000D01*
X23760000Y17750000D02*
X23160000Y17750000D01*
X23160000Y17750000D02*
X23010000Y17600000D01*
X23010000Y17600000D02*
X23010000Y17300000D01*
X23010000Y17300000D02*
X23160000Y17150000D01*
X23160000Y17150000D02*
X23760000Y17150000D01*
X23760000Y17150000D02*
X23910000Y17300000D01*
X23910000Y18050000D02*
X23910000Y18350000D01*
X23910000Y18350000D02*
X23760000Y18500000D01*
X23760000Y18500000D02*
X23160000Y18500000D01*
X23160000Y18500000D02*
X23010000Y18350000D01*
X23010000Y18350000D02*
X23010000Y18050000D01*
X23010000Y18050000D02*
X23160000Y17900000D01*
X23160000Y17900000D02*
X23760000Y17900000D01*
X23760000Y17900000D02*
X23910000Y18050000D01*
X23010000Y18650000D02*
X23010000Y19250000D01*
X23010000Y18950000D02*
X23910000Y18950000D01*
X25700000Y17375000D02*
X25550000Y17225000D01*
X25550000Y17225000D02*
X25550000Y16925000D01*
X25550000Y16925000D02*
X25700000Y16775000D01*
X25700000Y16775000D02*
X26300000Y16775000D01*
X26300000Y16775000D02*
X26450000Y16925000D01*
X26450000Y16925000D02*
X26450000Y17225000D01*
X26450000Y17225000D02*
X26300000Y17375000D01*
X26300000Y17375000D02*
X26000000Y17375000D01*
X26000000Y17375000D02*
X26000000Y17075000D01*
X26450000Y17525000D02*
X25550000Y17525000D01*
X25550000Y17525000D02*
X26450000Y18125000D01*
X26450000Y18125000D02*
X25550000Y18125000D01*
X26450000Y18275000D02*
X25550000Y18275000D01*
X25550000Y18275000D02*
X25550000Y18725000D01*
X25550000Y18725000D02*
X25700000Y18875000D01*
X25700000Y18875000D02*
X26300000Y18875000D01*
X26300000Y18875000D02*
X26450000Y18725000D01*
X26450000Y18725000D02*
X26450000Y18275000D01*
X28090000Y16775000D02*
X28090000Y17375000D01*
X28090000Y17075000D02*
X28990000Y17075000D01*
X28990000Y17525000D02*
X28090000Y18125000D01*
X28090000Y17525000D02*
X28990000Y18125000D01*
X28990000Y18425000D02*
X28990000Y18725000D01*
X28990000Y18725000D02*
X28840000Y18875000D01*
X28840000Y18875000D02*
X28240000Y18875000D01*
X28240000Y18875000D02*
X28090000Y18725000D01*
X28090000Y18725000D02*
X28090000Y18425000D01*
X28090000Y18425000D02*
X28240000Y18275000D01*
X28240000Y18275000D02*
X28840000Y18275000D01*
X28840000Y18275000D02*
X28990000Y18425000D01*
X28810000Y18365000D02*
X28270000Y18785000D01*
X31530000Y16775000D02*
X30630000Y16775000D01*
X30630000Y16775000D02*
X30630000Y17225000D01*
X30630000Y17225000D02*
X30780000Y17375000D01*
X30780000Y17375000D02*
X30930000Y17375000D01*
X30930000Y17375000D02*
X31080000Y17225000D01*
X31080000Y17225000D02*
X31080000Y16775000D01*
X31080000Y17075000D02*
X31530000Y17375000D01*
X31530000Y17525000D02*
X30630000Y18125000D01*
X30630000Y17525000D02*
X31530000Y18125000D01*
X31530000Y18425000D02*
X31530000Y18725000D01*
X31530000Y18725000D02*
X31380000Y18875000D01*
X31380000Y18875000D02*
X30780000Y18875000D01*
X30780000Y18875000D02*
X30630000Y18725000D01*
X30630000Y18725000D02*
X30630000Y18425000D01*
X30630000Y18425000D02*
X30780000Y18275000D01*
X30780000Y18275000D02*
X31380000Y18275000D01*
X31380000Y18275000D02*
X31530000Y18425000D01*
X31350000Y18365000D02*
X30810000Y18785000D01*
D11*
X3000000Y20000000D02*
X4200000Y20000000D01*
X5400000Y20000000D02*
X6600000Y20000000D01*
X7800000Y20000000D02*
X9000000Y20000000D01*
X10200000Y20000000D02*
X11400000Y20000000D01*
X12600000Y20000000D02*
X13800000Y20000000D01*
X15000000Y20000000D02*
X16200000Y20000000D01*
X17400000Y20000000D02*
X18600000Y20000000D01*
X19800000Y20000000D02*
X21000000Y20000000D01*
X22200000Y20000000D02*
X23400000Y20000000D01*
X24600000Y20000000D02*
X25800000Y20000000D01*
X27000000Y20000000D02*
X28200000Y20000000D01*
X29400000Y20000000D02*
X30600000Y20000000D01*
X33380000Y20000000D02*
X33380000Y21200000D01*
X33380000Y22400000D02*
X33380000Y23600000D01*
X33380000Y24800000D02*
X33380000Y26000000D01*
X33380000Y27200000D02*
X33380000Y28400000D01*
X33380000Y29600000D02*
X33380000Y30800000D01*
X33380000Y32000000D02*
X33380000Y33200000D01*
X33380000Y34400000D02*
X33380000Y35600000D01*
X33380000Y36800000D02*
X33380000Y38000000D01*
X33380000Y39200000D02*
X33380000Y40400000D01*
X33380000Y41600000D02*
X33380000Y42800000D01*
X33380000Y44000000D02*
X33380000Y45200000D01*
X33380000Y46400000D02*
X33380000Y47600000D01*
X33380000Y48800000D02*
X33380000Y50000000D01*
X33380000Y51200000D02*
X33380000Y52400000D01*
X33380000Y55000000D02*
X32180000Y55000000D01*
X30980000Y55000000D02*
X29780000Y55000000D01*
X28580000Y55000000D02*
X27380000Y55000000D01*
X26180000Y55000000D02*
X24980000Y55000000D01*
X23780000Y55000000D02*
X22580000Y55000000D01*
X21380000Y55000000D02*
X20180000Y55000000D01*
X18980000Y55000000D02*
X17780000Y55000000D01*
X16580000Y55000000D02*
X15380000Y55000000D01*
X14180000Y55000000D02*
X12980000Y55000000D01*
X11780000Y55000000D02*
X10580000Y55000000D01*
X9380000Y55000000D02*
X8180000Y55000000D01*
X6980000Y55000000D02*
X5780000Y55000000D01*
X3000000Y52600000D02*
X3000000Y51400000D01*
X3000000Y50200000D02*
X3000000Y49000000D01*
X3000000Y47800000D02*
X3000000Y46600000D01*
X3000000Y45400000D02*
X3000000Y44200000D01*
X3000000Y43000000D02*
X3000000Y41800000D01*
X3000000Y40600000D02*
X3000000Y39400000D01*
X3000000Y38200000D02*
X3000000Y37000000D01*
X3000000Y35800000D02*
X3000000Y34600000D01*
X3000000Y33400000D02*
X3000000Y32200000D01*
X3000000Y31000000D02*
X3000000Y29800000D01*
X3000000Y28600000D02*
X3000000Y27400000D01*
X3000000Y26200000D02*
X3000000Y25000000D01*
X3000000Y23800000D02*
X3000000Y22600000D01*
D12*
X7898333Y51350000D02*
X7898333Y52650000D01*
X7898333Y52650000D02*
X8548333Y52650000D01*
X8548333Y52650000D02*
X8765000Y52433333D01*
X8765000Y52433333D02*
X8765000Y52216667D01*
X8765000Y52216667D02*
X8548333Y52000000D01*
X8548333Y52000000D02*
X7898333Y52000000D01*
X8331667Y52000000D02*
X8765000Y51350000D01*
X8981667Y51350000D02*
X9415000Y52650000D01*
X9415000Y52650000D02*
X9848333Y51350000D01*
X9198333Y51783333D02*
X9631667Y51783333D01*
X10065000Y51350000D02*
X10065000Y52650000D01*
X10931667Y52650000D02*
X10108333Y51956667D01*
X10411667Y52216667D02*
X10931667Y51350000D01*
X11321667Y52390000D02*
X11581667Y52650000D01*
X11581667Y52650000D02*
X11581667Y51350000D01*
X11321667Y51350000D02*
X11841667Y51350000D01*
X12231667Y51566667D02*
X12448333Y51350000D01*
X12448333Y51350000D02*
X12881667Y51350000D01*
X12881667Y51350000D02*
X13098333Y51566667D01*
X13098333Y51566667D02*
X13098333Y52433333D01*
X13098333Y52433333D02*
X12881667Y52650000D01*
X12881667Y52650000D02*
X12448333Y52650000D01*
X12448333Y52650000D02*
X12231667Y52433333D01*
X12231667Y52433333D02*
X12231667Y52216667D01*
X12231667Y52216667D02*
X12448333Y52000000D01*
X12448333Y52000000D02*
X12881667Y52000000D01*
X12881667Y52000000D02*
X13098333Y52216667D01*
X13531667Y51350000D02*
X13965000Y51350000D01*
X13965000Y51350000D02*
X14181667Y51566667D01*
X14181667Y51566667D02*
X14181667Y52433333D01*
X14181667Y52433333D02*
X13965000Y52650000D01*
X13965000Y52650000D02*
X13531667Y52650000D01*
X13531667Y52650000D02*
X13315000Y52433333D01*
X13315000Y52433333D02*
X13315000Y51566667D01*
X13315000Y51566667D02*
X13531667Y51350000D01*
X13445000Y51610000D02*
X14051667Y52390000D01*
X14615000Y51350000D02*
X15048333Y51350000D01*
X15048333Y51350000D02*
X15265000Y51566667D01*
X15265000Y51566667D02*
X15265000Y52433333D01*
X15265000Y52433333D02*
X15048333Y52650000D01*
X15048333Y52650000D02*
X14615000Y52650000D01*
X14615000Y52650000D02*
X14398333Y52433333D01*
X14398333Y52433333D02*
X14398333Y51566667D01*
X14398333Y51566667D02*
X14615000Y51350000D01*
X14528333Y51610000D02*
X15135000Y52390000D01*
X15481667Y52650000D02*
X16348333Y52650000D01*
X16348333Y52650000D02*
X15915000Y52086667D01*
X15915000Y52086667D02*
X16131667Y52086667D01*
X16131667Y52086667D02*
X16348333Y51870000D01*
X16348333Y51870000D02*
X16348333Y51566667D01*
X16348333Y51566667D02*
X16131667Y51350000D01*
X16131667Y51350000D02*
X15698333Y51350000D01*
X15698333Y51350000D02*
X15481667Y51566667D01*
X19381667Y52650000D02*
X19035000Y52260000D01*
X19035000Y52260000D02*
X19035000Y51740000D01*
X19035000Y51740000D02*
X19381667Y51350000D01*
X19815000Y52650000D02*
X20681667Y52650000D01*
X20681667Y52650000D02*
X20248333Y52086667D01*
X20248333Y52086667D02*
X20465000Y52086667D01*
X20465000Y52086667D02*
X20681667Y51870000D01*
X20681667Y51870000D02*
X20681667Y51566667D01*
X20681667Y51566667D02*
X20465000Y51350000D01*
X20465000Y51350000D02*
X20031667Y51350000D01*
X20031667Y51350000D02*
X19815000Y51566667D01*
X21765000Y52650000D02*
X20898333Y52650000D01*
X20898333Y52650000D02*
X20898333Y52086667D01*
X20898333Y52086667D02*
X21548333Y52086667D01*
X21548333Y52086667D02*
X21765000Y51870000D01*
X21765000Y51870000D02*
X21765000Y51566667D01*
X21765000Y51566667D02*
X21548333Y51350000D01*
X21548333Y51350000D02*
X21115000Y51350000D01*
X21115000Y51350000D02*
X20898333Y51566667D01*
X23065000Y51350000D02*
X23931667Y52650000D01*
X23065000Y52650000D02*
X23931667Y51350000D01*
X25231667Y52650000D02*
X26098333Y52650000D01*
X26098333Y52650000D02*
X25665000Y52086667D01*
X25665000Y52086667D02*
X25881667Y52086667D01*
X25881667Y52086667D02*
X26098333Y51870000D01*
X26098333Y51870000D02*
X26098333Y51566667D01*
X26098333Y51566667D02*
X25881667Y51350000D01*
X25881667Y51350000D02*
X25448333Y51350000D01*
X25448333Y51350000D02*
X25231667Y51566667D01*
X26531667Y51350000D02*
X26965000Y51350000D01*
X26965000Y51350000D02*
X27181667Y51566667D01*
X27181667Y51566667D02*
X27181667Y52433333D01*
X27181667Y52433333D02*
X26965000Y52650000D01*
X26965000Y52650000D02*
X26531667Y52650000D01*
X26531667Y52650000D02*
X26315000Y52433333D01*
X26315000Y52433333D02*
X26315000Y51566667D01*
X26315000Y51566667D02*
X26531667Y51350000D01*
X26445000Y51610000D02*
X27051667Y52390000D01*
X27615000Y52650000D02*
X27961667Y52260000D01*
X27961667Y52260000D02*
X27961667Y51740000D01*
X27961667Y51740000D02*
X27615000Y51350000D01*
D11*
X4523333Y50200000D02*
X4523333Y49533333D01*
X4523333Y49533333D02*
X4656667Y49400000D01*
X4656667Y49400000D02*
X4923333Y49400000D01*
X4923333Y49400000D02*
X5056667Y49533333D01*
X5056667Y49533333D02*
X5056667Y50200000D01*
X5723333Y50066667D02*
X5590000Y50200000D01*
X5590000Y50200000D02*
X5323333Y50200000D01*
X5323333Y50200000D02*
X5190000Y50066667D01*
X5190000Y50066667D02*
X5190000Y49933333D01*
X5190000Y49933333D02*
X5323333Y49800000D01*
X5323333Y49800000D02*
X5590000Y49800000D01*
X5590000Y49800000D02*
X5723333Y49666667D01*
X5723333Y49666667D02*
X5723333Y49533333D01*
X5723333Y49533333D02*
X5590000Y49400000D01*
X5590000Y49400000D02*
X5323333Y49400000D01*
X5323333Y49400000D02*
X5190000Y49533333D01*
X5856667Y49400000D02*
X5856667Y50200000D01*
X5856667Y50200000D02*
X6256667Y50200000D01*
X6256667Y50200000D02*
X6390000Y50066667D01*
X6390000Y50066667D02*
X6390000Y49933333D01*
X6390000Y49933333D02*
X6256667Y49800000D01*
X6256667Y49800000D02*
X5856667Y49800000D01*
X6256667Y49800000D02*
X6390000Y49666667D01*
X6390000Y49666667D02*
X6390000Y49533333D01*
X6390000Y49533333D02*
X6256667Y49400000D01*
X6256667Y49400000D02*
X5856667Y49400000D01*
X6603333Y49800000D02*
X6976667Y49800000D01*
X7723333Y50066667D02*
X7590000Y50200000D01*
X7590000Y50200000D02*
X7323333Y50200000D01*
X7323333Y50200000D02*
X7190000Y50066667D01*
X7190000Y50066667D02*
X7190000Y49533333D01*
X7190000Y49533333D02*
X7323333Y49400000D01*
X7323333Y49400000D02*
X7590000Y49400000D01*
X7590000Y49400000D02*
X7723333Y49533333D01*
X8523333Y49400000D02*
X9056667Y50200000D01*
X9856667Y49400000D02*
X9856667Y50200000D01*
X9856667Y50200000D02*
X10256667Y50200000D01*
X10256667Y50200000D02*
X10390000Y50066667D01*
X10390000Y50066667D02*
X10390000Y49933333D01*
X10390000Y49933333D02*
X10256667Y49800000D01*
X10256667Y49800000D02*
X9856667Y49800000D01*
X10256667Y49800000D02*
X10390000Y49666667D01*
X10390000Y49666667D02*
X10390000Y49533333D01*
X10390000Y49533333D02*
X10256667Y49400000D01*
X10256667Y49400000D02*
X9856667Y49400000D01*
X10523333Y49400000D02*
X10790000Y50200000D01*
X10790000Y50200000D02*
X11056667Y49400000D01*
X10656667Y49666667D02*
X10923333Y49666667D01*
X11190000Y50200000D02*
X11723333Y50200000D01*
X11456667Y50200000D02*
X11456667Y49400000D01*
X11856667Y50200000D02*
X12390000Y50200000D01*
X12123333Y50200000D02*
X12123333Y49400000D01*
X13190000Y49400000D02*
X13723333Y50200000D01*
X15056667Y50066667D02*
X14923333Y50200000D01*
X14923333Y50200000D02*
X14656667Y50200000D01*
X14656667Y50200000D02*
X14523333Y50066667D01*
X14523333Y50066667D02*
X14523333Y49933333D01*
X14523333Y49933333D02*
X14656667Y49800000D01*
X14656667Y49800000D02*
X14923333Y49800000D01*
X14923333Y49800000D02*
X15056667Y49666667D01*
X15056667Y49666667D02*
X15056667Y49533333D01*
X15056667Y49533333D02*
X14923333Y49400000D01*
X14923333Y49400000D02*
X14656667Y49400000D01*
X14656667Y49400000D02*
X14523333Y49533333D01*
X15323333Y49400000D02*
X15590000Y49400000D01*
X15590000Y49400000D02*
X15723333Y49533333D01*
X15723333Y49533333D02*
X15723333Y50066667D01*
X15723333Y50066667D02*
X15590000Y50200000D01*
X15590000Y50200000D02*
X15323333Y50200000D01*
X15323333Y50200000D02*
X15190000Y50066667D01*
X15190000Y50066667D02*
X15190000Y49533333D01*
X15190000Y49533333D02*
X15323333Y49400000D01*
X15856667Y50200000D02*
X15856667Y49400000D01*
X15856667Y49400000D02*
X16390000Y49400000D01*
X16523333Y49400000D02*
X16790000Y50200000D01*
X16790000Y50200000D02*
X17056667Y49400000D01*
X16656667Y49666667D02*
X16923333Y49666667D01*
X17190000Y49400000D02*
X17190000Y50200000D01*
X17190000Y50200000D02*
X17590000Y50200000D01*
X17590000Y50200000D02*
X17723333Y50066667D01*
X17723333Y50066667D02*
X17723333Y49933333D01*
X17723333Y49933333D02*
X17590000Y49800000D01*
X17590000Y49800000D02*
X17190000Y49800000D01*
X17456667Y49800000D02*
X17723333Y49400000D01*
X18523333Y49400000D02*
X19056667Y50200000D01*
X19856667Y49400000D02*
X19856667Y50200000D01*
X19856667Y50200000D02*
X20256667Y50200000D01*
X20256667Y50200000D02*
X20390000Y50066667D01*
X20390000Y50066667D02*
X20390000Y49933333D01*
X20390000Y49933333D02*
X20256667Y49800000D01*
X20256667Y49800000D02*
X19856667Y49800000D01*
X20123333Y49800000D02*
X20390000Y49400000D01*
X21056667Y50200000D02*
X20523333Y50200000D01*
X20523333Y50200000D02*
X20523333Y49400000D01*
X20523333Y49400000D02*
X21056667Y49400000D01*
X20523333Y49800000D02*
X20923333Y49800000D01*
X21723333Y50066667D02*
X21590000Y50200000D01*
X21590000Y50200000D02*
X21323333Y50200000D01*
X21323333Y50200000D02*
X21190000Y50066667D01*
X21190000Y50066667D02*
X21190000Y49933333D01*
X21190000Y49933333D02*
X21323333Y49800000D01*
X21323333Y49800000D02*
X21590000Y49800000D01*
X21590000Y49800000D02*
X21723333Y49666667D01*
X21723333Y49666667D02*
X21723333Y49533333D01*
X21723333Y49533333D02*
X21590000Y49400000D01*
X21590000Y49400000D02*
X21323333Y49400000D01*
X21323333Y49400000D02*
X21190000Y49533333D01*
X22390000Y50200000D02*
X21856667Y50200000D01*
X21856667Y50200000D02*
X21856667Y49400000D01*
X21856667Y49400000D02*
X22390000Y49400000D01*
X21856667Y49800000D02*
X22256667Y49800000D01*
X22523333Y50200000D02*
X23056667Y50200000D01*
X22790000Y50200000D02*
X22790000Y49400000D01*
X23990000Y49400000D02*
X24256667Y49400000D01*
X24256667Y49400000D02*
X24390000Y49533333D01*
X24390000Y49533333D02*
X24390000Y50066667D01*
X24390000Y50066667D02*
X24256667Y50200000D01*
X24256667Y50200000D02*
X23990000Y50200000D01*
X23990000Y50200000D02*
X23856667Y50066667D01*
X23856667Y50066667D02*
X23856667Y49533333D01*
X23856667Y49533333D02*
X23990000Y49400000D01*
X24523333Y49400000D02*
X24523333Y50200000D01*
X24523333Y50200000D02*
X25056667Y49400000D01*
X25056667Y49400000D02*
X25056667Y50200000D01*
X25856667Y50200000D02*
X26390000Y50200000D01*
X26123333Y50200000D02*
X26123333Y49400000D01*
X26523333Y49400000D02*
X26523333Y50200000D01*
X27056667Y49400000D02*
X27056667Y50200000D01*
X26523333Y49800000D02*
X27056667Y49800000D01*
X27323333Y49400000D02*
X27590000Y49400000D01*
X27456667Y49400000D02*
X27456667Y50200000D01*
X27323333Y50200000D02*
X27590000Y50200000D01*
X28390000Y50066667D02*
X28256667Y50200000D01*
X28256667Y50200000D02*
X27990000Y50200000D01*
X27990000Y50200000D02*
X27856667Y50066667D01*
X27856667Y50066667D02*
X27856667Y49933333D01*
X27856667Y49933333D02*
X27990000Y49800000D01*
X27990000Y49800000D02*
X28256667Y49800000D01*
X28256667Y49800000D02*
X28390000Y49666667D01*
X28390000Y49666667D02*
X28390000Y49533333D01*
X28390000Y49533333D02*
X28256667Y49400000D01*
X28256667Y49400000D02*
X27990000Y49400000D01*
X27990000Y49400000D02*
X27856667Y49533333D01*
X29723333Y50200000D02*
X29190000Y50200000D01*
X29190000Y50200000D02*
X29190000Y49400000D01*
X29190000Y49400000D02*
X29723333Y49400000D01*
X29190000Y49800000D02*
X29590000Y49800000D01*
X29856667Y49400000D02*
X29856667Y50200000D01*
X29856667Y50200000D02*
X30256667Y50200000D01*
X30256667Y50200000D02*
X30390000Y50066667D01*
X30390000Y50066667D02*
X30390000Y49533333D01*
X30390000Y49533333D02*
X30256667Y49400000D01*
X30256667Y49400000D02*
X29856667Y49400000D01*
X31056667Y50066667D02*
X30923333Y50200000D01*
X30923333Y50200000D02*
X30656667Y50200000D01*
X30656667Y50200000D02*
X30523333Y50066667D01*
X30523333Y50066667D02*
X30523333Y49533333D01*
X30523333Y49533333D02*
X30656667Y49400000D01*
X30656667Y49400000D02*
X30923333Y49400000D01*
X30923333Y49400000D02*
X31056667Y49533333D01*
X31056667Y49533333D02*
X31056667Y49800000D01*
X31056667Y49800000D02*
X30790000Y49800000D01*
X31723333Y50200000D02*
X31190000Y50200000D01*
X31190000Y50200000D02*
X31190000Y49400000D01*
X31190000Y49400000D02*
X31723333Y49400000D01*
X31190000Y49800000D02*
X31590000Y49800000D01*
D13*
X9526667Y26050000D02*
X9526667Y25216667D01*
X9526667Y25216667D02*
X9360000Y25050000D01*
X9360000Y25050000D02*
X9193333Y25050000D01*
X9193333Y25050000D02*
X9026667Y25216667D01*
X10526667Y25883333D02*
X10360000Y26050000D01*
X10360000Y26050000D02*
X10026667Y26050000D01*
X10026667Y26050000D02*
X9860000Y25883333D01*
X9860000Y25883333D02*
X9860000Y25216667D01*
X9860000Y25216667D02*
X10026667Y25050000D01*
X10026667Y25050000D02*
X10360000Y25050000D01*
X10360000Y25050000D02*
X10526667Y25216667D01*
X10526667Y25216667D02*
X10526667Y25383333D01*
X10526667Y25383333D02*
X10360000Y25550000D01*
X10360000Y25550000D02*
X10026667Y25550000D01*
X10026667Y25550000D02*
X9860000Y25383333D01*
X26936667Y26350000D02*
X26936667Y25516667D01*
X26936667Y25516667D02*
X26770000Y25350000D01*
X26770000Y25350000D02*
X26603333Y25350000D01*
X26603333Y25350000D02*
X26436667Y25516667D01*
X27270000Y26350000D02*
X27936667Y26350000D01*
X27936667Y26350000D02*
X27503333Y25350000D01*
D10*
X67330000Y17550000D02*
X66430000Y17550000D01*
X66430000Y17550000D02*
X66430000Y18000000D01*
X66430000Y18000000D02*
X66580000Y18150000D01*
X66580000Y18150000D02*
X67180000Y18150000D01*
X67180000Y18150000D02*
X67330000Y18000000D01*
X67330000Y18000000D02*
X67330000Y17550000D01*
X66430000Y18300000D02*
X66430000Y18900000D01*
X66430000Y18900000D02*
X67330000Y18510000D01*
X69870000Y17550000D02*
X68970000Y17550000D01*
X68970000Y17550000D02*
X68970000Y18000000D01*
X68970000Y18000000D02*
X69120000Y18150000D01*
X69120000Y18150000D02*
X69720000Y18150000D01*
X69720000Y18150000D02*
X69870000Y18000000D01*
X69870000Y18000000D02*
X69870000Y17550000D01*
X69420000Y18450000D02*
X69270000Y18300000D01*
X69270000Y18300000D02*
X69120000Y18300000D01*
X69120000Y18300000D02*
X68970000Y18450000D01*
X68970000Y18450000D02*
X68970000Y18750000D01*
X68970000Y18750000D02*
X69120000Y18900000D01*
X69120000Y18900000D02*
X69270000Y18900000D01*
X69270000Y18900000D02*
X69420000Y18750000D01*
X69420000Y18750000D02*
X69420000Y18450000D01*
X69420000Y18450000D02*
X69570000Y18300000D01*
X69570000Y18300000D02*
X69720000Y18300000D01*
X69720000Y18300000D02*
X69870000Y18450000D01*
X69870000Y18450000D02*
X69870000Y18750000D01*
X69870000Y18750000D02*
X69720000Y18900000D01*
X69720000Y18900000D02*
X69570000Y18900000D01*
X69570000Y18900000D02*
X69420000Y18750000D01*
X72410000Y17550000D02*
X71510000Y17550000D01*
X71510000Y17550000D02*
X71510000Y18000000D01*
X71510000Y18000000D02*
X71660000Y18150000D01*
X71660000Y18150000D02*
X72260000Y18150000D01*
X72260000Y18150000D02*
X72410000Y18000000D01*
X72410000Y18000000D02*
X72410000Y17550000D01*
X72260000Y18300000D02*
X72410000Y18450000D01*
X72410000Y18450000D02*
X72410000Y18750000D01*
X72410000Y18750000D02*
X72260000Y18900000D01*
X72260000Y18900000D02*
X71660000Y18900000D01*
X71660000Y18900000D02*
X71510000Y18750000D01*
X71510000Y18750000D02*
X71510000Y18450000D01*
X71510000Y18450000D02*
X71660000Y18300000D01*
X71660000Y18300000D02*
X71810000Y18300000D01*
X71810000Y18300000D02*
X71960000Y18450000D01*
X71960000Y18450000D02*
X71960000Y18750000D01*
X71960000Y18750000D02*
X71810000Y18900000D01*
X74950000Y17175000D02*
X74050000Y17175000D01*
X74050000Y17175000D02*
X74050000Y17625000D01*
X74050000Y17625000D02*
X74200000Y17775000D01*
X74200000Y17775000D02*
X74800000Y17775000D01*
X74800000Y17775000D02*
X74950000Y17625000D01*
X74950000Y17625000D02*
X74950000Y17175000D01*
X74230000Y18045000D02*
X74050000Y18225000D01*
X74050000Y18225000D02*
X74950000Y18225000D01*
X74950000Y18045000D02*
X74950000Y18405000D01*
X74950000Y18825000D02*
X74950000Y19125000D01*
X74950000Y19125000D02*
X74800000Y19275000D01*
X74800000Y19275000D02*
X74200000Y19275000D01*
X74200000Y19275000D02*
X74050000Y19125000D01*
X74050000Y19125000D02*
X74050000Y18825000D01*
X74050000Y18825000D02*
X74200000Y18675000D01*
X74200000Y18675000D02*
X74800000Y18675000D01*
X74800000Y18675000D02*
X74950000Y18825000D01*
X74770000Y18765000D02*
X74230000Y19185000D01*
X76590000Y17175000D02*
X76590000Y17775000D01*
X76590000Y17775000D02*
X76980000Y17475000D01*
X76980000Y17475000D02*
X76980000Y17625000D01*
X76980000Y17625000D02*
X77130000Y17775000D01*
X77130000Y17775000D02*
X77340000Y17775000D01*
X77340000Y17775000D02*
X77490000Y17625000D01*
X77490000Y17625000D02*
X77490000Y17325000D01*
X77490000Y17325000D02*
X77340000Y17175000D01*
X76590000Y17925000D02*
X77490000Y18225000D01*
X77490000Y18225000D02*
X76590000Y18525000D01*
X76590000Y18675000D02*
X76590000Y19275000D01*
X76590000Y19275000D02*
X76980000Y18975000D01*
X76980000Y18975000D02*
X76980000Y19125000D01*
X76980000Y19125000D02*
X77130000Y19275000D01*
X77130000Y19275000D02*
X77340000Y19275000D01*
X77340000Y19275000D02*
X77490000Y19125000D01*
X77490000Y19125000D02*
X77490000Y18825000D01*
X77490000Y18825000D02*
X77340000Y18675000D01*
X79280000Y17775000D02*
X79130000Y17625000D01*
X79130000Y17625000D02*
X79130000Y17325000D01*
X79130000Y17325000D02*
X79280000Y17175000D01*
X79280000Y17175000D02*
X79880000Y17175000D01*
X79880000Y17175000D02*
X80030000Y17325000D01*
X80030000Y17325000D02*
X80030000Y17625000D01*
X80030000Y17625000D02*
X79880000Y17775000D01*
X79880000Y17775000D02*
X79580000Y17775000D01*
X79580000Y17775000D02*
X79580000Y17475000D01*
X80030000Y17925000D02*
X79130000Y17925000D01*
X79130000Y17925000D02*
X80030000Y18525000D01*
X80030000Y18525000D02*
X79130000Y18525000D01*
X80030000Y18675000D02*
X79130000Y18675000D01*
X79130000Y18675000D02*
X79130000Y19125000D01*
X79130000Y19125000D02*
X79280000Y19275000D01*
X79280000Y19275000D02*
X79880000Y19275000D01*
X79880000Y19275000D02*
X80030000Y19125000D01*
X80030000Y19125000D02*
X80030000Y18675000D01*
X81670000Y18150000D02*
X81670000Y17550000D01*
X81670000Y17550000D02*
X82060000Y17550000D01*
X82060000Y17550000D02*
X82060000Y18000000D01*
X82060000Y18000000D02*
X82210000Y18150000D01*
X82210000Y18150000D02*
X82420000Y18150000D01*
X82420000Y18150000D02*
X82570000Y18000000D01*
X82570000Y18000000D02*
X82570000Y17700000D01*
X82570000Y17700000D02*
X82420000Y17550000D01*
X81670000Y18300000D02*
X82570000Y18600000D01*
X82570000Y18600000D02*
X81670000Y18900000D01*
X67330000Y38850000D02*
X66430000Y38850000D01*
X66430000Y38850000D02*
X66430000Y39300000D01*
X66430000Y39300000D02*
X66580000Y39450000D01*
X66580000Y39450000D02*
X67180000Y39450000D01*
X67180000Y39450000D02*
X67330000Y39300000D01*
X67330000Y39300000D02*
X67330000Y38850000D01*
X66580000Y40200000D02*
X66430000Y40050000D01*
X66430000Y40050000D02*
X66430000Y39750000D01*
X66430000Y39750000D02*
X66580000Y39600000D01*
X66580000Y39600000D02*
X67180000Y39600000D01*
X67180000Y39600000D02*
X67330000Y39750000D01*
X67330000Y39750000D02*
X67330000Y40050000D01*
X67330000Y40050000D02*
X67180000Y40200000D01*
X67180000Y40200000D02*
X67030000Y40200000D01*
X67030000Y40200000D02*
X66880000Y40050000D01*
X66880000Y40050000D02*
X66880000Y39750000D01*
X66880000Y39750000D02*
X67030000Y39600000D01*
X69870000Y38850000D02*
X68970000Y38850000D01*
X68970000Y38850000D02*
X68970000Y39300000D01*
X68970000Y39300000D02*
X69120000Y39450000D01*
X69120000Y39450000D02*
X69720000Y39450000D01*
X69720000Y39450000D02*
X69870000Y39300000D01*
X69870000Y39300000D02*
X69870000Y38850000D01*
X68970000Y40200000D02*
X68970000Y39600000D01*
X68970000Y39600000D02*
X69360000Y39600000D01*
X69360000Y39600000D02*
X69360000Y40050000D01*
X69360000Y40050000D02*
X69510000Y40200000D01*
X69510000Y40200000D02*
X69720000Y40200000D01*
X69720000Y40200000D02*
X69870000Y40050000D01*
X69870000Y40050000D02*
X69870000Y39750000D01*
X69870000Y39750000D02*
X69720000Y39600000D01*
X72410000Y38850000D02*
X71510000Y38850000D01*
X71510000Y38850000D02*
X71510000Y39300000D01*
X71510000Y39300000D02*
X71660000Y39450000D01*
X71660000Y39450000D02*
X72260000Y39450000D01*
X72260000Y39450000D02*
X72410000Y39300000D01*
X72410000Y39300000D02*
X72410000Y38850000D01*
X72410000Y40050000D02*
X71510000Y40050000D01*
X71510000Y40050000D02*
X72140000Y39600000D01*
X72140000Y39600000D02*
X72140000Y40200000D01*
X74950000Y38850000D02*
X74050000Y38850000D01*
X74050000Y38850000D02*
X74050000Y39300000D01*
X74050000Y39300000D02*
X74200000Y39450000D01*
X74200000Y39450000D02*
X74800000Y39450000D01*
X74800000Y39450000D02*
X74950000Y39300000D01*
X74950000Y39300000D02*
X74950000Y38850000D01*
X74050000Y39600000D02*
X74050000Y40200000D01*
X74050000Y40200000D02*
X74440000Y39900000D01*
X74440000Y39900000D02*
X74440000Y40050000D01*
X74440000Y40050000D02*
X74590000Y40200000D01*
X74590000Y40200000D02*
X74800000Y40200000D01*
X74800000Y40200000D02*
X74950000Y40050000D01*
X74950000Y40050000D02*
X74950000Y39750000D01*
X74950000Y39750000D02*
X74800000Y39600000D01*
X77490000Y38850000D02*
X76590000Y38850000D01*
X76590000Y38850000D02*
X76590000Y39300000D01*
X76590000Y39300000D02*
X76740000Y39450000D01*
X76740000Y39450000D02*
X77340000Y39450000D01*
X77340000Y39450000D02*
X77490000Y39300000D01*
X77490000Y39300000D02*
X77490000Y38850000D01*
X76740000Y39600000D02*
X76590000Y39750000D01*
X76590000Y39750000D02*
X76590000Y40050000D01*
X76590000Y40050000D02*
X76740000Y40200000D01*
X76740000Y40200000D02*
X76920000Y40200000D01*
X76920000Y40200000D02*
X77490000Y39600000D01*
X77490000Y39600000D02*
X77490000Y40200000D01*
X80030000Y38850000D02*
X79130000Y38850000D01*
X79130000Y38850000D02*
X79130000Y39300000D01*
X79130000Y39300000D02*
X79280000Y39450000D01*
X79280000Y39450000D02*
X79880000Y39450000D01*
X79880000Y39450000D02*
X80030000Y39300000D01*
X80030000Y39300000D02*
X80030000Y38850000D01*
X79310000Y39720000D02*
X79130000Y39900000D01*
X79130000Y39900000D02*
X80030000Y39900000D01*
X80030000Y39720000D02*
X80030000Y40080000D01*
X82570000Y38850000D02*
X81670000Y38850000D01*
X81670000Y38850000D02*
X81670000Y39300000D01*
X81670000Y39300000D02*
X81820000Y39450000D01*
X81820000Y39450000D02*
X82420000Y39450000D01*
X82420000Y39450000D02*
X82570000Y39300000D01*
X82570000Y39300000D02*
X82570000Y38850000D01*
X82570000Y39750000D02*
X82570000Y40050000D01*
X82570000Y40050000D02*
X82420000Y40200000D01*
X82420000Y40200000D02*
X81820000Y40200000D01*
X81820000Y40200000D02*
X81670000Y40050000D01*
X81670000Y40050000D02*
X81670000Y39750000D01*
X81670000Y39750000D02*
X81820000Y39600000D01*
X81820000Y39600000D02*
X82420000Y39600000D01*
X82420000Y39600000D02*
X82570000Y39750000D01*
X82390000Y39690000D02*
X81850000Y40110000D01*
D11*
X64000000Y20000000D02*
X65200000Y20000000D01*
X66400000Y20000000D02*
X67600000Y20000000D01*
X68800000Y20000000D02*
X70000000Y20000000D01*
X71200000Y20000000D02*
X72400000Y20000000D01*
X73600000Y20000000D02*
X74800000Y20000000D01*
X76000000Y20000000D02*
X77200000Y20000000D01*
X78400000Y20000000D02*
X79600000Y20000000D01*
X80800000Y20000000D02*
X82000000Y20000000D01*
X85000000Y20000000D02*
X85000000Y21200000D01*
X85000000Y22400000D02*
X85000000Y23600000D01*
X85000000Y24800000D02*
X85000000Y26000000D01*
X85000000Y27200000D02*
X85000000Y28400000D01*
X85000000Y29600000D02*
X85000000Y30800000D01*
X85000000Y32000000D02*
X85000000Y33200000D01*
X85000000Y34400000D02*
X85000000Y35600000D01*
X85000000Y37800000D02*
X83800000Y37800000D01*
X82600000Y37800000D02*
X81400000Y37800000D01*
X80200000Y37800000D02*
X79000000Y37800000D01*
X77800000Y37800000D02*
X76600000Y37800000D01*
X75400000Y37800000D02*
X74200000Y37800000D01*
X73000000Y37800000D02*
X71800000Y37800000D01*
X70600000Y37800000D02*
X69400000Y37800000D01*
X68200000Y37800000D02*
X67000000Y37800000D01*
X64000000Y37800000D02*
X64000000Y36600000D01*
X64000000Y35400000D02*
X64000000Y34200000D01*
X64000000Y33000000D02*
X64000000Y31800000D01*
X64000000Y30600000D02*
X64000000Y29400000D01*
X64000000Y28200000D02*
X64000000Y27000000D01*
X64000000Y25800000D02*
X64000000Y24600000D01*
X64000000Y23400000D02*
X64000000Y22200000D01*
D14*
X68000000Y28280000D02*
X68800000Y29480000D01*
X68000000Y29480000D02*
X68800000Y28280000D01*
X69200000Y28280000D02*
X69600000Y28280000D01*
X69400000Y28280000D02*
X69400000Y29480000D01*
X69200000Y29480000D02*
X69600000Y29480000D01*
X70000000Y28280000D02*
X70400000Y29480000D01*
X70400000Y29480000D02*
X70800000Y28280000D01*
X70200000Y28680000D02*
X70600000Y28680000D01*
X71200000Y28280000D02*
X71600000Y28280000D01*
X71600000Y28280000D02*
X71800000Y28480000D01*
X71800000Y28480000D02*
X71800000Y29280000D01*
X71800000Y29280000D02*
X71600000Y29480000D01*
X71600000Y29480000D02*
X71200000Y29480000D01*
X71200000Y29480000D02*
X71000000Y29280000D01*
X71000000Y29280000D02*
X71000000Y28480000D01*
X71000000Y28480000D02*
X71200000Y28280000D01*
X73800000Y29480000D02*
X73000000Y29480000D01*
X73000000Y29480000D02*
X73000000Y28280000D01*
X73000000Y28280000D02*
X73800000Y28280000D01*
X73000000Y28880000D02*
X73600000Y28880000D01*
X74800000Y29280000D02*
X74600000Y29480000D01*
X74600000Y29480000D02*
X74200000Y29480000D01*
X74200000Y29480000D02*
X74000000Y29280000D01*
X74000000Y29280000D02*
X74000000Y29080000D01*
X74000000Y29080000D02*
X74200000Y28880000D01*
X74200000Y28880000D02*
X74600000Y28880000D01*
X74600000Y28880000D02*
X74800000Y28680000D01*
X74800000Y28680000D02*
X74800000Y28480000D01*
X74800000Y28480000D02*
X74600000Y28280000D01*
X74600000Y28280000D02*
X74200000Y28280000D01*
X74200000Y28280000D02*
X74000000Y28480000D01*
X75000000Y28280000D02*
X75000000Y29480000D01*
X75000000Y29480000D02*
X75600000Y29480000D01*
X75600000Y29480000D02*
X75800000Y29280000D01*
X75800000Y29280000D02*
X75800000Y29080000D01*
X75800000Y29080000D02*
X75600000Y28880000D01*
X75600000Y28880000D02*
X75000000Y28880000D01*
X76000000Y29480000D02*
X76800000Y29480000D01*
X76800000Y29480000D02*
X76400000Y28960000D01*
X76400000Y28960000D02*
X76600000Y28960000D01*
X76600000Y28960000D02*
X76800000Y28760000D01*
X76800000Y28760000D02*
X76800000Y28480000D01*
X76800000Y28480000D02*
X76600000Y28280000D01*
X76600000Y28280000D02*
X76200000Y28280000D01*
X76200000Y28280000D02*
X76000000Y28480000D01*
X77000000Y29280000D02*
X77200000Y29480000D01*
X77200000Y29480000D02*
X77600000Y29480000D01*
X77600000Y29480000D02*
X77800000Y29280000D01*
X77800000Y29280000D02*
X77800000Y29040000D01*
X77800000Y29040000D02*
X77000000Y28280000D01*
X77000000Y28280000D02*
X77800000Y28280000D01*
X78120000Y28880000D02*
X78680000Y28880000D01*
X79800000Y29280000D02*
X79600000Y29480000D01*
X79600000Y29480000D02*
X79200000Y29480000D01*
X79200000Y29480000D02*
X79000000Y29280000D01*
X79000000Y29280000D02*
X79000000Y28480000D01*
X79000000Y28480000D02*
X79200000Y28280000D01*
X79200000Y28280000D02*
X79600000Y28280000D01*
X79600000Y28280000D02*
X79800000Y28480000D01*
X80800000Y29280000D02*
X80600000Y29480000D01*
X80600000Y29480000D02*
X80200000Y29480000D01*
X80200000Y29480000D02*
X80000000Y29280000D01*
X80000000Y29280000D02*
X80000000Y28480000D01*
X80000000Y28480000D02*
X80200000Y28280000D01*
X80200000Y28280000D02*
X80600000Y28280000D01*
X80600000Y28280000D02*
X80800000Y28480000D01*
X80800000Y28480000D02*
X80800000Y28680000D01*
X80800000Y28680000D02*
X80600000Y28880000D01*
X80600000Y28880000D02*
X80200000Y28880000D01*
X80200000Y28880000D02*
X80000000Y28680000D01*
D15*
X69187500Y27305000D02*
X69187500Y26596667D01*
X69187500Y26596667D02*
X69329167Y26455000D01*
X69329167Y26455000D02*
X69612500Y26455000D01*
X69612500Y26455000D02*
X69754167Y26596667D01*
X69754167Y26596667D02*
X69754167Y27305000D01*
X70462500Y27163333D02*
X70320833Y27305000D01*
X70320833Y27305000D02*
X70037500Y27305000D01*
X70037500Y27305000D02*
X69895833Y27163333D01*
X69895833Y27163333D02*
X69895833Y27021667D01*
X69895833Y27021667D02*
X70037500Y26880000D01*
X70037500Y26880000D02*
X70320833Y26880000D01*
X70320833Y26880000D02*
X70462500Y26738333D01*
X70462500Y26738333D02*
X70462500Y26596667D01*
X70462500Y26596667D02*
X70320833Y26455000D01*
X70320833Y26455000D02*
X70037500Y26455000D01*
X70037500Y26455000D02*
X69895833Y26596667D01*
X70604167Y26455000D02*
X70604167Y27305000D01*
X70604167Y27305000D02*
X71029167Y27305000D01*
X71029167Y27305000D02*
X71170833Y27163333D01*
X71170833Y27163333D02*
X71170833Y27021667D01*
X71170833Y27021667D02*
X71029167Y26880000D01*
X71029167Y26880000D02*
X70604167Y26880000D01*
X71029167Y26880000D02*
X71170833Y26738333D01*
X71170833Y26738333D02*
X71170833Y26596667D01*
X71170833Y26596667D02*
X71029167Y26455000D01*
X71029167Y26455000D02*
X70604167Y26455000D01*
X71397500Y26880000D02*
X71794167Y26880000D01*
X72587500Y27163333D02*
X72445833Y27305000D01*
X72445833Y27305000D02*
X72162500Y27305000D01*
X72162500Y27305000D02*
X72020833Y27163333D01*
X72020833Y27163333D02*
X72020833Y26596667D01*
X72020833Y26596667D02*
X72162500Y26455000D01*
X72162500Y26455000D02*
X72445833Y26455000D01*
X72445833Y26455000D02*
X72587500Y26596667D01*
X74230833Y26880000D02*
X74627500Y26880000D01*
X74939167Y27163333D02*
X75364167Y26880000D01*
X75364167Y26880000D02*
X74939167Y26596667D01*
X77545833Y27305000D02*
X76979167Y27305000D01*
X76979167Y27305000D02*
X76979167Y26455000D01*
X76979167Y26455000D02*
X77545833Y26455000D01*
X76979167Y26880000D02*
X77404167Y26880000D01*
X77687500Y26455000D02*
X77970833Y27305000D01*
X77970833Y27305000D02*
X78254167Y26455000D01*
X77829167Y26738333D02*
X78112500Y26738333D01*
X78962500Y27163333D02*
X78820833Y27305000D01*
X78820833Y27305000D02*
X78537500Y27305000D01*
X78537500Y27305000D02*
X78395833Y27163333D01*
X78395833Y27163333D02*
X78395833Y27021667D01*
X78395833Y27021667D02*
X78537500Y26880000D01*
X78537500Y26880000D02*
X78820833Y26880000D01*
X78820833Y26880000D02*
X78962500Y26738333D01*
X78962500Y26738333D02*
X78962500Y26596667D01*
X78962500Y26596667D02*
X78820833Y26455000D01*
X78820833Y26455000D02*
X78537500Y26455000D01*
X78537500Y26455000D02*
X78395833Y26596667D01*
X79104167Y27305000D02*
X79670833Y27305000D01*
X79387500Y27305000D02*
X79387500Y26455000D01*
D10*
X43200000Y23875000D02*
X43200000Y24475000D01*
X43200000Y24475000D02*
X43590000Y24175000D01*
X43590000Y24175000D02*
X43590000Y24325000D01*
X43590000Y24325000D02*
X43740000Y24475000D01*
X43740000Y24475000D02*
X43950000Y24475000D01*
X43950000Y24475000D02*
X44100000Y24325000D01*
X44100000Y24325000D02*
X44100000Y24025000D01*
X44100000Y24025000D02*
X43950000Y23875000D01*
X43200000Y24625000D02*
X44100000Y24925000D01*
X44100000Y24925000D02*
X43200000Y25225000D01*
X43200000Y25375000D02*
X43200000Y25975000D01*
X43200000Y25975000D02*
X43590000Y25675000D01*
X43590000Y25675000D02*
X43590000Y25825000D01*
X43590000Y25825000D02*
X43740000Y25975000D01*
X43740000Y25975000D02*
X43950000Y25975000D01*
X43950000Y25975000D02*
X44100000Y25825000D01*
X44100000Y25825000D02*
X44100000Y25525000D01*
X44100000Y25525000D02*
X43950000Y25375000D01*
X45890000Y24850000D02*
X45740000Y24700000D01*
X45740000Y24700000D02*
X45740000Y24400000D01*
X45740000Y24400000D02*
X45890000Y24250000D01*
X45890000Y24250000D02*
X46490000Y24250000D01*
X46490000Y24250000D02*
X46640000Y24400000D01*
X46640000Y24400000D02*
X46640000Y24700000D01*
X46640000Y24700000D02*
X46490000Y24850000D01*
X45890000Y25600000D02*
X45740000Y25450000D01*
X45740000Y25450000D02*
X45740000Y25150000D01*
X45740000Y25150000D02*
X45890000Y25000000D01*
X45890000Y25000000D02*
X46040000Y25000000D01*
X46040000Y25000000D02*
X46190000Y25150000D01*
X46190000Y25150000D02*
X46190000Y25450000D01*
X46190000Y25450000D02*
X46340000Y25600000D01*
X46340000Y25600000D02*
X46490000Y25600000D01*
X46490000Y25600000D02*
X46640000Y25450000D01*
X46640000Y25450000D02*
X46640000Y25150000D01*
X46640000Y25150000D02*
X46490000Y25000000D01*
X49180000Y23500000D02*
X48280000Y23500000D01*
X48280000Y23500000D02*
X48730000Y23800000D01*
X48730000Y23800000D02*
X48280000Y24100000D01*
X48280000Y24100000D02*
X49180000Y24100000D01*
X49180000Y24400000D02*
X49180000Y24700000D01*
X49180000Y24700000D02*
X49030000Y24850000D01*
X49030000Y24850000D02*
X48430000Y24850000D01*
X48430000Y24850000D02*
X48280000Y24700000D01*
X48280000Y24700000D02*
X48280000Y24400000D01*
X48280000Y24400000D02*
X48430000Y24250000D01*
X48430000Y24250000D02*
X49030000Y24250000D01*
X49030000Y24250000D02*
X49180000Y24400000D01*
X48430000Y25600000D02*
X48280000Y25450000D01*
X48280000Y25450000D02*
X48280000Y25150000D01*
X48280000Y25150000D02*
X48430000Y25000000D01*
X48430000Y25000000D02*
X48580000Y25000000D01*
X48580000Y25000000D02*
X48730000Y25150000D01*
X48730000Y25150000D02*
X48730000Y25450000D01*
X48730000Y25450000D02*
X48880000Y25600000D01*
X48880000Y25600000D02*
X49030000Y25600000D01*
X49030000Y25600000D02*
X49180000Y25450000D01*
X49180000Y25450000D02*
X49180000Y25150000D01*
X49180000Y25150000D02*
X49030000Y25000000D01*
X49180000Y25900000D02*
X49180000Y26200000D01*
X49180000Y26050000D02*
X48280000Y26050000D01*
X48280000Y25900000D02*
X48280000Y26200000D01*
X50970000Y24475000D02*
X50820000Y24325000D01*
X50820000Y24325000D02*
X50820000Y24025000D01*
X50820000Y24025000D02*
X50970000Y23875000D01*
X50970000Y23875000D02*
X51570000Y23875000D01*
X51570000Y23875000D02*
X51720000Y24025000D01*
X51720000Y24025000D02*
X51720000Y24325000D01*
X51720000Y24325000D02*
X51570000Y24475000D01*
X50820000Y24625000D02*
X51720000Y24625000D01*
X51720000Y24625000D02*
X51720000Y25225000D01*
X51720000Y25375000D02*
X50820000Y25375000D01*
X50820000Y25975000D02*
X51300000Y25405000D01*
X51120000Y25615000D02*
X51720000Y25975000D01*
X54260000Y23500000D02*
X53360000Y23500000D01*
X53360000Y23500000D02*
X53810000Y23800000D01*
X53810000Y23800000D02*
X53360000Y24100000D01*
X53360000Y24100000D02*
X54260000Y24100000D01*
X54260000Y24400000D02*
X54260000Y24700000D01*
X54260000Y24550000D02*
X53360000Y24550000D01*
X53360000Y24400000D02*
X53360000Y24700000D01*
X53510000Y25600000D02*
X53360000Y25450000D01*
X53360000Y25450000D02*
X53360000Y25150000D01*
X53360000Y25150000D02*
X53510000Y25000000D01*
X53510000Y25000000D02*
X53660000Y25000000D01*
X53660000Y25000000D02*
X53810000Y25150000D01*
X53810000Y25150000D02*
X53810000Y25450000D01*
X53810000Y25450000D02*
X53960000Y25600000D01*
X53960000Y25600000D02*
X54110000Y25600000D01*
X54110000Y25600000D02*
X54260000Y25450000D01*
X54260000Y25450000D02*
X54260000Y25150000D01*
X54260000Y25150000D02*
X54110000Y25000000D01*
X54260000Y25900000D02*
X54260000Y26200000D01*
X54260000Y26200000D02*
X54110000Y26350000D01*
X54110000Y26350000D02*
X53510000Y26350000D01*
X53510000Y26350000D02*
X53360000Y26200000D01*
X53360000Y26200000D02*
X53360000Y25900000D01*
X53360000Y25900000D02*
X53510000Y25750000D01*
X53510000Y25750000D02*
X54110000Y25750000D01*
X54110000Y25750000D02*
X54260000Y25900000D01*
X56050000Y24475000D02*
X55900000Y24325000D01*
X55900000Y24325000D02*
X55900000Y24025000D01*
X55900000Y24025000D02*
X56050000Y23875000D01*
X56050000Y23875000D02*
X56650000Y23875000D01*
X56650000Y23875000D02*
X56800000Y24025000D01*
X56800000Y24025000D02*
X56800000Y24325000D01*
X56800000Y24325000D02*
X56650000Y24475000D01*
X56650000Y24475000D02*
X56350000Y24475000D01*
X56350000Y24475000D02*
X56350000Y24175000D01*
X56800000Y24625000D02*
X55900000Y24625000D01*
X55900000Y24625000D02*
X56800000Y25225000D01*
X56800000Y25225000D02*
X55900000Y25225000D01*
X56800000Y25375000D02*
X55900000Y25375000D01*
X55900000Y25375000D02*
X55900000Y25825000D01*
X55900000Y25825000D02*
X56050000Y25975000D01*
X56050000Y25975000D02*
X56650000Y25975000D01*
X56650000Y25975000D02*
X56800000Y25825000D01*
X56800000Y25825000D02*
X56800000Y25375000D01*
D11*
X38000000Y600000D02*
X39200000Y600000D01*
X40400000Y600000D02*
X41600000Y600000D01*
X42800000Y600000D02*
X44000000Y600000D01*
X45200000Y600000D02*
X46400000Y600000D01*
X47600000Y600000D02*
X48800000Y600000D01*
X50000000Y600000D02*
X51200000Y600000D01*
X52400000Y600000D02*
X53600000Y600000D01*
X54800000Y600000D02*
X56000000Y600000D01*
X57200000Y600000D02*
X58400000Y600000D01*
X59600000Y600000D02*
X60800000Y600000D01*
X62000000Y600000D02*
X62000000Y1800000D01*
X62000000Y3000000D02*
X62000000Y4200000D01*
X62000000Y5400000D02*
X62000000Y6600000D01*
X62000000Y7800000D02*
X62000000Y9000000D01*
X62000000Y10200000D02*
X62000000Y11400000D01*
X62000000Y12600000D02*
X62000000Y13800000D01*
X62000000Y15000000D02*
X62000000Y16200000D01*
X62000000Y17400000D02*
X62000000Y18600000D01*
X62000000Y22000000D02*
X60800000Y22000000D01*
X59600000Y22000000D02*
X58400000Y22000000D01*
X47600000Y22000000D02*
X47290323Y22000000D01*
X45083871Y22000000D02*
X44735484Y22000000D01*
X42560000Y22000000D02*
X41600000Y22000000D01*
X40400000Y22000000D02*
X39200000Y22000000D01*
X38000000Y22000000D02*
X38000000Y20800000D01*
X38000000Y19600000D02*
X38000000Y18400000D01*
X38000000Y17200000D02*
X38000000Y16000000D01*
X38000000Y14800000D02*
X38000000Y13600000D01*
X38000000Y12400000D02*
X38000000Y11200000D01*
X38000000Y10000000D02*
X38000000Y8800000D01*
X38000000Y7600000D02*
X38000000Y6400000D01*
X38000000Y5200000D02*
X38000000Y4000000D01*
D16*
X42666667Y18050000D02*
X42666667Y19150000D01*
X42666667Y19150000D02*
X43033333Y18600000D01*
X43033333Y18600000D02*
X43400000Y19150000D01*
X43400000Y19150000D02*
X43400000Y18050000D01*
X43766667Y18050000D02*
X44133333Y18050000D01*
X43950000Y18050000D02*
X43950000Y19150000D01*
X43766667Y19150000D02*
X44133333Y19150000D01*
X45233333Y18966667D02*
X45050000Y19150000D01*
X45050000Y19150000D02*
X44683333Y19150000D01*
X44683333Y19150000D02*
X44500000Y18966667D01*
X44500000Y18966667D02*
X44500000Y18233333D01*
X44500000Y18233333D02*
X44683333Y18050000D01*
X44683333Y18050000D02*
X45050000Y18050000D01*
X45050000Y18050000D02*
X45233333Y18233333D01*
X45416667Y18050000D02*
X45416667Y19150000D01*
X45416667Y19150000D02*
X45966667Y19150000D01*
X45966667Y19150000D02*
X46150000Y18966667D01*
X46150000Y18966667D02*
X46150000Y18783333D01*
X46150000Y18783333D02*
X45966667Y18600000D01*
X45966667Y18600000D02*
X45416667Y18600000D01*
X45783333Y18600000D02*
X46150000Y18050000D01*
X46516667Y18050000D02*
X46883333Y18050000D01*
X46883333Y18050000D02*
X47066667Y18233333D01*
X47066667Y18233333D02*
X47066667Y18966667D01*
X47066667Y18966667D02*
X46883333Y19150000D01*
X46883333Y19150000D02*
X46516667Y19150000D01*
X46516667Y19150000D02*
X46333333Y18966667D01*
X46333333Y18966667D02*
X46333333Y18233333D01*
X46333333Y18233333D02*
X46516667Y18050000D01*
X47983333Y18966667D02*
X47800000Y19150000D01*
X47800000Y19150000D02*
X47433333Y19150000D01*
X47433333Y19150000D02*
X47250000Y18966667D01*
X47250000Y18966667D02*
X47250000Y18783333D01*
X47250000Y18783333D02*
X47433333Y18600000D01*
X47433333Y18600000D02*
X47800000Y18600000D01*
X47800000Y18600000D02*
X47983333Y18416667D01*
X47983333Y18416667D02*
X47983333Y18233333D01*
X47983333Y18233333D02*
X47800000Y18050000D01*
X47800000Y18050000D02*
X47433333Y18050000D01*
X47433333Y18050000D02*
X47250000Y18233333D01*
X48166667Y18050000D02*
X48166667Y19150000D01*
X48166667Y19150000D02*
X48716667Y19150000D01*
X48716667Y19150000D02*
X48900000Y18966667D01*
X48900000Y18966667D02*
X48900000Y18233333D01*
X48900000Y18233333D02*
X48716667Y18050000D01*
X48716667Y18050000D02*
X48166667Y18050000D01*
X50000000Y18050000D02*
X50000000Y19150000D01*
X50000000Y19150000D02*
X50550000Y19150000D01*
X50550000Y19150000D02*
X50733333Y18966667D01*
X50733333Y18966667D02*
X50733333Y18783333D01*
X50733333Y18783333D02*
X50550000Y18600000D01*
X50550000Y18600000D02*
X50000000Y18600000D01*
X50550000Y18600000D02*
X50733333Y18416667D01*
X50733333Y18416667D02*
X50733333Y18233333D01*
X50733333Y18233333D02*
X50550000Y18050000D01*
X50550000Y18050000D02*
X50000000Y18050000D01*
X50916667Y18050000D02*
X50916667Y19150000D01*
X50916667Y19150000D02*
X51466667Y19150000D01*
X51466667Y19150000D02*
X51650000Y18966667D01*
X51650000Y18966667D02*
X51650000Y18783333D01*
X51650000Y18783333D02*
X51466667Y18600000D01*
X51466667Y18600000D02*
X50916667Y18600000D01*
X51283333Y18600000D02*
X51650000Y18050000D01*
X52566667Y19150000D02*
X51833333Y19150000D01*
X51833333Y19150000D02*
X51833333Y18050000D01*
X51833333Y18050000D02*
X52566667Y18050000D01*
X51833333Y18600000D02*
X52383333Y18600000D01*
X52750000Y18050000D02*
X53116667Y19150000D01*
X53116667Y19150000D02*
X53483333Y18050000D01*
X52933333Y18416667D02*
X53300000Y18416667D01*
X53666667Y18050000D02*
X53666667Y19150000D01*
X54400000Y19150000D02*
X53703333Y18563333D01*
X53960000Y18783333D02*
X54400000Y18050000D01*
X54766667Y18050000D02*
X55133333Y18050000D01*
X55133333Y18050000D02*
X55316667Y18233333D01*
X55316667Y18233333D02*
X55316667Y18966667D01*
X55316667Y18966667D02*
X55133333Y19150000D01*
X55133333Y19150000D02*
X54766667Y19150000D01*
X54766667Y19150000D02*
X54583333Y18966667D01*
X54583333Y18966667D02*
X54583333Y18233333D01*
X54583333Y18233333D02*
X54766667Y18050000D01*
X55500000Y19150000D02*
X55500000Y18233333D01*
X55500000Y18233333D02*
X55683333Y18050000D01*
X55683333Y18050000D02*
X56050000Y18050000D01*
X56050000Y18050000D02*
X56233333Y18233333D01*
X56233333Y18233333D02*
X56233333Y19150000D01*
X56416667Y19150000D02*
X57150000Y19150000D01*
X56783333Y19150000D02*
X56783333Y18050000D01*
D11*
X41200000Y17066667D02*
X41066667Y17200000D01*
X41066667Y17200000D02*
X40800000Y17200000D01*
X40800000Y17200000D02*
X40666667Y17066667D01*
X40666667Y17066667D02*
X40666667Y16533333D01*
X40666667Y16533333D02*
X40800000Y16400000D01*
X40800000Y16400000D02*
X41066667Y16400000D01*
X41066667Y16400000D02*
X41200000Y16533333D01*
X41333333Y16400000D02*
X41600000Y17200000D01*
X41600000Y17200000D02*
X41866667Y16400000D01*
X41466667Y16666667D02*
X41733333Y16666667D01*
X42000000Y16400000D02*
X42000000Y17200000D01*
X42000000Y17200000D02*
X42400000Y17200000D01*
X42400000Y17200000D02*
X42533333Y17066667D01*
X42533333Y17066667D02*
X42533333Y16933333D01*
X42533333Y16933333D02*
X42400000Y16800000D01*
X42400000Y16800000D02*
X42000000Y16800000D01*
X42266667Y16800000D02*
X42533333Y16400000D01*
X42666667Y16400000D02*
X42666667Y17200000D01*
X42666667Y17200000D02*
X43066667Y17200000D01*
X43066667Y17200000D02*
X43200000Y17066667D01*
X43200000Y17066667D02*
X43200000Y16533333D01*
X43200000Y16533333D02*
X43066667Y16400000D01*
X43066667Y16400000D02*
X42666667Y16400000D01*
X44533333Y17066667D02*
X44400000Y17200000D01*
X44400000Y17200000D02*
X44133333Y17200000D01*
X44133333Y17200000D02*
X44000000Y17066667D01*
X44000000Y17066667D02*
X44000000Y16933333D01*
X44000000Y16933333D02*
X44133333Y16800000D01*
X44133333Y16800000D02*
X44400000Y16800000D01*
X44400000Y16800000D02*
X44533333Y16666667D01*
X44533333Y16666667D02*
X44533333Y16533333D01*
X44533333Y16533333D02*
X44400000Y16400000D01*
X44400000Y16400000D02*
X44133333Y16400000D01*
X44133333Y16400000D02*
X44000000Y16533333D01*
X44666667Y17200000D02*
X44666667Y16400000D01*
X44666667Y16400000D02*
X45200000Y16400000D01*
X45466667Y16400000D02*
X45733333Y16400000D01*
X45733333Y16400000D02*
X45866667Y16533333D01*
X45866667Y16533333D02*
X45866667Y17066667D01*
X45866667Y17066667D02*
X45733333Y17200000D01*
X45733333Y17200000D02*
X45466667Y17200000D01*
X45466667Y17200000D02*
X45333333Y17066667D01*
X45333333Y17066667D02*
X45333333Y16533333D01*
X45333333Y16533333D02*
X45466667Y16400000D01*
X46000000Y17200000D02*
X46533333Y17200000D01*
X46266667Y17200000D02*
X46266667Y16400000D01*
X47333333Y17200000D02*
X47866667Y17200000D01*
X47600000Y17200000D02*
X47600000Y16400000D01*
X48133333Y16400000D02*
X48400000Y16400000D01*
X48400000Y16400000D02*
X48533333Y16533333D01*
X48533333Y16533333D02*
X48533333Y17066667D01*
X48533333Y17066667D02*
X48400000Y17200000D01*
X48400000Y17200000D02*
X48133333Y17200000D01*
X48133333Y17200000D02*
X48000000Y17066667D01*
X48000000Y17066667D02*
X48000000Y16533333D01*
X48000000Y16533333D02*
X48133333Y16400000D01*
X48666667Y17200000D02*
X48800000Y16400000D01*
X48800000Y16400000D02*
X48933333Y16880000D01*
X48933333Y16880000D02*
X49066667Y16400000D01*
X49066667Y16400000D02*
X49200000Y17200000D01*
X49333333Y16400000D02*
X49600000Y17200000D01*
X49600000Y17200000D02*
X49866667Y16400000D01*
X49466667Y16666667D02*
X49733333Y16666667D01*
X50000000Y16400000D02*
X50000000Y17200000D01*
X50000000Y17200000D02*
X50400000Y17200000D01*
X50400000Y17200000D02*
X50533333Y17066667D01*
X50533333Y17066667D02*
X50533333Y16933333D01*
X50533333Y16933333D02*
X50400000Y16800000D01*
X50400000Y16800000D02*
X50000000Y16800000D01*
X50266667Y16800000D02*
X50533333Y16400000D01*
X50666667Y16400000D02*
X50666667Y17200000D01*
X50666667Y17200000D02*
X51066667Y17200000D01*
X51066667Y17200000D02*
X51200000Y17066667D01*
X51200000Y17066667D02*
X51200000Y16533333D01*
X51200000Y16533333D02*
X51066667Y16400000D01*
X51066667Y16400000D02*
X50666667Y16400000D01*
X51866667Y17066667D02*
X51733333Y17200000D01*
X51733333Y17200000D02*
X51466667Y17200000D01*
X51466667Y17200000D02*
X51333333Y17066667D01*
X51333333Y17066667D02*
X51333333Y16933333D01*
X51333333Y16933333D02*
X51466667Y16800000D01*
X51466667Y16800000D02*
X51733333Y16800000D01*
X51733333Y16800000D02*
X51866667Y16666667D01*
X51866667Y16666667D02*
X51866667Y16533333D01*
X51866667Y16533333D02*
X51733333Y16400000D01*
X51733333Y16400000D02*
X51466667Y16400000D01*
X51466667Y16400000D02*
X51333333Y16533333D01*
X52666667Y16400000D02*
X52666667Y17200000D01*
X52666667Y17200000D02*
X53066667Y17200000D01*
X53066667Y17200000D02*
X53200000Y17066667D01*
X53200000Y17066667D02*
X53200000Y16933333D01*
X53200000Y16933333D02*
X53066667Y16800000D01*
X53066667Y16800000D02*
X52666667Y16800000D01*
X53066667Y16800000D02*
X53200000Y16666667D01*
X53200000Y16666667D02*
X53200000Y16533333D01*
X53200000Y16533333D02*
X53066667Y16400000D01*
X53066667Y16400000D02*
X52666667Y16400000D01*
X53466667Y16400000D02*
X53733333Y16400000D01*
X53733333Y16400000D02*
X53866667Y16533333D01*
X53866667Y16533333D02*
X53866667Y17066667D01*
X53866667Y17066667D02*
X53733333Y17200000D01*
X53733333Y17200000D02*
X53466667Y17200000D01*
X53466667Y17200000D02*
X53333333Y17066667D01*
X53333333Y17066667D02*
X53333333Y16533333D01*
X53333333Y16533333D02*
X53466667Y16400000D01*
X54000000Y16400000D02*
X54266667Y17200000D01*
X54266667Y17200000D02*
X54533333Y16400000D01*
X54133333Y16666667D02*
X54400000Y16666667D01*
X54666667Y16400000D02*
X54666667Y17200000D01*
X54666667Y17200000D02*
X55066667Y17200000D01*
X55066667Y17200000D02*
X55200000Y17066667D01*
X55200000Y17066667D02*
X55200000Y16933333D01*
X55200000Y16933333D02*
X55066667Y16800000D01*
X55066667Y16800000D02*
X54666667Y16800000D01*
X54933333Y16800000D02*
X55200000Y16400000D01*
X55333333Y16400000D02*
X55333333Y17200000D01*
X55333333Y17200000D02*
X55733333Y17200000D01*
X55733333Y17200000D02*
X55866667Y17066667D01*
X55866667Y17066667D02*
X55866667Y16533333D01*
X55866667Y16533333D02*
X55733333Y16400000D01*
X55733333Y16400000D02*
X55333333Y16400000D01*
X57200000Y17200000D02*
X56666667Y17200000D01*
X56666667Y17200000D02*
X56666667Y16400000D01*
X56666667Y16400000D02*
X57200000Y16400000D01*
X56666667Y16800000D02*
X57066667Y16800000D01*
X57333333Y16400000D02*
X57333333Y17200000D01*
X57333333Y17200000D02*
X57733333Y17200000D01*
X57733333Y17200000D02*
X57866667Y17066667D01*
X57866667Y17066667D02*
X57866667Y16533333D01*
X57866667Y16533333D02*
X57733333Y16400000D01*
X57733333Y16400000D02*
X57333333Y16400000D01*
X58533333Y17066667D02*
X58400000Y17200000D01*
X58400000Y17200000D02*
X58133333Y17200000D01*
X58133333Y17200000D02*
X58000000Y17066667D01*
X58000000Y17066667D02*
X58000000Y16533333D01*
X58000000Y16533333D02*
X58133333Y16400000D01*
X58133333Y16400000D02*
X58400000Y16400000D01*
X58400000Y16400000D02*
X58533333Y16533333D01*
X58533333Y16533333D02*
X58533333Y16800000D01*
X58533333Y16800000D02*
X58266667Y16800000D01*
X59200000Y17200000D02*
X58666667Y17200000D01*
X58666667Y17200000D02*
X58666667Y16400000D01*
X58666667Y16400000D02*
X59200000Y16400000D01*
X58666667Y16800000D02*
X59066667Y16800000D01*
X39400000Y15400000D02*
X39186667Y15160000D01*
X39186667Y15160000D02*
X39186667Y14840000D01*
X39186667Y14840000D02*
X39400000Y14600000D01*
X39666667Y15266667D02*
X39800000Y15400000D01*
X39800000Y15400000D02*
X40066667Y15400000D01*
X40066667Y15400000D02*
X40200000Y15266667D01*
X40200000Y15266667D02*
X40200000Y15106667D01*
X40200000Y15106667D02*
X39666667Y14600000D01*
X39666667Y14600000D02*
X40200000Y14600000D01*
X40733333Y14600000D02*
X40733333Y15400000D01*
X40733333Y15400000D02*
X40333333Y14840000D01*
X40333333Y14840000D02*
X40866667Y14840000D01*
X41666667Y14600000D02*
X42200000Y15400000D01*
X41666667Y15400000D02*
X42200000Y14600000D01*
X43000000Y15266667D02*
X43133333Y15400000D01*
X43133333Y15400000D02*
X43400000Y15400000D01*
X43400000Y15400000D02*
X43533333Y15266667D01*
X43533333Y15266667D02*
X43533333Y15106667D01*
X43533333Y15106667D02*
X43000000Y14600000D01*
X43000000Y14600000D02*
X43533333Y14600000D01*
X43773333Y15240000D02*
X43933333Y15400000D01*
X43933333Y15400000D02*
X43933333Y14600000D01*
X43773333Y14600000D02*
X44093333Y14600000D01*
X45000000Y14600000D02*
X45000000Y15400000D01*
X45000000Y15400000D02*
X45400000Y15400000D01*
X45400000Y15400000D02*
X45533333Y15266667D01*
X45533333Y15266667D02*
X45533333Y15133333D01*
X45533333Y15133333D02*
X45400000Y15000000D01*
X45400000Y15000000D02*
X45000000Y15000000D01*
X45266667Y15000000D02*
X45533333Y14600000D01*
X46200000Y15400000D02*
X45666667Y15400000D01*
X45666667Y15400000D02*
X45666667Y14600000D01*
X45666667Y14600000D02*
X46200000Y14600000D01*
X45666667Y15000000D02*
X46066667Y15000000D01*
X46866667Y15266667D02*
X46733333Y15400000D01*
X46733333Y15400000D02*
X46466667Y15400000D01*
X46466667Y15400000D02*
X46333333Y15266667D01*
X46333333Y15266667D02*
X46333333Y15133333D01*
X46333333Y15133333D02*
X46466667Y15000000D01*
X46466667Y15000000D02*
X46733333Y15000000D01*
X46733333Y15000000D02*
X46866667Y14866667D01*
X46866667Y14866667D02*
X46866667Y14733333D01*
X46866667Y14733333D02*
X46733333Y14600000D01*
X46733333Y14600000D02*
X46466667Y14600000D01*
X46466667Y14600000D02*
X46333333Y14733333D01*
X47533333Y15400000D02*
X47000000Y15400000D01*
X47000000Y15400000D02*
X47000000Y14600000D01*
X47000000Y14600000D02*
X47533333Y14600000D01*
X47000000Y15000000D02*
X47400000Y15000000D01*
X47666667Y14600000D02*
X47666667Y15400000D01*
X47666667Y15400000D02*
X48066667Y15400000D01*
X48066667Y15400000D02*
X48200000Y15266667D01*
X48200000Y15266667D02*
X48200000Y15133333D01*
X48200000Y15133333D02*
X48066667Y15000000D01*
X48066667Y15000000D02*
X47666667Y15000000D01*
X47933333Y15000000D02*
X48200000Y14600000D01*
X48333333Y15400000D02*
X48600000Y14600000D01*
X48600000Y14600000D02*
X48866667Y15400000D01*
X49533333Y15400000D02*
X49000000Y15400000D01*
X49000000Y15400000D02*
X49000000Y14600000D01*
X49000000Y14600000D02*
X49533333Y14600000D01*
X49000000Y15000000D02*
X49400000Y15000000D01*
X49666667Y14600000D02*
X49666667Y15400000D01*
X49666667Y15400000D02*
X50066667Y15400000D01*
X50066667Y15400000D02*
X50200000Y15266667D01*
X50200000Y15266667D02*
X50200000Y14733333D01*
X50200000Y14733333D02*
X50066667Y14600000D01*
X50066667Y14600000D02*
X49666667Y14600000D01*
X51080000Y15000000D02*
X51453333Y15000000D01*
X52333333Y14600000D02*
X52333333Y15400000D01*
X52333333Y15400000D02*
X52600000Y15000000D01*
X52600000Y15000000D02*
X52866667Y15400000D01*
X52866667Y15400000D02*
X52866667Y14600000D01*
X53000000Y14600000D02*
X53266667Y15400000D01*
X53266667Y15400000D02*
X53533333Y14600000D01*
X53133333Y14866667D02*
X53400000Y14866667D01*
X53666667Y15400000D02*
X53933333Y15000000D01*
X53933333Y15000000D02*
X54200000Y15400000D01*
X53933333Y15000000D02*
X53933333Y14600000D01*
X55133333Y14600000D02*
X55400000Y14600000D01*
X55400000Y14600000D02*
X55533333Y14733333D01*
X55533333Y14733333D02*
X55533333Y15266667D01*
X55533333Y15266667D02*
X55400000Y15400000D01*
X55400000Y15400000D02*
X55133333Y15400000D01*
X55133333Y15400000D02*
X55000000Y15266667D01*
X55000000Y15266667D02*
X55000000Y14733333D01*
X55000000Y14733333D02*
X55133333Y14600000D01*
X55666667Y15400000D02*
X55933333Y14600000D01*
X55933333Y14600000D02*
X56200000Y15400000D01*
X56866667Y15400000D02*
X56333333Y15400000D01*
X56333333Y15400000D02*
X56333333Y14600000D01*
X56333333Y14600000D02*
X56866667Y14600000D01*
X56333333Y15000000D02*
X56733333Y15000000D01*
X57000000Y14600000D02*
X57000000Y15400000D01*
X57000000Y15400000D02*
X57400000Y15400000D01*
X57400000Y15400000D02*
X57533333Y15266667D01*
X57533333Y15266667D02*
X57533333Y15133333D01*
X57533333Y15133333D02*
X57400000Y15000000D01*
X57400000Y15000000D02*
X57000000Y15000000D01*
X57266667Y15000000D02*
X57533333Y14600000D01*
X57666667Y14600000D02*
X57666667Y15400000D01*
X58200000Y14600000D02*
X58200000Y15400000D01*
X57666667Y15000000D02*
X58200000Y15000000D01*
X58333333Y14600000D02*
X58600000Y15400000D01*
X58600000Y15400000D02*
X58866667Y14600000D01*
X58466667Y14866667D02*
X58733333Y14866667D01*
X59000000Y14600000D02*
X59000000Y15400000D01*
X59000000Y15400000D02*
X59533333Y14600000D01*
X59533333Y14600000D02*
X59533333Y15400000D01*
X60200000Y15266667D02*
X60066667Y15400000D01*
X60066667Y15400000D02*
X59800000Y15400000D01*
X59800000Y15400000D02*
X59666667Y15266667D01*
X59666667Y15266667D02*
X59666667Y14733333D01*
X59666667Y14733333D02*
X59800000Y14600000D01*
X59800000Y14600000D02*
X60066667Y14600000D01*
X60066667Y14600000D02*
X60200000Y14733333D01*
X60200000Y14733333D02*
X60200000Y15000000D01*
X60200000Y15000000D02*
X59933333Y15000000D01*
X60466667Y15400000D02*
X60680000Y15160000D01*
X60680000Y15160000D02*
X60680000Y14840000D01*
X60680000Y14840000D02*
X60466667Y14600000D01*
D15*
X53716667Y49904167D02*
X53575000Y49762500D01*
X53575000Y49762500D02*
X53575000Y49479167D01*
X53575000Y49479167D02*
X53716667Y49337500D01*
X53716667Y49337500D02*
X54283333Y49337500D01*
X54283333Y49337500D02*
X54425000Y49479167D01*
X54425000Y49479167D02*
X54425000Y49762500D01*
X54425000Y49762500D02*
X54283333Y49904167D01*
X54283333Y49904167D02*
X54000000Y49904167D01*
X54000000Y49904167D02*
X54000000Y49620833D01*
X54425000Y50045833D02*
X53575000Y50045833D01*
X53575000Y50045833D02*
X54425000Y50612500D01*
X54425000Y50612500D02*
X53575000Y50612500D01*
X54425000Y50754167D02*
X53575000Y50754167D01*
X53575000Y50754167D02*
X53575000Y51179167D01*
X53575000Y51179167D02*
X53716667Y51320833D01*
X53716667Y51320833D02*
X54283333Y51320833D01*
X54283333Y51320833D02*
X54425000Y51179167D01*
X54425000Y51179167D02*
X54425000Y50754167D01*
X56115000Y49337500D02*
X56115000Y49904167D01*
X56115000Y49904167D02*
X56483333Y49620833D01*
X56483333Y49620833D02*
X56483333Y49762500D01*
X56483333Y49762500D02*
X56625000Y49904167D01*
X56625000Y49904167D02*
X56823333Y49904167D01*
X56823333Y49904167D02*
X56965000Y49762500D01*
X56965000Y49762500D02*
X56965000Y49479167D01*
X56965000Y49479167D02*
X56823333Y49337500D01*
X56115000Y50045833D02*
X56965000Y50329167D01*
X56965000Y50329167D02*
X56115000Y50612500D01*
X56115000Y50754167D02*
X56115000Y51320833D01*
X56115000Y51320833D02*
X56483333Y51037500D01*
X56483333Y51037500D02*
X56483333Y51179167D01*
X56483333Y51179167D02*
X56625000Y51320833D01*
X56625000Y51320833D02*
X56823333Y51320833D01*
X56823333Y51320833D02*
X56965000Y51179167D01*
X56965000Y51179167D02*
X56965000Y50895833D01*
X56965000Y50895833D02*
X56823333Y50754167D01*
X58796667Y49904167D02*
X58655000Y49762500D01*
X58655000Y49762500D02*
X58655000Y49479167D01*
X58655000Y49479167D02*
X58796667Y49337500D01*
X58796667Y49337500D02*
X58938333Y49337500D01*
X58938333Y49337500D02*
X59080000Y49479167D01*
X59080000Y49479167D02*
X59080000Y49762500D01*
X59080000Y49762500D02*
X59221667Y49904167D01*
X59221667Y49904167D02*
X59363333Y49904167D01*
X59363333Y49904167D02*
X59505000Y49762500D01*
X59505000Y49762500D02*
X59505000Y49479167D01*
X59505000Y49479167D02*
X59363333Y49337500D01*
X58796667Y50612500D02*
X58655000Y50470833D01*
X58655000Y50470833D02*
X58655000Y50187500D01*
X58655000Y50187500D02*
X58796667Y50045833D01*
X58796667Y50045833D02*
X59363333Y50045833D01*
X59363333Y50045833D02*
X59505000Y50187500D01*
X59505000Y50187500D02*
X59505000Y50470833D01*
X59505000Y50470833D02*
X59363333Y50612500D01*
X58655000Y50754167D02*
X59505000Y50754167D01*
X59505000Y50754167D02*
X59505000Y51320833D01*
X61336667Y49904167D02*
X61195000Y49762500D01*
X61195000Y49762500D02*
X61195000Y49479167D01*
X61195000Y49479167D02*
X61336667Y49337500D01*
X61336667Y49337500D02*
X61478333Y49337500D01*
X61478333Y49337500D02*
X61620000Y49479167D01*
X61620000Y49479167D02*
X61620000Y49762500D01*
X61620000Y49762500D02*
X61761667Y49904167D01*
X61761667Y49904167D02*
X61903333Y49904167D01*
X61903333Y49904167D02*
X62045000Y49762500D01*
X62045000Y49762500D02*
X62045000Y49479167D01*
X62045000Y49479167D02*
X61903333Y49337500D01*
X62045000Y50045833D02*
X61195000Y50045833D01*
X61195000Y50045833D02*
X61195000Y50470833D01*
X61195000Y50470833D02*
X61336667Y50612500D01*
X61336667Y50612500D02*
X61903333Y50612500D01*
X61903333Y50612500D02*
X62045000Y50470833D01*
X62045000Y50470833D02*
X62045000Y50045833D01*
X62045000Y50754167D02*
X61195000Y51037500D01*
X61195000Y51037500D02*
X62045000Y51320833D01*
X61761667Y50895833D02*
X61761667Y51179167D01*
D17*
X55118333Y56075000D02*
X55118333Y55283333D01*
X55118333Y55283333D02*
X54960000Y55125000D01*
X54960000Y55125000D02*
X54801667Y55125000D01*
X54801667Y55125000D02*
X54643333Y55283333D01*
X56068333Y56075000D02*
X55435000Y56075000D01*
X55435000Y56075000D02*
X55435000Y55663333D01*
X55435000Y55663333D02*
X55910000Y55663333D01*
X55910000Y55663333D02*
X56068333Y55505000D01*
X56068333Y55505000D02*
X56068333Y55283333D01*
X56068333Y55283333D02*
X55910000Y55125000D01*
X55910000Y55125000D02*
X55593333Y55125000D01*
X55593333Y55125000D02*
X55435000Y55283333D01*
X57968333Y55125000D02*
X58285000Y55125000D01*
X58285000Y55125000D02*
X58443333Y55283333D01*
X58443333Y55283333D02*
X58443333Y55916667D01*
X58443333Y55916667D02*
X58285000Y56075000D01*
X58285000Y56075000D02*
X57968333Y56075000D01*
X57968333Y56075000D02*
X57810000Y55916667D01*
X57810000Y55916667D02*
X57810000Y55283333D01*
X57810000Y55283333D02*
X57968333Y55125000D01*
X58601667Y56075000D02*
X58601667Y55125000D01*
X58601667Y55125000D02*
X59235000Y55125000D01*
X60026667Y56075000D02*
X59393333Y56075000D01*
X59393333Y56075000D02*
X59393333Y55125000D01*
X59393333Y55125000D02*
X60026667Y55125000D01*
X59393333Y55600000D02*
X59868333Y55600000D01*
X60185000Y55125000D02*
X60185000Y56075000D01*
X60185000Y56075000D02*
X60660000Y56075000D01*
X60660000Y56075000D02*
X60818333Y55916667D01*
X60818333Y55916667D02*
X60818333Y55283333D01*
X60818333Y55283333D02*
X60660000Y55125000D01*
X60660000Y55125000D02*
X60185000Y55125000D01*
D15*
X65425000Y49337500D02*
X64575000Y49337500D01*
X64575000Y49337500D02*
X64575000Y49762500D01*
X64575000Y49762500D02*
X64716667Y49904167D01*
X64716667Y49904167D02*
X64858333Y49904167D01*
X64858333Y49904167D02*
X65000000Y49762500D01*
X65000000Y49762500D02*
X65000000Y49337500D01*
X65000000Y49762500D02*
X65141667Y49904167D01*
X65141667Y49904167D02*
X65283333Y49904167D01*
X65283333Y49904167D02*
X65425000Y49762500D01*
X65425000Y49762500D02*
X65425000Y49337500D01*
X64575000Y50045833D02*
X64575000Y50612500D01*
X64575000Y50329167D02*
X65425000Y50329167D01*
X65425000Y50754167D02*
X64575000Y50754167D01*
X64575000Y50754167D02*
X65425000Y51320833D01*
X65425000Y51320833D02*
X64575000Y51320833D01*
X67256667Y49904167D02*
X67115000Y49762500D01*
X67115000Y49762500D02*
X67115000Y49479167D01*
X67115000Y49479167D02*
X67256667Y49337500D01*
X67256667Y49337500D02*
X67823333Y49337500D01*
X67823333Y49337500D02*
X67965000Y49479167D01*
X67965000Y49479167D02*
X67965000Y49762500D01*
X67965000Y49762500D02*
X67823333Y49904167D01*
X67823333Y49904167D02*
X67540000Y49904167D01*
X67540000Y49904167D02*
X67540000Y49620833D01*
X67965000Y50045833D02*
X67115000Y50045833D01*
X67115000Y50045833D02*
X67965000Y50612500D01*
X67965000Y50612500D02*
X67115000Y50612500D01*
X67965000Y50754167D02*
X67115000Y50754167D01*
X67115000Y50754167D02*
X67115000Y51179167D01*
X67115000Y51179167D02*
X67256667Y51320833D01*
X67256667Y51320833D02*
X67823333Y51320833D01*
X67823333Y51320833D02*
X67965000Y51179167D01*
X67965000Y51179167D02*
X67965000Y50754167D01*
D17*
X63974167Y56075000D02*
X63974167Y55283333D01*
X63974167Y55283333D02*
X63815833Y55125000D01*
X63815833Y55125000D02*
X63657500Y55125000D01*
X63657500Y55125000D02*
X63499167Y55283333D01*
X64417500Y55885000D02*
X64607500Y56075000D01*
X64607500Y56075000D02*
X64607500Y55125000D01*
X64417500Y55125000D02*
X64797500Y55125000D01*
X65715833Y56075000D02*
X65082500Y56075000D01*
X65082500Y56075000D02*
X65082500Y55663333D01*
X65082500Y55663333D02*
X65557500Y55663333D01*
X65557500Y55663333D02*
X65715833Y55505000D01*
X65715833Y55505000D02*
X65715833Y55283333D01*
X65715833Y55283333D02*
X65557500Y55125000D01*
X65557500Y55125000D02*
X65240833Y55125000D01*
X65240833Y55125000D02*
X65082500Y55283333D01*
X66665833Y55125000D02*
X66665833Y56075000D01*
X66665833Y56075000D02*
X67140833Y56075000D01*
X67140833Y56075000D02*
X67299167Y55916667D01*
X67299167Y55916667D02*
X67299167Y55758333D01*
X67299167Y55758333D02*
X67140833Y55600000D01*
X67140833Y55600000D02*
X66665833Y55600000D01*
X67140833Y55600000D02*
X67299167Y55441667D01*
X67299167Y55441667D02*
X67299167Y55283333D01*
X67299167Y55283333D02*
X67140833Y55125000D01*
X67140833Y55125000D02*
X66665833Y55125000D01*
X67457500Y56075000D02*
X68090833Y56075000D01*
X67774167Y56075000D02*
X67774167Y55125000D01*
X68249167Y55125000D02*
X68249167Y56075000D01*
X68249167Y56075000D02*
X68882500Y55125000D01*
X68882500Y55125000D02*
X68882500Y56075000D01*
D11*
X70600000Y50266667D02*
X70600000Y49733333D01*
X70600000Y49733333D02*
X70946667Y49733333D01*
X70946667Y49733333D02*
X70946667Y50133333D01*
X70946667Y50133333D02*
X71080000Y50266667D01*
X71080000Y50266667D02*
X71266667Y50266667D01*
X71266667Y50266667D02*
X71400000Y50133333D01*
X71400000Y50133333D02*
X71400000Y49866667D01*
X71400000Y49866667D02*
X71266667Y49733333D01*
X70600000Y50400000D02*
X71400000Y50666667D01*
X71400000Y50666667D02*
X70600000Y50933333D01*
X73940000Y49733333D02*
X73140000Y49733333D01*
X73140000Y49733333D02*
X73140000Y50133333D01*
X73140000Y50133333D02*
X73273333Y50266667D01*
X73273333Y50266667D02*
X73806667Y50266667D01*
X73806667Y50266667D02*
X73940000Y50133333D01*
X73940000Y50133333D02*
X73940000Y49733333D01*
X73300000Y50506667D02*
X73140000Y50666667D01*
X73140000Y50666667D02*
X73940000Y50666667D01*
X73940000Y50506667D02*
X73940000Y50826667D01*
X76480000Y49733333D02*
X75680000Y49733333D01*
X75680000Y49733333D02*
X75680000Y50133333D01*
X75680000Y50133333D02*
X75813333Y50266667D01*
X75813333Y50266667D02*
X76346667Y50266667D01*
X76346667Y50266667D02*
X76480000Y50133333D01*
X76480000Y50133333D02*
X76480000Y49733333D01*
X75813333Y50400000D02*
X75680000Y50533333D01*
X75680000Y50533333D02*
X75680000Y50800000D01*
X75680000Y50800000D02*
X75813333Y50933333D01*
X75813333Y50933333D02*
X75973333Y50933333D01*
X75973333Y50933333D02*
X76480000Y50400000D01*
X76480000Y50400000D02*
X76480000Y50933333D01*
X78353333Y49933333D02*
X78220000Y49800000D01*
X78220000Y49800000D02*
X78220000Y49533333D01*
X78220000Y49533333D02*
X78353333Y49400000D01*
X78353333Y49400000D02*
X78886667Y49400000D01*
X78886667Y49400000D02*
X79020000Y49533333D01*
X79020000Y49533333D02*
X79020000Y49800000D01*
X79020000Y49800000D02*
X78886667Y49933333D01*
X78886667Y49933333D02*
X78620000Y49933333D01*
X78620000Y49933333D02*
X78620000Y49666667D01*
X79020000Y50066667D02*
X78220000Y50066667D01*
X78220000Y50066667D02*
X79020000Y50600000D01*
X79020000Y50600000D02*
X78220000Y50600000D01*
X79020000Y50733333D02*
X78220000Y50733333D01*
X78220000Y50733333D02*
X78220000Y51133333D01*
X78220000Y51133333D02*
X78353333Y51266667D01*
X78353333Y51266667D02*
X78886667Y51266667D01*
X78886667Y51266667D02*
X79020000Y51133333D01*
X79020000Y51133333D02*
X79020000Y50733333D01*
D10*
X71885000Y56050000D02*
X71885000Y55300000D01*
X71885000Y55300000D02*
X71735000Y55150000D01*
X71735000Y55150000D02*
X71585000Y55150000D01*
X71585000Y55150000D02*
X71435000Y55300000D01*
X72305000Y55870000D02*
X72485000Y56050000D01*
X72485000Y56050000D02*
X72485000Y55150000D01*
X72305000Y55150000D02*
X72665000Y55150000D01*
X73055000Y55870000D02*
X73235000Y56050000D01*
X73235000Y56050000D02*
X73235000Y55150000D01*
X73055000Y55150000D02*
X73415000Y55150000D01*
X75035000Y55900000D02*
X74885000Y56050000D01*
X74885000Y56050000D02*
X74585000Y56050000D01*
X74585000Y56050000D02*
X74435000Y55900000D01*
X74435000Y55900000D02*
X74435000Y55750000D01*
X74435000Y55750000D02*
X74585000Y55600000D01*
X74585000Y55600000D02*
X74885000Y55600000D01*
X74885000Y55600000D02*
X75035000Y55450000D01*
X75035000Y55450000D02*
X75035000Y55300000D01*
X75035000Y55300000D02*
X74885000Y55150000D01*
X74885000Y55150000D02*
X74585000Y55150000D01*
X74585000Y55150000D02*
X74435000Y55300000D01*
X75185000Y55150000D02*
X75185000Y56050000D01*
X75185000Y56050000D02*
X75635000Y56050000D01*
X75635000Y56050000D02*
X75785000Y55900000D01*
X75785000Y55900000D02*
X75785000Y55750000D01*
X75785000Y55750000D02*
X75635000Y55600000D01*
X75635000Y55600000D02*
X75185000Y55600000D01*
X75935000Y55150000D02*
X76235000Y56050000D01*
X76235000Y56050000D02*
X76535000Y55150000D01*
X76085000Y55450000D02*
X76385000Y55450000D01*
X76685000Y55150000D02*
X76685000Y56050000D01*
X76685000Y56050000D02*
X77135000Y56050000D01*
X77135000Y56050000D02*
X77285000Y55900000D01*
X77285000Y55900000D02*
X77285000Y55750000D01*
X77285000Y55750000D02*
X77135000Y55600000D01*
X77135000Y55600000D02*
X76685000Y55600000D01*
X76985000Y55600000D02*
X77285000Y55150000D01*
X78035000Y56050000D02*
X77435000Y56050000D01*
X77435000Y56050000D02*
X77435000Y55150000D01*
X77435000Y55150000D02*
X78035000Y55150000D01*
X77435000Y55600000D02*
X77885000Y55600000D01*
D13*
X73600000Y40800000D02*
X82400000Y40800000D01*
X82400000Y40800000D02*
X82400000Y41913978D01*
X82400000Y42590323D02*
X82400000Y46409677D01*
X82400000Y47086022D02*
X82400000Y48200000D01*
X82400000Y48200000D02*
X73600000Y48200000D01*
X73600000Y48200000D02*
X73600000Y47086022D01*
X73600000Y46409677D02*
X73600000Y43465591D01*
D11*
X67300000Y46866667D02*
X67166667Y47000000D01*
X67166667Y47000000D02*
X66900000Y47000000D01*
X66900000Y47000000D02*
X66766667Y46866667D01*
X66766667Y46866667D02*
X66766667Y46733333D01*
X66766667Y46733333D02*
X66900000Y46600000D01*
X66900000Y46600000D02*
X67166667Y46600000D01*
X67166667Y46600000D02*
X67300000Y46466667D01*
X67300000Y46466667D02*
X67300000Y46333333D01*
X67300000Y46333333D02*
X67166667Y46200000D01*
X67166667Y46200000D02*
X66900000Y46200000D01*
X66900000Y46200000D02*
X66766667Y46333333D01*
X67433333Y47000000D02*
X67566667Y46200000D01*
X67566667Y46200000D02*
X67700000Y46680000D01*
X67700000Y46680000D02*
X67833333Y46200000D01*
X67833333Y46200000D02*
X67966667Y47000000D01*
X68206667Y46840000D02*
X68366667Y47000000D01*
X68366667Y47000000D02*
X68366667Y46200000D01*
X68206667Y46200000D02*
X68526667Y46200000D01*
X69433333Y47000000D02*
X69433333Y46333333D01*
X69433333Y46333333D02*
X69566667Y46200000D01*
X69566667Y46200000D02*
X69833333Y46200000D01*
X69833333Y46200000D02*
X69966667Y46333333D01*
X69966667Y46333333D02*
X69966667Y47000000D01*
X70633333Y46866667D02*
X70500000Y47000000D01*
X70500000Y47000000D02*
X70233333Y47000000D01*
X70233333Y47000000D02*
X70100000Y46866667D01*
X70100000Y46866667D02*
X70100000Y46733333D01*
X70100000Y46733333D02*
X70233333Y46600000D01*
X70233333Y46600000D02*
X70500000Y46600000D01*
X70500000Y46600000D02*
X70633333Y46466667D01*
X70633333Y46466667D02*
X70633333Y46333333D01*
X70633333Y46333333D02*
X70500000Y46200000D01*
X70500000Y46200000D02*
X70233333Y46200000D01*
X70233333Y46200000D02*
X70100000Y46333333D01*
X71300000Y47000000D02*
X70766667Y47000000D01*
X70766667Y47000000D02*
X70766667Y46200000D01*
X70766667Y46200000D02*
X71300000Y46200000D01*
X70766667Y46600000D02*
X71166667Y46600000D01*
X71433333Y46200000D02*
X71433333Y47000000D01*
X71433333Y47000000D02*
X71833333Y47000000D01*
X71833333Y47000000D02*
X71966667Y46866667D01*
X71966667Y46866667D02*
X71966667Y46733333D01*
X71966667Y46733333D02*
X71833333Y46600000D01*
X71833333Y46600000D02*
X71433333Y46600000D01*
X71700000Y46600000D02*
X71966667Y46200000D01*
X68100000Y44400000D02*
X68100000Y45200000D01*
X68100000Y45200000D02*
X68500000Y45200000D01*
X68500000Y45200000D02*
X68633333Y45066667D01*
X68633333Y45066667D02*
X68633333Y44933333D01*
X68633333Y44933333D02*
X68500000Y44800000D01*
X68500000Y44800000D02*
X68100000Y44800000D01*
X68500000Y44800000D02*
X68633333Y44666667D01*
X68633333Y44666667D02*
X68633333Y44533333D01*
X68633333Y44533333D02*
X68500000Y44400000D01*
X68500000Y44400000D02*
X68100000Y44400000D01*
X68766667Y45200000D02*
X68766667Y44533333D01*
X68766667Y44533333D02*
X68900000Y44400000D01*
X68900000Y44400000D02*
X69166667Y44400000D01*
X69166667Y44400000D02*
X69300000Y44533333D01*
X69300000Y44533333D02*
X69300000Y45200000D01*
X69433333Y45200000D02*
X69966667Y45200000D01*
X69700000Y45200000D02*
X69700000Y44400000D01*
X70100000Y45200000D02*
X70633333Y45200000D01*
X70366667Y45200000D02*
X70366667Y44400000D01*
X70900000Y44400000D02*
X71166667Y44400000D01*
X71166667Y44400000D02*
X71300000Y44533333D01*
X71300000Y44533333D02*
X71300000Y45066667D01*
X71300000Y45066667D02*
X71166667Y45200000D01*
X71166667Y45200000D02*
X70900000Y45200000D01*
X70900000Y45200000D02*
X70766667Y45066667D01*
X70766667Y45066667D02*
X70766667Y44533333D01*
X70766667Y44533333D02*
X70900000Y44400000D01*
X71433333Y44400000D02*
X71433333Y45200000D01*
X71433333Y45200000D02*
X71966667Y44400000D01*
X71966667Y44400000D02*
X71966667Y45200000D01*
X70100000Y41850000D02*
X70100000Y42650000D01*
X70100000Y42650000D02*
X70500000Y42650000D01*
X70500000Y42650000D02*
X70633333Y42516667D01*
X70633333Y42516667D02*
X70633333Y42383333D01*
X70633333Y42383333D02*
X70500000Y42250000D01*
X70500000Y42250000D02*
X70100000Y42250000D01*
X70500000Y42250000D02*
X70633333Y42116667D01*
X70633333Y42116667D02*
X70633333Y41983333D01*
X70633333Y41983333D02*
X70500000Y41850000D01*
X70500000Y41850000D02*
X70100000Y41850000D01*
X70766667Y42650000D02*
X71300000Y42650000D01*
X71033333Y42650000D02*
X71033333Y41850000D01*
X71433333Y41850000D02*
X71433333Y42650000D01*
X71433333Y42650000D02*
X71966667Y41850000D01*
X71966667Y41850000D02*
X71966667Y42650000D01*
X6400000Y2933333D02*
X5600000Y2933333D01*
X5600000Y2933333D02*
X5600000Y3333333D01*
X5600000Y3333333D02*
X5733333Y3466667D01*
X5733333Y3466667D02*
X5866667Y3466667D01*
X5866667Y3466667D02*
X6000000Y3333333D01*
X6000000Y3333333D02*
X6000000Y2933333D01*
X6000000Y3333333D02*
X6133333Y3466667D01*
X6133333Y3466667D02*
X6266667Y3466667D01*
X6266667Y3466667D02*
X6400000Y3333333D01*
X6400000Y3333333D02*
X6400000Y2933333D01*
X6000000Y3680000D02*
X6000000Y4053333D01*
X6186667Y3866667D02*
X5813333Y3866667D01*
X8940000Y2933333D02*
X8140000Y2933333D01*
X8140000Y2933333D02*
X8140000Y3333333D01*
X8140000Y3333333D02*
X8273333Y3466667D01*
X8273333Y3466667D02*
X8406667Y3466667D01*
X8406667Y3466667D02*
X8540000Y3333333D01*
X8540000Y3333333D02*
X8540000Y2933333D01*
X8540000Y3333333D02*
X8673333Y3466667D01*
X8673333Y3466667D02*
X8806667Y3466667D01*
X8806667Y3466667D02*
X8940000Y3333333D01*
X8940000Y3333333D02*
X8940000Y2933333D01*
X8540000Y3680000D02*
X8540000Y4053333D01*
D15*
X4861667Y8825000D02*
X4861667Y8116667D01*
X4861667Y8116667D02*
X4720000Y7975000D01*
X4720000Y7975000D02*
X4578333Y7975000D01*
X4578333Y7975000D02*
X4436667Y8116667D01*
X5258333Y8655000D02*
X5428333Y8825000D01*
X5428333Y8825000D02*
X5428333Y7975000D01*
X5258333Y7975000D02*
X5598333Y7975000D01*
X5853333Y8683333D02*
X5995000Y8825000D01*
X5995000Y8825000D02*
X6278333Y8825000D01*
X6278333Y8825000D02*
X6420000Y8683333D01*
X6420000Y8683333D02*
X6420000Y8513333D01*
X6420000Y8513333D02*
X5853333Y7975000D01*
X5853333Y7975000D02*
X6420000Y7975000D01*
X7270000Y7975000D02*
X7270000Y8825000D01*
X7270000Y8825000D02*
X7695000Y8825000D01*
X7695000Y8825000D02*
X7836667Y8683333D01*
X7836667Y8683333D02*
X7836667Y8541667D01*
X7836667Y8541667D02*
X7695000Y8400000D01*
X7695000Y8400000D02*
X7270000Y8400000D01*
X7695000Y8400000D02*
X7836667Y8258333D01*
X7836667Y8258333D02*
X7836667Y8116667D01*
X7836667Y8116667D02*
X7695000Y7975000D01*
X7695000Y7975000D02*
X7270000Y7975000D01*
X7978333Y7975000D02*
X8261667Y8825000D01*
X8261667Y8825000D02*
X8545000Y7975000D01*
X8120000Y8258333D02*
X8403333Y8258333D01*
X8686667Y8825000D02*
X9253333Y8825000D01*
X8970000Y8825000D02*
X8970000Y7975000D01*
X9395000Y8825000D02*
X9961667Y8825000D01*
X9678333Y8825000D02*
X9678333Y7975000D01*
D13*
X11050000Y3600000D02*
X16950000Y3600000D01*
X16950000Y3600000D02*
X16950000Y8400000D01*
X16950000Y8400000D02*
X11050000Y8400000D01*
X11050000Y8400000D02*
X11050000Y3600000D01*
D11*
X11066667Y2700000D02*
X11066667Y2033333D01*
X11066667Y2033333D02*
X10933333Y1900000D01*
X10933333Y1900000D02*
X10800000Y1900000D01*
X10800000Y1900000D02*
X10666667Y2033333D01*
X11440000Y2540000D02*
X11600000Y2700000D01*
X11600000Y2700000D02*
X11600000Y1900000D01*
X11440000Y1900000D02*
X11760000Y1900000D01*
X12000000Y2700000D02*
X12533333Y2700000D01*
X12533333Y2700000D02*
X12266667Y2353333D01*
X12266667Y2353333D02*
X12400000Y2353333D01*
X12400000Y2353333D02*
X12533333Y2220000D01*
X12533333Y2220000D02*
X12533333Y2033333D01*
X12533333Y2033333D02*
X12400000Y1900000D01*
X12400000Y1900000D02*
X12133333Y1900000D01*
X12133333Y1900000D02*
X12000000Y2033333D01*
X13733333Y2700000D02*
X13733333Y2033333D01*
X13733333Y2033333D02*
X13600000Y1900000D01*
X13600000Y1900000D02*
X13466667Y1900000D01*
X13466667Y1900000D02*
X13333333Y2033333D01*
X14533333Y2566667D02*
X14400000Y2700000D01*
X14400000Y2700000D02*
X14133333Y2700000D01*
X14133333Y2700000D02*
X14000000Y2566667D01*
X14000000Y2566667D02*
X14000000Y2433333D01*
X14000000Y2433333D02*
X14133333Y2300000D01*
X14133333Y2300000D02*
X14400000Y2300000D01*
X14400000Y2300000D02*
X14533333Y2166667D01*
X14533333Y2166667D02*
X14533333Y2033333D01*
X14533333Y2033333D02*
X14400000Y1900000D01*
X14400000Y1900000D02*
X14133333Y1900000D01*
X14133333Y1900000D02*
X14000000Y2033333D01*
X14666667Y2700000D02*
X15200000Y2700000D01*
X14933333Y2700000D02*
X14933333Y1900000D01*
X15413333Y2300000D02*
X15786667Y2300000D01*
X16000000Y1900000D02*
X16000000Y2700000D01*
X16000000Y2700000D02*
X16400000Y2700000D01*
X16400000Y2700000D02*
X16533333Y2566667D01*
X16533333Y2566667D02*
X16533333Y2433333D01*
X16533333Y2433333D02*
X16400000Y2300000D01*
X16400000Y2300000D02*
X16000000Y2300000D01*
X16666667Y1900000D02*
X16666667Y2700000D01*
X17200000Y1900000D02*
X17200000Y2700000D01*
X16666667Y2300000D02*
X17200000Y2300000D01*
X20400000Y1733333D02*
X20400000Y2000000D01*
X20400000Y2000000D02*
X20266667Y2133333D01*
X20266667Y2133333D02*
X19733333Y2133333D01*
X19733333Y2133333D02*
X19600000Y2000000D01*
X19600000Y2000000D02*
X19600000Y1733333D01*
X19600000Y1733333D02*
X19733333Y1600000D01*
X19733333Y1600000D02*
X20266667Y1600000D01*
X20266667Y1600000D02*
X20400000Y1733333D01*
X19600000Y2266667D02*
X20266667Y2266667D01*
X20266667Y2266667D02*
X20400000Y2400000D01*
X20400000Y2400000D02*
X20400000Y2666667D01*
X20400000Y2666667D02*
X20266667Y2800000D01*
X20266667Y2800000D02*
X19600000Y2800000D01*
X19600000Y2933333D02*
X19600000Y3466667D01*
X19600000Y3200000D02*
X20400000Y3200000D01*
X22940000Y2066667D02*
X22940000Y2333333D01*
X22940000Y2200000D02*
X22140000Y2200000D01*
X22140000Y2066667D02*
X22140000Y2333333D01*
X22940000Y2600000D02*
X22140000Y2600000D01*
X22140000Y2600000D02*
X22940000Y3133333D01*
X22940000Y3133333D02*
X22140000Y3133333D01*
X25480000Y1933333D02*
X24680000Y1933333D01*
X24680000Y1933333D02*
X25480000Y2466667D01*
X25480000Y2466667D02*
X24680000Y2466667D01*
X24813333Y3133333D02*
X24680000Y3000000D01*
X24680000Y3000000D02*
X24680000Y2733333D01*
X24680000Y2733333D02*
X24813333Y2600000D01*
X24813333Y2600000D02*
X25346667Y2600000D01*
X25346667Y2600000D02*
X25480000Y2733333D01*
X25480000Y2733333D02*
X25480000Y3000000D01*
X25480000Y3000000D02*
X25346667Y3133333D01*
D13*
X18540000Y4000000D02*
X26540000Y4000000D01*
X26540000Y4000000D02*
X26540000Y8000000D01*
X26540000Y8000000D02*
X18540000Y8000000D01*
X18540000Y8000000D02*
X18540000Y4000000D01*
D15*
X19919167Y9283333D02*
X19777500Y9425000D01*
X19777500Y9425000D02*
X19494167Y9425000D01*
X19494167Y9425000D02*
X19352500Y9283333D01*
X19352500Y9283333D02*
X19352500Y9141667D01*
X19352500Y9141667D02*
X19494167Y9000000D01*
X19494167Y9000000D02*
X19777500Y9000000D01*
X19777500Y9000000D02*
X19919167Y8858333D01*
X19919167Y8858333D02*
X19919167Y8716667D01*
X19919167Y8716667D02*
X19777500Y8575000D01*
X19777500Y8575000D02*
X19494167Y8575000D01*
X19494167Y8575000D02*
X19352500Y8716667D01*
X20060833Y9425000D02*
X20202500Y8575000D01*
X20202500Y8575000D02*
X20344167Y9085000D01*
X20344167Y9085000D02*
X20485833Y8575000D01*
X20485833Y8575000D02*
X20627500Y9425000D01*
X20769167Y9283333D02*
X20910833Y9425000D01*
X20910833Y9425000D02*
X21194167Y9425000D01*
X21194167Y9425000D02*
X21335833Y9283333D01*
X21335833Y9283333D02*
X21335833Y9113333D01*
X21335833Y9113333D02*
X20769167Y8575000D01*
X20769167Y8575000D02*
X21335833Y8575000D01*
X22185833Y8575000D02*
X22185833Y9425000D01*
X22185833Y9425000D02*
X22610833Y9425000D01*
X22610833Y9425000D02*
X22752500Y9283333D01*
X22752500Y9283333D02*
X22752500Y9141667D01*
X22752500Y9141667D02*
X22610833Y9000000D01*
X22610833Y9000000D02*
X22185833Y9000000D01*
X23035833Y8575000D02*
X23319167Y8575000D01*
X23319167Y8575000D02*
X23460833Y8716667D01*
X23460833Y8716667D02*
X23460833Y9283333D01*
X23460833Y9283333D02*
X23319167Y9425000D01*
X23319167Y9425000D02*
X23035833Y9425000D01*
X23035833Y9425000D02*
X22894167Y9283333D01*
X22894167Y9283333D02*
X22894167Y8716667D01*
X22894167Y8716667D02*
X23035833Y8575000D01*
X23602500Y9425000D02*
X23744167Y8575000D01*
X23744167Y8575000D02*
X23885833Y9085000D01*
X23885833Y9085000D02*
X24027500Y8575000D01*
X24027500Y8575000D02*
X24169167Y9425000D01*
X24877500Y9425000D02*
X24310833Y9425000D01*
X24310833Y9425000D02*
X24310833Y8575000D01*
X24310833Y8575000D02*
X24877500Y8575000D01*
X24310833Y9000000D02*
X24735833Y9000000D01*
X25019167Y8575000D02*
X25019167Y9425000D01*
X25019167Y9425000D02*
X25444167Y9425000D01*
X25444167Y9425000D02*
X25585833Y9283333D01*
X25585833Y9283333D02*
X25585833Y9141667D01*
X25585833Y9141667D02*
X25444167Y9000000D01*
X25444167Y9000000D02*
X25019167Y9000000D01*
X25302500Y9000000D02*
X25585833Y8575000D01*
D11*
X30000000Y3346667D02*
X30000000Y3720000D01*
X30186667Y3533333D02*
X29813333Y3533333D01*
X32540000Y3346667D02*
X32540000Y3720000D01*
D15*
X28153333Y8825000D02*
X28153333Y8116667D01*
X28153333Y8116667D02*
X28011667Y7975000D01*
X28011667Y7975000D02*
X27870000Y7975000D01*
X27870000Y7975000D02*
X27728333Y8116667D01*
X28550000Y8655000D02*
X28720000Y8825000D01*
X28720000Y8825000D02*
X28720000Y7975000D01*
X28550000Y7975000D02*
X28890000Y7975000D01*
X29570000Y7975000D02*
X29570000Y8825000D01*
X29570000Y8825000D02*
X29145000Y8230000D01*
X29145000Y8230000D02*
X29711667Y8230000D01*
X30561667Y8825000D02*
X31128333Y8825000D01*
X30845000Y8825000D02*
X30845000Y7975000D01*
X31411667Y7975000D02*
X31695000Y7975000D01*
X31695000Y7975000D02*
X31836667Y8116667D01*
X31836667Y8116667D02*
X31836667Y8683333D01*
X31836667Y8683333D02*
X31695000Y8825000D01*
X31695000Y8825000D02*
X31411667Y8825000D01*
X31411667Y8825000D02*
X31270000Y8683333D01*
X31270000Y8683333D02*
X31270000Y8116667D01*
X31270000Y8116667D02*
X31411667Y7975000D01*
X32686667Y7975000D02*
X32686667Y8825000D01*
X32686667Y8825000D02*
X33111667Y8825000D01*
X33111667Y8825000D02*
X33253333Y8683333D01*
X33253333Y8683333D02*
X33253333Y8541667D01*
X33253333Y8541667D02*
X33111667Y8400000D01*
X33111667Y8400000D02*
X32686667Y8400000D01*
X32970000Y8400000D02*
X33253333Y7975000D01*
X33395000Y7975000D02*
X33678333Y8825000D01*
X33678333Y8825000D02*
X33961667Y7975000D01*
X33536667Y8258333D02*
X33820000Y8258333D01*
X34103333Y7975000D02*
X34103333Y8825000D01*
X34670000Y8825000D02*
X34131667Y8371667D01*
X34330000Y8541667D02*
X34670000Y7975000D01*
X35215833Y49025000D02*
X35215833Y48316667D01*
X35215833Y48316667D02*
X35074167Y48175000D01*
X35074167Y48175000D02*
X34932500Y48175000D01*
X34932500Y48175000D02*
X34790833Y48316667D01*
X35499167Y48175000D02*
X35499167Y49025000D01*
X35499167Y49025000D02*
X35924167Y49025000D01*
X35924167Y49025000D02*
X36065833Y48883333D01*
X36065833Y48883333D02*
X36065833Y48741667D01*
X36065833Y48741667D02*
X35924167Y48600000D01*
X35924167Y48600000D02*
X35499167Y48600000D01*
X36320833Y48855000D02*
X36490833Y49025000D01*
X36490833Y49025000D02*
X36490833Y48175000D01*
X36320833Y48175000D02*
X36660833Y48175000D01*
X37624167Y49025000D02*
X38190833Y49025000D01*
X38190833Y49025000D02*
X37907500Y48656667D01*
X37907500Y48656667D02*
X38049167Y48656667D01*
X38049167Y48656667D02*
X38190833Y48515000D01*
X38190833Y48515000D02*
X38190833Y48316667D01*
X38190833Y48316667D02*
X38049167Y48175000D01*
X38049167Y48175000D02*
X37765833Y48175000D01*
X37765833Y48175000D02*
X37624167Y48316667D01*
X38332500Y49025000D02*
X38615833Y48175000D01*
X38615833Y48175000D02*
X38899167Y49025000D01*
X39040833Y49025000D02*
X39607500Y49025000D01*
X39607500Y49025000D02*
X39324167Y48656667D01*
X39324167Y48656667D02*
X39465833Y48656667D01*
X39465833Y48656667D02*
X39607500Y48515000D01*
X39607500Y48515000D02*
X39607500Y48316667D01*
X39607500Y48316667D02*
X39465833Y48175000D01*
X39465833Y48175000D02*
X39182500Y48175000D01*
X39182500Y48175000D02*
X39040833Y48316667D01*
D11*
X34803333Y50900000D02*
X34270000Y50900000D01*
X34270000Y50900000D02*
X34270000Y50100000D01*
X34270000Y50500000D02*
X34670000Y50500000D01*
X35070000Y50100000D02*
X35336667Y50100000D01*
X35203333Y50100000D02*
X35203333Y50900000D01*
X35070000Y50900000D02*
X35336667Y50900000D01*
X35603333Y50900000D02*
X36136667Y50900000D01*
X35870000Y50900000D02*
X35870000Y50100000D01*
X37470000Y50766667D02*
X37336667Y50900000D01*
X37336667Y50900000D02*
X37070000Y50900000D01*
X37070000Y50900000D02*
X36936667Y50766667D01*
X36936667Y50766667D02*
X36936667Y50633333D01*
X36936667Y50633333D02*
X37070000Y50500000D01*
X37070000Y50500000D02*
X37336667Y50500000D01*
X37336667Y50500000D02*
X37470000Y50366667D01*
X37470000Y50366667D02*
X37470000Y50233333D01*
X37470000Y50233333D02*
X37336667Y50100000D01*
X37336667Y50100000D02*
X37070000Y50100000D01*
X37070000Y50100000D02*
X36936667Y50233333D01*
X37603333Y50100000D02*
X37603333Y50900000D01*
X38136667Y50100000D02*
X38136667Y50900000D01*
X37603333Y50500000D02*
X38136667Y50500000D01*
X38270000Y50900000D02*
X38270000Y50233333D01*
X38270000Y50233333D02*
X38403333Y50100000D01*
X38403333Y50100000D02*
X38670000Y50100000D01*
X38670000Y50100000D02*
X38803333Y50233333D01*
X38803333Y50233333D02*
X38803333Y50900000D01*
X38936667Y50100000D02*
X38936667Y50900000D01*
X38936667Y50900000D02*
X39470000Y50100000D01*
X39470000Y50100000D02*
X39470000Y50900000D01*
X39603333Y50900000D02*
X40136667Y50900000D01*
X39870000Y50900000D02*
X39870000Y50100000D01*
X36400000Y42300000D02*
X35600000Y42300000D01*
X35600000Y42300000D02*
X35600000Y42700000D01*
X35600000Y42700000D02*
X35733333Y42833333D01*
X35733333Y42833333D02*
X35866667Y42833333D01*
X35866667Y42833333D02*
X36000000Y42700000D01*
X36000000Y42700000D02*
X36000000Y42300000D01*
X36000000Y42566667D02*
X36400000Y42833333D01*
X36400000Y42966667D02*
X35600000Y43233333D01*
X35600000Y43233333D02*
X36400000Y43500000D01*
X36133333Y43100000D02*
X36133333Y43366667D01*
X36400000Y43633333D02*
X35600000Y43633333D01*
X35600000Y44166667D02*
X36026667Y43660000D01*
X35866667Y43846667D02*
X36400000Y44166667D01*
X38273333Y42833333D02*
X38140000Y42700000D01*
X38140000Y42700000D02*
X38140000Y42433333D01*
X38140000Y42433333D02*
X38273333Y42300000D01*
X38273333Y42300000D02*
X38406667Y42300000D01*
X38406667Y42300000D02*
X38540000Y42433333D01*
X38540000Y42433333D02*
X38540000Y42700000D01*
X38540000Y42700000D02*
X38673333Y42833333D01*
X38673333Y42833333D02*
X38806667Y42833333D01*
X38806667Y42833333D02*
X38940000Y42700000D01*
X38940000Y42700000D02*
X38940000Y42433333D01*
X38940000Y42433333D02*
X38806667Y42300000D01*
X38140000Y42966667D02*
X38540000Y43233333D01*
X38540000Y43233333D02*
X38140000Y43500000D01*
X38540000Y43233333D02*
X38940000Y43233333D01*
X38273333Y44166667D02*
X38140000Y44033333D01*
X38140000Y44033333D02*
X38140000Y43766667D01*
X38140000Y43766667D02*
X38273333Y43633333D01*
X38273333Y43633333D02*
X38406667Y43633333D01*
X38406667Y43633333D02*
X38540000Y43766667D01*
X38540000Y43766667D02*
X38540000Y44033333D01*
X38540000Y44033333D02*
X38673333Y44166667D01*
X38673333Y44166667D02*
X38806667Y44166667D01*
X38806667Y44166667D02*
X38940000Y44033333D01*
X38940000Y44033333D02*
X38940000Y43766667D01*
X38940000Y43766667D02*
X38806667Y43633333D01*
X43400000Y41966667D02*
X42600000Y41966667D01*
X42600000Y41966667D02*
X42600000Y42366667D01*
X42600000Y42366667D02*
X42733333Y42500000D01*
X42733333Y42500000D02*
X42866667Y42500000D01*
X42866667Y42500000D02*
X43000000Y42366667D01*
X43000000Y42366667D02*
X43000000Y41966667D01*
X43000000Y42366667D02*
X43133333Y42500000D01*
X43133333Y42500000D02*
X43266667Y42500000D01*
X43266667Y42500000D02*
X43400000Y42366667D01*
X43400000Y42366667D02*
X43400000Y41966667D01*
X43400000Y42766667D02*
X43400000Y43033333D01*
X43400000Y43033333D02*
X43266667Y43166667D01*
X43266667Y43166667D02*
X42733333Y43166667D01*
X42733333Y43166667D02*
X42600000Y43033333D01*
X42600000Y43033333D02*
X42600000Y42766667D01*
X42600000Y42766667D02*
X42733333Y42633333D01*
X42733333Y42633333D02*
X43266667Y42633333D01*
X43266667Y42633333D02*
X43400000Y42766667D01*
X43400000Y43433333D02*
X43400000Y43700000D01*
X43400000Y43700000D02*
X43266667Y43833333D01*
X43266667Y43833333D02*
X42733333Y43833333D01*
X42733333Y43833333D02*
X42600000Y43700000D01*
X42600000Y43700000D02*
X42600000Y43433333D01*
X42600000Y43433333D02*
X42733333Y43300000D01*
X42733333Y43300000D02*
X43266667Y43300000D01*
X43266667Y43300000D02*
X43400000Y43433333D01*
X42600000Y43966667D02*
X42600000Y44500000D01*
X42600000Y44233333D02*
X43400000Y44233333D01*
X45273333Y42833333D02*
X45140000Y42700000D01*
X45140000Y42700000D02*
X45140000Y42433333D01*
X45140000Y42433333D02*
X45273333Y42300000D01*
X45273333Y42300000D02*
X45406667Y42300000D01*
X45406667Y42300000D02*
X45540000Y42433333D01*
X45540000Y42433333D02*
X45540000Y42700000D01*
X45540000Y42700000D02*
X45673333Y42833333D01*
X45673333Y42833333D02*
X45806667Y42833333D01*
X45806667Y42833333D02*
X45940000Y42700000D01*
X45940000Y42700000D02*
X45940000Y42433333D01*
X45940000Y42433333D02*
X45806667Y42300000D01*
X45273333Y43500000D02*
X45140000Y43366667D01*
X45140000Y43366667D02*
X45140000Y43100000D01*
X45140000Y43100000D02*
X45273333Y42966667D01*
X45273333Y42966667D02*
X45806667Y42966667D01*
X45806667Y42966667D02*
X45940000Y43100000D01*
X45940000Y43100000D02*
X45940000Y43366667D01*
X45940000Y43366667D02*
X45806667Y43500000D01*
X45140000Y43633333D02*
X45940000Y43633333D01*
X45940000Y43633333D02*
X45940000Y44166667D01*
X47813333Y42833333D02*
X47680000Y42700000D01*
X47680000Y42700000D02*
X47680000Y42433333D01*
X47680000Y42433333D02*
X47813333Y42300000D01*
X47813333Y42300000D02*
X47946667Y42300000D01*
X47946667Y42300000D02*
X48080000Y42433333D01*
X48080000Y42433333D02*
X48080000Y42700000D01*
X48080000Y42700000D02*
X48213333Y42833333D01*
X48213333Y42833333D02*
X48346667Y42833333D01*
X48346667Y42833333D02*
X48480000Y42700000D01*
X48480000Y42700000D02*
X48480000Y42433333D01*
X48480000Y42433333D02*
X48346667Y42300000D01*
X48480000Y42966667D02*
X47680000Y42966667D01*
X47680000Y42966667D02*
X47680000Y43366667D01*
X47680000Y43366667D02*
X47813333Y43500000D01*
X47813333Y43500000D02*
X48346667Y43500000D01*
X48346667Y43500000D02*
X48480000Y43366667D01*
X48480000Y43366667D02*
X48480000Y42966667D01*
X48480000Y43633333D02*
X47680000Y43900000D01*
X47680000Y43900000D02*
X48480000Y44166667D01*
X48213333Y43766667D02*
X48213333Y44033333D01*
X50353333Y42833333D02*
X50220000Y42700000D01*
X50220000Y42700000D02*
X50220000Y42433333D01*
X50220000Y42433333D02*
X50353333Y42300000D01*
X50353333Y42300000D02*
X50886667Y42300000D01*
X50886667Y42300000D02*
X51020000Y42433333D01*
X51020000Y42433333D02*
X51020000Y42700000D01*
X51020000Y42700000D02*
X50886667Y42833333D01*
X50886667Y42833333D02*
X50620000Y42833333D01*
X50620000Y42833333D02*
X50620000Y42566667D01*
X51020000Y42966667D02*
X50220000Y42966667D01*
X50220000Y42966667D02*
X51020000Y43500000D01*
X51020000Y43500000D02*
X50220000Y43500000D01*
X51020000Y43633333D02*
X50220000Y43633333D01*
X50220000Y43633333D02*
X50220000Y44033333D01*
X50220000Y44033333D02*
X50353333Y44166667D01*
X50353333Y44166667D02*
X50886667Y44166667D01*
X50886667Y44166667D02*
X51020000Y44033333D01*
X51020000Y44033333D02*
X51020000Y43633333D01*
D15*
X42630833Y49025000D02*
X42630833Y48316667D01*
X42630833Y48316667D02*
X42489167Y48175000D01*
X42489167Y48175000D02*
X42347500Y48175000D01*
X42347500Y48175000D02*
X42205833Y48316667D01*
X43027500Y48855000D02*
X43197500Y49025000D01*
X43197500Y49025000D02*
X43197500Y48175000D01*
X43027500Y48175000D02*
X43367500Y48175000D01*
X43764167Y48175000D02*
X44047500Y48175000D01*
X44047500Y48175000D02*
X44189167Y48316667D01*
X44189167Y48316667D02*
X44189167Y48883333D01*
X44189167Y48883333D02*
X44047500Y49025000D01*
X44047500Y49025000D02*
X43764167Y49025000D01*
X43764167Y49025000D02*
X43622500Y48883333D01*
X43622500Y48883333D02*
X43622500Y48316667D01*
X43622500Y48316667D02*
X43764167Y48175000D01*
X43707500Y48345000D02*
X44104167Y48855000D01*
X45039167Y48175000D02*
X45039167Y49025000D01*
X45039167Y49025000D02*
X45464167Y49025000D01*
X45464167Y49025000D02*
X45605833Y48883333D01*
X45605833Y48883333D02*
X45605833Y48741667D01*
X45605833Y48741667D02*
X45464167Y48600000D01*
X45464167Y48600000D02*
X45039167Y48600000D01*
X45322500Y48600000D02*
X45605833Y48175000D01*
X45747500Y48175000D02*
X46030833Y49025000D01*
X46030833Y49025000D02*
X46314167Y48175000D01*
X45889167Y48458333D02*
X46172500Y48458333D01*
X46455833Y48175000D02*
X46455833Y49025000D01*
X47022500Y49025000D02*
X46484167Y48571667D01*
X46682500Y48741667D02*
X47022500Y48175000D01*
X48439167Y48883333D02*
X48297500Y49025000D01*
X48297500Y49025000D02*
X48014167Y49025000D01*
X48014167Y49025000D02*
X47872500Y48883333D01*
X47872500Y48883333D02*
X47872500Y48741667D01*
X47872500Y48741667D02*
X48014167Y48600000D01*
X48014167Y48600000D02*
X48297500Y48600000D01*
X48297500Y48600000D02*
X48439167Y48458333D01*
X48439167Y48458333D02*
X48439167Y48316667D01*
X48439167Y48316667D02*
X48297500Y48175000D01*
X48297500Y48175000D02*
X48014167Y48175000D01*
X48014167Y48175000D02*
X47872500Y48316667D01*
X48580833Y48175000D02*
X48580833Y49025000D01*
X48580833Y49025000D02*
X49005833Y49025000D01*
X49005833Y49025000D02*
X49147500Y48883333D01*
X49147500Y48883333D02*
X49147500Y48741667D01*
X49147500Y48741667D02*
X49005833Y48600000D01*
X49005833Y48600000D02*
X48580833Y48600000D01*
X49289167Y48175000D02*
X49572500Y49025000D01*
X49572500Y49025000D02*
X49855833Y48175000D01*
X49430833Y48458333D02*
X49714167Y48458333D01*
X49997500Y48175000D02*
X49997500Y49025000D01*
X49997500Y49025000D02*
X50422500Y49025000D01*
X50422500Y49025000D02*
X50564167Y48883333D01*
X50564167Y48883333D02*
X50564167Y48741667D01*
X50564167Y48741667D02*
X50422500Y48600000D01*
X50422500Y48600000D02*
X49997500Y48600000D01*
X50280833Y48600000D02*
X50564167Y48175000D01*
X51272500Y49025000D02*
X50705833Y49025000D01*
X50705833Y49025000D02*
X50705833Y48175000D01*
X50705833Y48175000D02*
X51272500Y48175000D01*
X50705833Y48600000D02*
X51130833Y48600000D01*
D11*
X71470000Y15066667D02*
X71336667Y15200000D01*
X71336667Y15200000D02*
X71070000Y15200000D01*
X71070000Y15200000D02*
X70936667Y15066667D01*
X70936667Y15066667D02*
X70936667Y14533333D01*
X70936667Y14533333D02*
X71070000Y14400000D01*
X71070000Y14400000D02*
X71336667Y14400000D01*
X71336667Y14400000D02*
X71470000Y14533333D01*
X71710000Y15040000D02*
X71870000Y15200000D01*
X71870000Y15200000D02*
X71870000Y14400000D01*
X71710000Y14400000D02*
X72030000Y14400000D01*
X73043333Y15040000D02*
X73203333Y15200000D01*
X73203333Y15200000D02*
X73203333Y14400000D01*
X73043333Y14400000D02*
X73363333Y14400000D01*
X73736667Y14400000D02*
X74003333Y14400000D01*
X74003333Y14400000D02*
X74136667Y14533333D01*
X74136667Y14533333D02*
X74136667Y15066667D01*
X74136667Y15066667D02*
X74003333Y15200000D01*
X74003333Y15200000D02*
X73736667Y15200000D01*
X73736667Y15200000D02*
X73603333Y15066667D01*
X73603333Y15066667D02*
X73603333Y14533333D01*
X73603333Y14533333D02*
X73736667Y14400000D01*
X73683333Y14560000D02*
X74056667Y15040000D01*
X74403333Y14400000D02*
X74670000Y14400000D01*
X74670000Y14400000D02*
X74803333Y14533333D01*
X74803333Y14533333D02*
X74803333Y15066667D01*
X74803333Y15066667D02*
X74670000Y15200000D01*
X74670000Y15200000D02*
X74403333Y15200000D01*
X74403333Y15200000D02*
X74270000Y15066667D01*
X74270000Y15066667D02*
X74270000Y14533333D01*
X74270000Y14533333D02*
X74403333Y14400000D01*
X74350000Y14560000D02*
X74723333Y15040000D01*
X74936667Y15200000D02*
X74936667Y14533333D01*
X74936667Y14533333D02*
X75070000Y14400000D01*
X75070000Y14400000D02*
X75336667Y14400000D01*
X75336667Y14400000D02*
X75470000Y14533333D01*
X75470000Y14533333D02*
X75470000Y15200000D01*
X39303333Y29066667D02*
X39170000Y29200000D01*
X39170000Y29200000D02*
X38903333Y29200000D01*
X38903333Y29200000D02*
X38770000Y29066667D01*
X38770000Y29066667D02*
X38770000Y28533333D01*
X38770000Y28533333D02*
X38903333Y28400000D01*
X38903333Y28400000D02*
X39170000Y28400000D01*
X39170000Y28400000D02*
X39303333Y28533333D01*
X39436667Y29066667D02*
X39570000Y29200000D01*
X39570000Y29200000D02*
X39836667Y29200000D01*
X39836667Y29200000D02*
X39970000Y29066667D01*
X39970000Y29066667D02*
X39970000Y28906667D01*
X39970000Y28906667D02*
X39436667Y28400000D01*
X39436667Y28400000D02*
X39970000Y28400000D01*
X40876667Y29040000D02*
X41036667Y29200000D01*
X41036667Y29200000D02*
X41036667Y28400000D01*
X40876667Y28400000D02*
X41196667Y28400000D01*
X41570000Y28400000D02*
X41836667Y28400000D01*
X41836667Y28400000D02*
X41970000Y28533333D01*
X41970000Y28533333D02*
X41970000Y29066667D01*
X41970000Y29066667D02*
X41836667Y29200000D01*
X41836667Y29200000D02*
X41570000Y29200000D01*
X41570000Y29200000D02*
X41436667Y29066667D01*
X41436667Y29066667D02*
X41436667Y28533333D01*
X41436667Y28533333D02*
X41570000Y28400000D01*
X41516667Y28560000D02*
X41890000Y29040000D01*
X42103333Y29200000D02*
X42103333Y28533333D01*
X42103333Y28533333D02*
X42236667Y28400000D01*
X42236667Y28400000D02*
X42503333Y28400000D01*
X42503333Y28400000D02*
X42636667Y28533333D01*
X42636667Y28533333D02*
X42636667Y29200000D01*
X38970000Y33066667D02*
X38836667Y33200000D01*
X38836667Y33200000D02*
X38570000Y33200000D01*
X38570000Y33200000D02*
X38436667Y33066667D01*
X38436667Y33066667D02*
X38436667Y32533333D01*
X38436667Y32533333D02*
X38570000Y32400000D01*
X38570000Y32400000D02*
X38836667Y32400000D01*
X38836667Y32400000D02*
X38970000Y32533333D01*
X39103333Y33200000D02*
X39636667Y33200000D01*
X39636667Y33200000D02*
X39370000Y32853333D01*
X39370000Y32853333D02*
X39503333Y32853333D01*
X39503333Y32853333D02*
X39636667Y32720000D01*
X39636667Y32720000D02*
X39636667Y32533333D01*
X39636667Y32533333D02*
X39503333Y32400000D01*
X39503333Y32400000D02*
X39236667Y32400000D01*
X39236667Y32400000D02*
X39103333Y32533333D01*
X40543333Y33040000D02*
X40703333Y33200000D01*
X40703333Y33200000D02*
X40703333Y32400000D01*
X40543333Y32400000D02*
X40863333Y32400000D01*
X41236667Y32400000D02*
X41503333Y32400000D01*
X41503333Y32400000D02*
X41636667Y32533333D01*
X41636667Y32533333D02*
X41636667Y33066667D01*
X41636667Y33066667D02*
X41503333Y33200000D01*
X41503333Y33200000D02*
X41236667Y33200000D01*
X41236667Y33200000D02*
X41103333Y33066667D01*
X41103333Y33066667D02*
X41103333Y32533333D01*
X41103333Y32533333D02*
X41236667Y32400000D01*
X41183333Y32560000D02*
X41556667Y33040000D01*
X41903333Y32400000D02*
X42170000Y32400000D01*
X42170000Y32400000D02*
X42303333Y32533333D01*
X42303333Y32533333D02*
X42303333Y33066667D01*
X42303333Y33066667D02*
X42170000Y33200000D01*
X42170000Y33200000D02*
X41903333Y33200000D01*
X41903333Y33200000D02*
X41770000Y33066667D01*
X41770000Y33066667D02*
X41770000Y32533333D01*
X41770000Y32533333D02*
X41903333Y32400000D01*
X41850000Y32560000D02*
X42223333Y33040000D01*
X42436667Y32400000D02*
X42436667Y33200000D01*
X42436667Y33200000D02*
X42970000Y32400000D01*
X42970000Y32400000D02*
X42970000Y33200000D01*
X47470000Y55566667D02*
X47336667Y55700000D01*
X47336667Y55700000D02*
X47070000Y55700000D01*
X47070000Y55700000D02*
X46936667Y55566667D01*
X46936667Y55566667D02*
X46936667Y55033333D01*
X46936667Y55033333D02*
X47070000Y54900000D01*
X47070000Y54900000D02*
X47336667Y54900000D01*
X47336667Y54900000D02*
X47470000Y55033333D01*
X48003333Y54900000D02*
X48003333Y55700000D01*
X48003333Y55700000D02*
X47603333Y55140000D01*
X47603333Y55140000D02*
X48136667Y55140000D01*
X49043333Y55540000D02*
X49203333Y55700000D01*
X49203333Y55700000D02*
X49203333Y54900000D01*
X49043333Y54900000D02*
X49363333Y54900000D01*
X49736667Y54900000D02*
X50003333Y54900000D01*
X50003333Y54900000D02*
X50136667Y55033333D01*
X50136667Y55033333D02*
X50136667Y55566667D01*
X50136667Y55566667D02*
X50003333Y55700000D01*
X50003333Y55700000D02*
X49736667Y55700000D01*
X49736667Y55700000D02*
X49603333Y55566667D01*
X49603333Y55566667D02*
X49603333Y55033333D01*
X49603333Y55033333D02*
X49736667Y54900000D01*
X49683333Y55060000D02*
X50056667Y55540000D01*
X50403333Y54900000D02*
X50670000Y54900000D01*
X50670000Y54900000D02*
X50803333Y55033333D01*
X50803333Y55033333D02*
X50803333Y55566667D01*
X50803333Y55566667D02*
X50670000Y55700000D01*
X50670000Y55700000D02*
X50403333Y55700000D01*
X50403333Y55700000D02*
X50270000Y55566667D01*
X50270000Y55566667D02*
X50270000Y55033333D01*
X50270000Y55033333D02*
X50403333Y54900000D01*
X50350000Y55060000D02*
X50723333Y55540000D01*
X50936667Y54900000D02*
X50936667Y55700000D01*
X50936667Y55700000D02*
X51470000Y54900000D01*
X51470000Y54900000D02*
X51470000Y55700000D01*
X40033333Y34466667D02*
X39900000Y34600000D01*
X39900000Y34600000D02*
X39633333Y34600000D01*
X39633333Y34600000D02*
X39500000Y34466667D01*
X39500000Y34466667D02*
X39500000Y33933333D01*
X39500000Y33933333D02*
X39633333Y33800000D01*
X39633333Y33800000D02*
X39900000Y33800000D01*
X39900000Y33800000D02*
X40033333Y33933333D01*
X40273333Y34440000D02*
X40433333Y34600000D01*
X40433333Y34600000D02*
X40433333Y33800000D01*
X40273333Y33800000D02*
X40593333Y33800000D01*
X40913333Y34200000D02*
X41286667Y34200000D01*
X42033333Y34466667D02*
X41900000Y34600000D01*
X41900000Y34600000D02*
X41633333Y34600000D01*
X41633333Y34600000D02*
X41500000Y34466667D01*
X41500000Y34466667D02*
X41500000Y33933333D01*
X41500000Y33933333D02*
X41633333Y33800000D01*
X41633333Y33800000D02*
X41900000Y33800000D01*
X41900000Y33800000D02*
X42033333Y33933333D01*
X42566667Y33800000D02*
X42566667Y34600000D01*
X42566667Y34600000D02*
X42166667Y34040000D01*
X42166667Y34040000D02*
X42700000Y34040000D01*
X43633333Y33800000D02*
X43900000Y33800000D01*
X43900000Y33800000D02*
X44033333Y33933333D01*
X44033333Y33933333D02*
X44033333Y34466667D01*
X44033333Y34466667D02*
X43900000Y34600000D01*
X43900000Y34600000D02*
X43633333Y34600000D01*
X43633333Y34600000D02*
X43500000Y34466667D01*
X43500000Y34466667D02*
X43500000Y33933333D01*
X43500000Y33933333D02*
X43633333Y33800000D01*
X44166667Y33800000D02*
X44166667Y34600000D01*
X44166667Y34600000D02*
X44566667Y34600000D01*
X44566667Y34600000D02*
X44700000Y34466667D01*
X44700000Y34466667D02*
X44700000Y34333333D01*
X44700000Y34333333D02*
X44566667Y34200000D01*
X44566667Y34200000D02*
X44166667Y34200000D01*
X44833333Y34600000D02*
X45366667Y34600000D01*
X45100000Y34600000D02*
X45100000Y33800000D01*
X45633333Y33800000D02*
X45900000Y33800000D01*
X45766667Y33800000D02*
X45766667Y34600000D01*
X45633333Y34600000D02*
X45900000Y34600000D01*
X46300000Y33800000D02*
X46566667Y33800000D01*
X46566667Y33800000D02*
X46700000Y33933333D01*
X46700000Y33933333D02*
X46700000Y34466667D01*
X46700000Y34466667D02*
X46566667Y34600000D01*
X46566667Y34600000D02*
X46300000Y34600000D01*
X46300000Y34600000D02*
X46166667Y34466667D01*
X46166667Y34466667D02*
X46166667Y33933333D01*
X46166667Y33933333D02*
X46300000Y33800000D01*
X46833333Y33800000D02*
X46833333Y34600000D01*
X46833333Y34600000D02*
X47366667Y33800000D01*
X47366667Y33800000D02*
X47366667Y34600000D01*
X47500000Y33800000D02*
X47766667Y34600000D01*
X47766667Y34600000D02*
X48033333Y33800000D01*
X47633333Y34066667D02*
X47900000Y34066667D01*
X48166667Y34600000D02*
X48166667Y33800000D01*
X48166667Y33800000D02*
X48700000Y33800000D01*
G36*
X71550879Y5713776D02*
X71550879Y6246165D01*
X71573836Y6246536D01*
X71596245Y6247649D01*
X71618105Y6249505D01*
X71639417Y6252102D01*
X71660180Y6255442D01*
X71680395Y6259523D01*
X71700061Y6264347D01*
X71719178Y6269913D01*
X71737747Y6276221D01*
X71755768Y6283271D01*
X71773224Y6290999D01*
X71790099Y6299340D01*
X71806393Y6308293D01*
X71822107Y6317860D01*
X71837240Y6328040D01*
X71851792Y6338833D01*
X71865763Y6350239D01*
X71879153Y6362258D01*
X71891963Y6374890D01*
X71904192Y6388136D01*
X71915824Y6401962D01*
X71926842Y6416336D01*
X71937248Y6431259D01*
X71947041Y6446731D01*
X71956221Y6462751D01*
X71964787Y6479319D01*
X71972741Y6496437D01*
X71980081Y6514102D01*
X71986809Y6532316D01*
X71992923Y6551079D01*
X71998441Y6570294D01*
X72003377Y6589863D01*
X72007733Y6609787D01*
X72011509Y6630066D01*
X72014703Y6650700D01*
X72017316Y6671689D01*
X72019349Y6693033D01*
X72020801Y6714732D01*
X72021672Y6736786D01*
X72021963Y6759195D01*
X72021963Y6965698D01*
X72021672Y6988106D01*
X72020801Y7010160D01*
X72019349Y7031859D01*
X72017316Y7053203D01*
X72014703Y7074192D01*
X72011509Y7094826D01*
X72007733Y7115105D01*
X72003377Y7135030D01*
X71998441Y7154599D01*
X71992923Y7173813D01*
X71986809Y7192576D01*
X71980081Y7210790D01*
X71972741Y7228456D01*
X71964787Y7245573D01*
X71956221Y7262142D01*
X71947041Y7278162D01*
X71937248Y7293633D01*
X71926842Y7308556D01*
X71915824Y7322931D01*
X71904192Y7336757D01*
X71891963Y7350002D01*
X71879153Y7362634D01*
X71865763Y7374653D01*
X71851792Y7386059D01*
X71837240Y7396852D01*
X71822107Y7407032D01*
X71806393Y7416599D01*
X71790099Y7425553D01*
X71773224Y7433894D01*
X71755768Y7441621D01*
X71737747Y7448672D01*
X71719178Y7454980D01*
X71700061Y7460545D01*
X71680395Y7465369D01*
X71660180Y7469451D01*
X71639417Y7472790D01*
X71618105Y7475388D01*
X71596245Y7477243D01*
X71573836Y7478356D01*
X71550879Y7478727D01*
X71527921Y7478356D01*
X71505513Y7477243D01*
X71483652Y7475388D01*
X71462341Y7472790D01*
X71441578Y7469451D01*
X71421363Y7465369D01*
X71401697Y7460545D01*
X71382579Y7454980D01*
X71364010Y7448672D01*
X71345989Y7441621D01*
X71328550Y7433894D01*
X71311723Y7425553D01*
X71295509Y7416599D01*
X71279909Y7407032D01*
X71264921Y7396852D01*
X71250547Y7386059D01*
X71236785Y7374653D01*
X71223637Y7362634D01*
X71211101Y7350002D01*
X71199179Y7336757D01*
X71187854Y7322931D01*
X71177109Y7308556D01*
X71166945Y7293633D01*
X71157362Y7278162D01*
X71148360Y7262142D01*
X71139939Y7245573D01*
X71132098Y7228456D01*
X71124838Y7210790D01*
X71118159Y7192576D01*
X71112061Y7173813D01*
X71106543Y7154599D01*
X71101607Y7135030D01*
X71097251Y7115105D01*
X71093476Y7094826D01*
X71090281Y7074192D01*
X71087668Y7053203D01*
X71085635Y7031859D01*
X71084183Y7010160D01*
X71083312Y6988106D01*
X71083021Y6965698D01*
X71083021Y6759195D01*
X71083312Y6736786D01*
X71084183Y6714732D01*
X71085635Y6693033D01*
X71087668Y6671689D01*
X71090281Y6650700D01*
X71093476Y6630066D01*
X71097251Y6609787D01*
X71101607Y6589863D01*
X71106543Y6570294D01*
X71112061Y6551079D01*
X71118159Y6532316D01*
X71124838Y6514102D01*
X71132098Y6496437D01*
X71139939Y6479319D01*
X71148360Y6462751D01*
X71157362Y6446731D01*
X71166945Y6431259D01*
X71177109Y6416336D01*
X71187854Y6401962D01*
X71199179Y6388136D01*
X71211101Y6374890D01*
X71223637Y6362258D01*
X71236785Y6350239D01*
X71250547Y6338833D01*
X71264921Y6328040D01*
X71279909Y6317860D01*
X71295509Y6308293D01*
X71311723Y6299340D01*
X71328550Y6290999D01*
X71345989Y6283271D01*
X71364010Y6276221D01*
X71382579Y6269913D01*
X71401697Y6264347D01*
X71421363Y6259523D01*
X71441578Y6255442D01*
X71462341Y6252102D01*
X71483652Y6249505D01*
X71505513Y6247649D01*
X71527921Y6246536D01*
X71550879Y6246165D01*
X71550879Y6246165D01*
X71550879Y5713776D01*
X71476473Y5715066D01*
X71404262Y5718938D01*
X71334245Y5725391D01*
X71266421Y5734426D01*
X71200792Y5746042D01*
X71137357Y5760239D01*
X71076116Y5777017D01*
X71017070Y5796377D01*
X70960217Y5818318D01*
X70905558Y5842840D01*
X70853255Y5869927D01*
X70803469Y5899563D01*
X70756199Y5931749D01*
X70711446Y5966483D01*
X70669210Y6003767D01*
X70629490Y6043599D01*
X70592287Y6085980D01*
X70557601Y6130911D01*
X70525432Y6178390D01*
X70495780Y6228419D01*
X70468805Y6280932D01*
X70444670Y6335865D01*
X70423375Y6393218D01*
X70404919Y6452990D01*
X70389302Y6515183D01*
X70376524Y6579796D01*
X70366587Y6646829D01*
X70359488Y6716281D01*
X70355229Y6788154D01*
X70353809Y6862446D01*
X70355229Y6937336D01*
X70359488Y7009708D01*
X70366587Y7079564D01*
X70376524Y7146904D01*
X70389302Y7211726D01*
X70404919Y7274032D01*
X70423375Y7333821D01*
X70444670Y7391093D01*
X70468805Y7445848D01*
X70495780Y7498087D01*
X70525432Y7547809D01*
X70557601Y7595014D01*
X70592287Y7639703D01*
X70629490Y7681874D01*
X70669210Y7721529D01*
X70711446Y7758667D01*
X70756199Y7793289D01*
X70803469Y7825394D01*
X70853255Y7854981D01*
X70905558Y7882053D01*
X70960217Y7906575D01*
X71017070Y7928516D01*
X71076116Y7947875D01*
X71137357Y7964654D01*
X71200792Y7978851D01*
X71266421Y7990466D01*
X71334245Y7999501D01*
X71404262Y8005954D01*
X71476473Y8009826D01*
X71550879Y8011117D01*
X71625897Y8009826D01*
X71698657Y8005954D01*
X71769158Y7999501D01*
X71837401Y7990466D01*
X71903385Y7978851D01*
X71967110Y7964654D01*
X72028577Y7947875D01*
X72087785Y7928516D01*
X72144735Y7906575D01*
X72199426Y7882053D01*
X72251729Y7854981D01*
X72301516Y7825394D01*
X72348785Y7793289D01*
X72393538Y7758667D01*
X72435775Y7721529D01*
X72475494Y7681874D01*
X72512697Y7639703D01*
X72547383Y7595014D01*
X72579552Y7547809D01*
X72609204Y7498087D01*
X72636179Y7445848D01*
X72660314Y7391093D01*
X72681609Y7333821D01*
X72700066Y7274032D01*
X72715682Y7211726D01*
X72728460Y7146904D01*
X72738398Y7079564D01*
X72745496Y7009708D01*
X72749755Y6937336D01*
X72751175Y6862446D01*
X72749755Y6788154D01*
X72745496Y6716281D01*
X72738398Y6646829D01*
X72728460Y6579796D01*
X72715682Y6515183D01*
X72700066Y6452990D01*
X72681609Y6393218D01*
X72660314Y6335865D01*
X72636179Y6280932D01*
X72609204Y6228419D01*
X72579552Y6178390D01*
X72547383Y6130911D01*
X72512697Y6085980D01*
X72475494Y6043599D01*
X72435775Y6003767D01*
X72393538Y5966483D01*
X72348785Y5931749D01*
X72301516Y5899563D01*
X72251729Y5869927D01*
X72199426Y5842840D01*
X72144735Y5818318D01*
X72087785Y5796377D01*
X72028577Y5777017D01*
X71967110Y5760239D01*
X71903385Y5746042D01*
X71837401Y5734426D01*
X71769158Y5725391D01*
X71698657Y5718938D01*
X71625897Y5715066D01*
X71550879Y5713776D01*
X71550879Y5713776D01*
G37*
G36*
X73029925Y5752495D02*
X73029925Y7972398D01*
X74823916Y7972398D01*
X74823916Y7440008D01*
X73743004Y7440008D01*
X73743004Y7059269D01*
X74672266Y7059269D01*
X74672266Y6549466D01*
X73743004Y6549466D01*
X73743004Y5752495D01*
X73029925Y5752495D01*
G37*
G36*
X75076854Y5752495D02*
X75076854Y7972398D01*
X76870845Y7972398D01*
X76870845Y7440008D01*
X75789933Y7440008D01*
X75789933Y7059269D01*
X76719195Y7059269D01*
X76719195Y6549466D01*
X75789933Y6549466D01*
X75789933Y5752495D01*
X75076854Y5752495D01*
G37*
G36*
X78136936Y5713776D02*
X78028732Y5716680D01*
X77926110Y5725391D01*
X77829069Y5739911D01*
X77737611Y5760239D01*
X77651735Y5786374D01*
X77571441Y5818318D01*
X77496729Y5856069D01*
X77427599Y5899628D01*
X77364052Y5948995D01*
X77306086Y6004170D01*
X77253669Y6065024D01*
X77206771Y6131427D01*
X77165390Y6203380D01*
X77129526Y6280883D01*
X77099180Y6363936D01*
X77074351Y6452539D01*
X77055040Y6546691D01*
X77041246Y6646393D01*
X77032970Y6751645D01*
X77030211Y6862446D01*
X77031631Y6937336D01*
X77035890Y7009708D01*
X77042988Y7079564D01*
X77052926Y7146904D01*
X77065704Y7211726D01*
X77081320Y7274032D01*
X77099777Y7333821D01*
X77121072Y7391093D01*
X77145207Y7445848D01*
X77172182Y7498087D01*
X77201866Y7547809D01*
X77234132Y7595014D01*
X77268980Y7639703D01*
X77306408Y7681874D01*
X77346418Y7721529D01*
X77389009Y7758667D01*
X77434182Y7793289D01*
X77481935Y7825394D01*
X77532270Y7854981D01*
X77585187Y7882053D01*
X77640523Y7906575D01*
X77698118Y7928516D01*
X77757971Y7947875D01*
X77820083Y7964654D01*
X77884454Y7978851D01*
X77951083Y7990466D01*
X78019971Y7999501D01*
X78091118Y8005954D01*
X78164523Y8009826D01*
X78240187Y8011117D01*
X78286376Y8010584D01*
X78332016Y8008987D01*
X78377108Y8006325D01*
X78421651Y8002599D01*
X78465646Y7997807D01*
X78509092Y7991951D01*
X78551990Y7985030D01*
X78594339Y7977044D01*
X78636140Y7967993D01*
X78677392Y7957878D01*
X78717886Y7946714D01*
X78757411Y7934517D01*
X78795969Y7921288D01*
X78833559Y7907027D01*
X78870181Y7891732D01*
X78905835Y7875406D01*
X78940521Y7858047D01*
X78974239Y7839655D01*
X79006989Y7820231D01*
X79038771Y7799774D01*
X79069376Y7778269D01*
X79098592Y7755699D01*
X79126422Y7732064D01*
X79152864Y7707364D01*
X79177918Y7681600D01*
X79201586Y7654771D01*
X79223865Y7626877D01*
X79244757Y7597918D01*
X79264262Y7567894D01*
X79282380Y7536806D01*
X79298932Y7504669D01*
X79313742Y7471500D01*
X79326810Y7437298D01*
X79338135Y7402063D01*
X79347718Y7365796D01*
X79355559Y7328497D01*
X79361657Y7290165D01*
X79366013Y7250800D01*
X79368627Y7210403D01*
X79369498Y7168973D01*
X78688685Y7168973D01*
X78688346Y7183041D01*
X78687330Y7196851D01*
X78685636Y7210403D01*
X78683264Y7223697D01*
X78680215Y7236732D01*
X78676488Y7249509D01*
X78672084Y7262029D01*
X78667002Y7274290D01*
X78661243Y7286293D01*
X78654805Y7298038D01*
X78647788Y7309476D01*
X78640286Y7320559D01*
X78632300Y7331288D01*
X78623830Y7341661D01*
X78614876Y7351680D01*
X78605438Y7361344D01*
X78595517Y7370652D01*
X78585111Y7379606D01*
X78574221Y7388205D01*
X78562847Y7396449D01*
X78551054Y7404322D01*
X78538906Y7411808D01*
X78526403Y7418906D01*
X78513545Y7425617D01*
X78500332Y7431942D01*
X78486764Y7437879D01*
X78472841Y7443428D01*
X78458564Y7448591D01*
X78443931Y7453366D01*
X78428943Y7457754D01*
X78413698Y7461739D01*
X78398291Y7465305D01*
X78382722Y7468451D01*
X78366993Y7471177D01*
X78351102Y7473484D01*
X78335049Y7475372D01*
X78318835Y7476840D01*
X78302460Y7477888D01*
X78285924Y7478518D01*
X78269226Y7478727D01*
X78244349Y7478389D01*
X78220053Y7477372D01*
X78196338Y7475678D01*
X78173203Y7473307D01*
X78150649Y7470257D01*
X78128676Y7466531D01*
X78107283Y7462126D01*
X78086472Y7457045D01*
X78066241Y7451285D01*
X78046591Y7444848D01*
X78027570Y7437733D01*
X78009227Y7429941D01*
X77991561Y7421471D01*
X77974573Y7412324D01*
X77958263Y7402499D01*
X77942630Y7391996D01*
X77927674Y7380816D01*
X77913397Y7368958D01*
X77899797Y7356423D01*
X77886874Y7343210D01*
X77874597Y7329400D01*
X77862933Y7315074D01*
X77851882Y7300232D01*
X77841444Y7284873D01*
X77831618Y7268998D01*
X77822407Y7252607D01*
X77813808Y7235700D01*
X77805822Y7218276D01*
X77798449Y7200336D01*
X77791689Y7181880D01*
X77785559Y7162875D01*
X77780074Y7143290D01*
X77775234Y7123123D01*
X77771039Y7102376D01*
X77767490Y7081049D01*
X77764586Y7059140D01*
X77762327Y7036651D01*
X77760714Y7013580D01*
X77759746Y6989929D01*
X77759423Y6965698D01*
X77759423Y6759195D01*
X77759988Y6727397D01*
X77761682Y6696534D01*
X77764505Y6666608D01*
X77768458Y6637617D01*
X77773540Y6609561D01*
X77779751Y6582442D01*
X77787091Y6556258D01*
X77795561Y6531010D01*
X77805160Y6506697D01*
X77815889Y6483320D01*
X77827763Y6460944D01*
X77840798Y6439632D01*
X77854995Y6419385D01*
X77870354Y6400203D01*
X77886874Y6382086D01*
X77904556Y6365033D01*
X77923399Y6349045D01*
X77943404Y6334122D01*
X77964571Y6320264D01*
X77986899Y6307471D01*
X78010340Y6295823D01*
X78034846Y6285401D01*
X78060417Y6276205D01*
X78087052Y6268235D01*
X78114753Y6261492D01*
X78143518Y6255974D01*
X78173348Y6251683D01*
X78204243Y6248617D01*
X78236202Y6246778D01*
X78269226Y6246165D01*
X78291635Y6246504D01*
X78313689Y6247520D01*
X78335388Y6249214D01*
X78356732Y6251586D01*
X78377721Y6254635D01*
X78398355Y6258362D01*
X78418634Y6262766D01*
X78438559Y6267848D01*
X78458128Y6273607D01*
X78477342Y6280044D01*
X78496008Y6287127D01*
X78513932Y6294822D01*
X78531114Y6303131D01*
X78547553Y6312052D01*
X78563251Y6321587D01*
X78578206Y6331735D01*
X78592419Y6342495D01*
X78605890Y6353869D01*
X78618619Y6365856D01*
X78630606Y6378456D01*
X78641641Y6391556D01*
X78651514Y6405043D01*
X78660226Y6418917D01*
X78667776Y6433179D01*
X78674165Y6447828D01*
X78679392Y6462864D01*
X78683458Y6478287D01*
X78686362Y6494097D01*
X78688104Y6510295D01*
X78688685Y6526880D01*
X78688685Y6539786D01*
X78185335Y6539786D01*
X78185335Y6991510D01*
X79369498Y6991510D01*
X79369498Y5752495D01*
X79001665Y5752495D01*
X78930680Y5971904D01*
X78910481Y5955384D01*
X78889896Y5939380D01*
X78868923Y5923892D01*
X78847563Y5908921D01*
X78825815Y5894465D01*
X78803681Y5880527D01*
X78781159Y5867104D01*
X78758250Y5854197D01*
X78734954Y5841807D01*
X78711271Y5829933D01*
X78687168Y5818608D01*
X78662614Y5807863D01*
X78637608Y5797700D01*
X78612150Y5788117D01*
X78586240Y5779114D01*
X78559879Y5770693D01*
X78533066Y5762852D01*
X78505801Y5755592D01*
X78478084Y5748913D01*
X78449916Y5742815D01*
X78421232Y5737298D01*
X78391966Y5732361D01*
X78362120Y5728005D01*
X78331693Y5724230D01*
X78300686Y5721036D01*
X78269097Y5718422D01*
X78236928Y5716389D01*
X78204178Y5714937D01*
X78170847Y5714066D01*
X78136936Y5713776D01*
X78136936Y5713776D01*
G37*
G36*
X79706327Y5752495D02*
X79706327Y7972398D01*
X81096993Y7972398D01*
X81145860Y7971397D01*
X81193081Y7968397D01*
X81238657Y7963395D01*
X81282587Y7956394D01*
X81324872Y7947391D01*
X81365511Y7936389D01*
X81404504Y7923385D01*
X81441852Y7908382D01*
X81477555Y7891378D01*
X81511611Y7872373D01*
X81544023Y7851755D01*
X81574788Y7829911D01*
X81603908Y7806841D01*
X81631383Y7782544D01*
X81657212Y7757022D01*
X81681395Y7730273D01*
X81703933Y7702299D01*
X81724825Y7673098D01*
X81744072Y7642671D01*
X81761673Y7611018D01*
X81777612Y7578494D01*
X81791874Y7545453D01*
X81804458Y7511897D01*
X81815364Y7477824D01*
X81824592Y7443235D01*
X81832142Y7408129D01*
X81838014Y7372508D01*
X81842209Y7336370D01*
X81844726Y7299715D01*
X81845565Y7262545D01*
X81844564Y7220422D01*
X81841564Y7179234D01*
X81836562Y7138982D01*
X81829561Y7099666D01*
X81820559Y7061286D01*
X81809556Y7023841D01*
X81796553Y6987332D01*
X81781549Y6951759D01*
X81764545Y6917121D01*
X81745540Y6883419D01*
X81724825Y6850847D01*
X81702691Y6819597D01*
X81679137Y6789670D01*
X81654163Y6761066D01*
X81627769Y6733785D01*
X81599956Y6707827D01*
X81570723Y6683192D01*
X81540070Y6659880D01*
X81507998Y6637891D01*
X81474505Y6617224D01*
X81910097Y5752495D01*
X81109899Y5752495D01*
X80771106Y6497840D01*
X80419406Y6497840D01*
X80419406Y6991510D01*
X80919530Y6991510D01*
X80936050Y6992172D01*
X80952054Y6994156D01*
X80967542Y6997463D01*
X80982513Y7002094D01*
X80996968Y7008047D01*
X81010907Y7015323D01*
X81024330Y7023922D01*
X81037236Y7033843D01*
X81049626Y7045088D01*
X81061500Y7057656D01*
X81072535Y7071320D01*
X81082409Y7085856D01*
X81091121Y7101263D01*
X81098671Y7117541D01*
X81105059Y7134691D01*
X81110287Y7152711D01*
X81114352Y7171603D01*
X81117256Y7191366D01*
X81118998Y7212000D01*
X81119579Y7233506D01*
X81119321Y7246896D01*
X81118547Y7259964D01*
X81117256Y7272709D01*
X81115449Y7285131D01*
X81113126Y7297231D01*
X81110287Y7309008D01*
X81106931Y7320462D01*
X81103059Y7331594D01*
X81098671Y7342403D01*
X81093766Y7352890D01*
X81088410Y7363005D01*
X81082667Y7372701D01*
X81076536Y7381978D01*
X81070019Y7390835D01*
X81063114Y7399272D01*
X81055821Y7407290D01*
X81048142Y7414889D01*
X81040076Y7422068D01*
X81031622Y7428828D01*
X81022781Y7435168D01*
X81013618Y7440992D01*
X81004196Y7446203D01*
X80994516Y7450801D01*
X80984578Y7454786D01*
X80974382Y7458158D01*
X80963928Y7460916D01*
X80953216Y7463062D01*
X80942245Y7464595D01*
X80931016Y7465514D01*
X80919530Y7465821D01*
X80419406Y7465821D01*
X80419406Y6991510D01*
X80419406Y6497840D01*
X80419406Y5752495D01*
X79706327Y5752495D01*
G37*
G36*
X82111409Y5752495D02*
X82111409Y7972398D01*
X82824488Y7972398D01*
X82824488Y5752495D01*
X82111409Y5752495D01*
G37*
G36*
X83196810Y5752495D02*
X83196810Y7972398D01*
X84158337Y7972398D01*
X84145431Y7440008D01*
X83909889Y7440008D01*
X83909889Y6284884D01*
X84145431Y6284884D01*
X84168356Y6285207D01*
X84190668Y6286175D01*
X84212367Y6287788D01*
X84233453Y6290047D01*
X84253925Y6292951D01*
X84273785Y6296500D01*
X84293032Y6300695D01*
X84311665Y6305535D01*
X84329686Y6311020D01*
X84347094Y6317150D01*
X84363888Y6323894D01*
X84380069Y6331218D01*
X84395638Y6339124D01*
X84410593Y6347610D01*
X84424935Y6356676D01*
X84438665Y6366324D01*
X84451781Y6376552D01*
X84464284Y6387361D01*
X84476174Y6398751D01*
X84487451Y6410722D01*
X84498131Y6423273D01*
X84508230Y6436406D01*
X84517749Y6450119D01*
X84526686Y6464413D01*
X84535043Y6479287D01*
X84542819Y6494743D01*
X84550015Y6510779D01*
X84556629Y6527396D01*
X84562663Y6544594D01*
X84568116Y6562372D01*
X84573020Y6580667D01*
X84577408Y6599414D01*
X84581280Y6618612D01*
X84584636Y6638262D01*
X84587475Y6658364D01*
X84589799Y6678917D01*
X84591606Y6699922D01*
X84592896Y6721379D01*
X84593671Y6743288D01*
X84593929Y6765648D01*
X84593929Y6959244D01*
X84593671Y6981605D01*
X84592896Y7003513D01*
X84591606Y7024970D01*
X84589799Y7045975D01*
X84587475Y7066529D01*
X84584636Y7086631D01*
X84581280Y7106281D01*
X84577408Y7125479D01*
X84573020Y7144225D01*
X84568116Y7162520D01*
X84562663Y7180299D01*
X84556629Y7197497D01*
X84550015Y7214114D01*
X84542819Y7230150D01*
X84535043Y7245605D01*
X84526686Y7260480D01*
X84517749Y7274774D01*
X84508230Y7288487D01*
X84498131Y7301619D01*
X84487451Y7314171D01*
X84476174Y7326141D01*
X84464284Y7337531D01*
X84451781Y7348340D01*
X84438665Y7358569D01*
X84424935Y7368216D01*
X84410593Y7377283D01*
X84395638Y7385769D01*
X84380069Y7393674D01*
X84363888Y7400998D01*
X84347094Y7407742D01*
X84329686Y7413873D01*
X84311665Y7419358D01*
X84293032Y7424198D01*
X84273785Y7428392D01*
X84253925Y7431942D01*
X84233453Y7434846D01*
X84212367Y7437104D01*
X84190668Y7438717D01*
X84168356Y7439685D01*
X84145431Y7440008D01*
X84158337Y7972398D01*
X84233259Y7971204D01*
X84305729Y7967622D01*
X84375746Y7961653D01*
X84443311Y7953296D01*
X84508424Y7942551D01*
X84571084Y7929419D01*
X84631293Y7913899D01*
X84689049Y7895992D01*
X84744353Y7875696D01*
X84797205Y7853013D01*
X84847588Y7827878D01*
X84895487Y7800226D01*
X84940901Y7770057D01*
X84983831Y7737372D01*
X85024277Y7702170D01*
X85062238Y7664451D01*
X85097714Y7624215D01*
X85130706Y7581462D01*
X85161214Y7536193D01*
X85189237Y7488407D01*
X85214679Y7438008D01*
X85237442Y7384898D01*
X85257528Y7329078D01*
X85274935Y7270547D01*
X85289665Y7209306D01*
X85301716Y7145355D01*
X85311090Y7078693D01*
X85317785Y7009321D01*
X85321802Y6937239D01*
X85323141Y6862446D01*
X85321802Y6788251D01*
X85317785Y6716668D01*
X85311090Y6647700D01*
X85301716Y6581345D01*
X85289665Y6517603D01*
X85274935Y6456475D01*
X85257528Y6397961D01*
X85237442Y6342060D01*
X85214679Y6288772D01*
X85189237Y6238099D01*
X85161214Y6190006D01*
X85130706Y6144463D01*
X85097714Y6101468D01*
X85062238Y6061023D01*
X85024277Y6023126D01*
X84983831Y5987779D01*
X84940901Y5954980D01*
X84895487Y5924731D01*
X84847588Y5897031D01*
X84797205Y5871879D01*
X84744353Y5849196D01*
X84689049Y5828901D01*
X84631293Y5810993D01*
X84571084Y5795473D01*
X84508424Y5782341D01*
X84443311Y5771596D01*
X84375746Y5763240D01*
X84305729Y5757270D01*
X84233259Y5753689D01*
X84158337Y5752495D01*
X83196810Y5752495D01*
G37*
D10*
X7250000Y56150000D02*
X7250000Y57050000D01*
X7250000Y57050000D02*
X7700000Y57050000D01*
X7700000Y57050000D02*
X7850000Y56900000D01*
X7850000Y56900000D02*
X7850000Y56750000D01*
X7850000Y56750000D02*
X7700000Y56600000D01*
X7700000Y56600000D02*
X7250000Y56600000D01*
X8000000Y56150000D02*
X8300000Y57050000D01*
X8300000Y57050000D02*
X8600000Y56150000D01*
X8150000Y56450000D02*
X8450000Y56450000D01*
X9350000Y56900000D02*
X9200000Y57050000D01*
X9200000Y57050000D02*
X8900000Y57050000D01*
X8900000Y57050000D02*
X8750000Y56900000D01*
X8750000Y56900000D02*
X8750000Y56300000D01*
X8750000Y56300000D02*
X8900000Y56150000D01*
X8900000Y56150000D02*
X9200000Y56150000D01*
X9200000Y56150000D02*
X9350000Y56300000D01*
X9500000Y56150000D02*
X9500000Y57050000D01*
X10100000Y57050000D02*
X9530000Y56570000D01*
X9740000Y56750000D02*
X10100000Y56150000D01*
X10850000Y57050000D02*
X10250000Y57050000D01*
X10250000Y57050000D02*
X10250000Y56150000D01*
X10250000Y56150000D02*
X10850000Y56150000D01*
X10250000Y56600000D02*
X10700000Y56600000D01*
X11000000Y57050000D02*
X11600000Y57050000D01*
X11300000Y57050000D02*
X11300000Y56150000D01*
X12500000Y57050000D02*
X12500000Y56150000D01*
X12500000Y56150000D02*
X13100000Y56150000D01*
X13400000Y56150000D02*
X13700000Y56150000D01*
X13700000Y56150000D02*
X13850000Y56300000D01*
X13850000Y56300000D02*
X13850000Y56900000D01*
X13850000Y56900000D02*
X13700000Y57050000D01*
X13700000Y57050000D02*
X13400000Y57050000D01*
X13400000Y57050000D02*
X13250000Y56900000D01*
X13250000Y56900000D02*
X13250000Y56300000D01*
X13250000Y56300000D02*
X13400000Y56150000D01*
X14600000Y56900000D02*
X14450000Y57050000D01*
X14450000Y57050000D02*
X14150000Y57050000D01*
X14150000Y57050000D02*
X14000000Y56900000D01*
X14000000Y56900000D02*
X14000000Y56300000D01*
X14000000Y56300000D02*
X14150000Y56150000D01*
X14150000Y56150000D02*
X14450000Y56150000D01*
X14450000Y56150000D02*
X14600000Y56300000D01*
X14600000Y56300000D02*
X14600000Y56600000D01*
X14600000Y56600000D02*
X14300000Y56600000D01*
X15350000Y56900000D02*
X15200000Y57050000D01*
X15200000Y57050000D02*
X14900000Y57050000D01*
X14900000Y57050000D02*
X14750000Y56900000D01*
X14750000Y56900000D02*
X14750000Y56300000D01*
X14750000Y56300000D02*
X14900000Y56150000D01*
X14900000Y56150000D02*
X15200000Y56150000D01*
X15200000Y56150000D02*
X15350000Y56300000D01*
X15350000Y56300000D02*
X15350000Y56600000D01*
X15350000Y56600000D02*
X15050000Y56600000D01*
X16100000Y57050000D02*
X15500000Y57050000D01*
X15500000Y57050000D02*
X15500000Y56150000D01*
X15500000Y56150000D02*
X16100000Y56150000D01*
X15500000Y56600000D02*
X15950000Y56600000D01*
X16250000Y56150000D02*
X16250000Y57050000D01*
X16250000Y57050000D02*
X16700000Y57050000D01*
X16700000Y57050000D02*
X16850000Y56900000D01*
X16850000Y56900000D02*
X16850000Y56750000D01*
X16850000Y56750000D02*
X16700000Y56600000D01*
X16700000Y56600000D02*
X16250000Y56600000D01*
X16550000Y56600000D02*
X16850000Y56150000D01*
X18350000Y56900000D02*
X18200000Y57050000D01*
X18200000Y57050000D02*
X17900000Y57050000D01*
X17900000Y57050000D02*
X17750000Y56900000D01*
X17750000Y56900000D02*
X17750000Y56300000D01*
X17750000Y56300000D02*
X17900000Y56150000D01*
X17900000Y56150000D02*
X18200000Y56150000D01*
X18200000Y56150000D02*
X18350000Y56300000D01*
X18500000Y56150000D02*
X18800000Y57050000D01*
X18800000Y57050000D02*
X19100000Y56150000D01*
X18650000Y56450000D02*
X18950000Y56450000D01*
X19250000Y56150000D02*
X19250000Y57050000D01*
X19250000Y57050000D02*
X19700000Y57050000D01*
X19700000Y57050000D02*
X19850000Y56900000D01*
X19850000Y56900000D02*
X19850000Y56750000D01*
X19850000Y56750000D02*
X19700000Y56600000D01*
X19700000Y56600000D02*
X19250000Y56600000D01*
X19550000Y56600000D02*
X19850000Y56150000D01*
X20000000Y56150000D02*
X20000000Y57050000D01*
X20000000Y57050000D02*
X20450000Y57050000D01*
X20450000Y57050000D02*
X20600000Y56900000D01*
X20600000Y56900000D02*
X20600000Y56750000D01*
X20600000Y56750000D02*
X20450000Y56600000D01*
X20450000Y56600000D02*
X20000000Y56600000D01*
X20300000Y56600000D02*
X20600000Y56150000D01*
X20900000Y56150000D02*
X21200000Y56150000D01*
X21050000Y56150000D02*
X21050000Y57050000D01*
X20900000Y57050000D02*
X21200000Y57050000D01*
X22100000Y57050000D02*
X21500000Y57050000D01*
X21500000Y57050000D02*
X21500000Y56150000D01*
X21500000Y56150000D02*
X22100000Y56150000D01*
X21500000Y56600000D02*
X21950000Y56600000D01*
X22250000Y56150000D02*
X22250000Y57050000D01*
X22250000Y57050000D02*
X22700000Y57050000D01*
X22700000Y57050000D02*
X22850000Y56900000D01*
X22850000Y56900000D02*
X22850000Y56750000D01*
X22850000Y56750000D02*
X22700000Y56600000D01*
X22700000Y56600000D02*
X22250000Y56600000D01*
X22550000Y56600000D02*
X22850000Y56150000D01*
X23750000Y57050000D02*
X24050000Y56150000D01*
X24050000Y56150000D02*
X24350000Y57050000D01*
X24620000Y56870000D02*
X24800000Y57050000D01*
X24800000Y57050000D02*
X24800000Y56150000D01*
X24620000Y56150000D02*
X24980000Y56150000D01*
X26090000Y56600000D02*
X26510000Y56600000D01*
X27650000Y56600000D02*
X27500000Y56750000D01*
X27500000Y56750000D02*
X27500000Y56900000D01*
X27500000Y56900000D02*
X27650000Y57050000D01*
X27650000Y57050000D02*
X27950000Y57050000D01*
X27950000Y57050000D02*
X28100000Y56900000D01*
X28100000Y56900000D02*
X28100000Y56750000D01*
X28100000Y56750000D02*
X27950000Y56600000D01*
X27950000Y56600000D02*
X27650000Y56600000D01*
X27650000Y56600000D02*
X27500000Y56450000D01*
X27500000Y56450000D02*
X27500000Y56300000D01*
X27500000Y56300000D02*
X27650000Y56150000D01*
X27650000Y56150000D02*
X27950000Y56150000D01*
X27950000Y56150000D02*
X28100000Y56300000D01*
X28100000Y56300000D02*
X28100000Y56450000D01*
X28100000Y56450000D02*
X27950000Y56600000D01*
X28850000Y56900000D02*
X28700000Y57050000D01*
X28700000Y57050000D02*
X28400000Y57050000D01*
X28400000Y57050000D02*
X28250000Y56900000D01*
X28250000Y56900000D02*
X28250000Y56300000D01*
X28250000Y56300000D02*
X28400000Y56150000D01*
X28400000Y56150000D02*
X28700000Y56150000D01*
X28700000Y56150000D02*
X28850000Y56300000D01*
X28850000Y56300000D02*
X28850000Y56450000D01*
X28850000Y56450000D02*
X28700000Y56600000D01*
X28700000Y56600000D02*
X28400000Y56600000D01*
X28400000Y56600000D02*
X28250000Y56450000D01*
X29750000Y56150000D02*
X30350000Y57050000D01*
X29750000Y57050000D02*
X30350000Y56150000D01*
X31850000Y57050000D02*
X31250000Y57050000D01*
X31250000Y57050000D02*
X31250000Y56660000D01*
X31250000Y56660000D02*
X31700000Y56660000D01*
X31700000Y56660000D02*
X31850000Y56510000D01*
X31850000Y56510000D02*
X31850000Y56300000D01*
X31850000Y56300000D02*
X31700000Y56150000D01*
X31700000Y56150000D02*
X31400000Y56150000D01*
X31400000Y56150000D02*
X31250000Y56300000D01*
X32150000Y56600000D02*
X32000000Y56750000D01*
X32000000Y56750000D02*
X32000000Y56900000D01*
X32000000Y56900000D02*
X32150000Y57050000D01*
X32150000Y57050000D02*
X32450000Y57050000D01*
X32450000Y57050000D02*
X32600000Y56900000D01*
X32600000Y56900000D02*
X32600000Y56750000D01*
X32600000Y56750000D02*
X32450000Y56600000D01*
X32450000Y56600000D02*
X32150000Y56600000D01*
X32150000Y56600000D02*
X32000000Y56450000D01*
X32000000Y56450000D02*
X32000000Y56300000D01*
X32000000Y56300000D02*
X32150000Y56150000D01*
X32150000Y56150000D02*
X32450000Y56150000D01*
X32450000Y56150000D02*
X32600000Y56300000D01*
X32600000Y56300000D02*
X32600000Y56450000D01*
X32600000Y56450000D02*
X32450000Y56600000D01*
M02*
