M48
;DRILL file {packet-logger-carrier} date 2026-08-24
;FORMAT={-:-/ absolute / metric / decimal}
FMAT,2
METRIC,TZ
;TYPE=PLATED
T1C0.400
T2C0.800
T3C0.900
T4C1.000
T5C1.100
%
G90
G05
T1
X53.800Y20.800
X59.500Y36.300
X55.800Y20.000
X59.500Y24.000
X61.400Y24.800
X71.400Y51.600
X79.000Y42.100
X18.300Y15.200
X20.900Y15.200
T2
X72.000Y10.000
X74.540Y10.000
X58.000Y10.000
X60.540Y10.000
X58.000Y14.500
X60.540Y14.500
X49.000Y53.000
X51.540Y53.000
T3
X13.000Y6.000
X15.000Y6.000
T4
X6.050Y23.250
X8.590Y23.250
X11.130Y23.250
X13.670Y23.250
X23.460Y22.750G85X23.460Y23.750
X26.000Y22.750G85X26.000Y23.750
X28.540Y22.750G85X28.540Y23.750
X31.080Y22.750G85X31.080Y23.750
X66.880Y21.280
X69.420Y21.280
X71.960Y21.280
X74.500Y21.280
X77.040Y21.280
X79.580Y21.280
X82.120Y21.280
X66.880Y36.520
X69.420Y36.520
X71.960Y36.520
X74.500Y36.520
X77.040Y36.520
X79.580Y36.520
X82.120Y36.520
X42.650Y22.000
X45.190Y22.000
X47.730Y22.000
X50.270Y22.000
X52.810Y22.000
X55.350Y22.000
X58.000Y53.000
X60.540Y53.000
X63.080Y53.000
X65.620Y53.000
X68.160Y53.000
X16.000Y13.000
X18.540Y13.000
X21.080Y13.000
X23.620Y13.000
X72.000Y53.000
X74.540Y53.000
X77.080Y53.000
X79.620Y53.000
X6.000Y6.000
X8.540Y6.000
X20.000Y6.000
X22.540Y6.000
X25.080Y6.000
X30.000Y6.000
X32.540Y6.000
X8.000Y13.000
X10.540Y13.000
T5
X74.750Y42.250
X81.250Y42.250
X74.750Y46.750
X81.250Y46.750
T0
M30
