%FSLAX46Y46*%
%MOMM*%
%TF.GenerationSoftware,cairn,packet-logger-carrier,1.0*%
%TF.CreationDate,2026-08-24T00:00:00*%
%TF.FileFunction,Soldermask,Top*%
%TF.FilePolarity,Negative*%
%TF.SameCoordinates,Original*%
G04 Packet Logger Carrier v1*
G01*
%LPD*%
D10*
%ADD10R,1.700000X1.700000*%
%ADD11C,1.700000*%
%ADD12O,1.700000X2.700000*%
%ADD13R,1.900000X1.900000*%
%ADD14C,1.900000*%
%ADD15R,1.600000X1.600000*%
%ADD16C,1.600000*%
%ADD17R,1.500000X1.500000*%
%ADD18C,1.500000*%
%ADD19C,3.300000*%
%ADD20C,1.000195*%
%ADD21C,1.545800*%
X6050000Y23250000D03*
D11*
X8590000Y23250000D03*
X11130000Y23250000D03*
X13670000Y23250000D03*
D12*
X23460000Y23250000D03*
X26000000Y23250000D03*
X28540000Y23250000D03*
X31080000Y23250000D03*
D10*
X66880000Y21280000D03*
D11*
X69420000Y21280000D03*
X71960000Y21280000D03*
X74500000Y21280000D03*
X77040000Y21280000D03*
X79580000Y21280000D03*
X82120000Y21280000D03*
X66880000Y36520000D03*
X69420000Y36520000D03*
X71960000Y36520000D03*
X74500000Y36520000D03*
X77040000Y36520000D03*
X79580000Y36520000D03*
X82120000Y36520000D03*
D10*
X43650000Y22000000D03*
D11*
X46190000Y22000000D03*
X48730000Y22000000D03*
X51270000Y22000000D03*
X53810000Y22000000D03*
X56350000Y22000000D03*
D10*
X54000000Y53000000D03*
D11*
X56540000Y53000000D03*
X59080000Y53000000D03*
X61620000Y53000000D03*
D10*
X65000000Y53000000D03*
D11*
X67540000Y53000000D03*
D10*
X71000000Y53000000D03*
D11*
X73540000Y53000000D03*
X76080000Y53000000D03*
X78620000Y53000000D03*
D13*
X74750000Y42250000D03*
D14*
X81250000Y42250000D03*
X74750000Y46750000D03*
X81250000Y46750000D03*
D10*
X6000000Y6000000D03*
D11*
X8540000Y6000000D03*
D15*
X13000000Y6000000D03*
D16*
X15000000Y6000000D03*
D10*
X20000000Y6000000D03*
D11*
X22540000Y6000000D03*
X25080000Y6000000D03*
D10*
X30000000Y6000000D03*
D11*
X32540000Y6000000D03*
D10*
X36000000Y46000000D03*
D11*
X38540000Y46000000D03*
D10*
X43000000Y46000000D03*
D11*
X45540000Y46000000D03*
X48080000Y46000000D03*
X50620000Y46000000D03*
D17*
X72000000Y12500000D03*
D18*
X74540000Y12500000D03*
D17*
X39500000Y26500000D03*
D18*
X42040000Y26500000D03*
D17*
X39500000Y30500000D03*
D18*
X42040000Y30500000D03*
D17*
X48000000Y53000000D03*
D18*
X50540000Y53000000D03*
D19*
X3500000Y3500000D03*
X82500000Y3500000D03*
X3500000Y54500000D03*
X82500000Y54500000D03*
D20*
X69614393Y8726797D02*
X69959652Y8533003D01*
X69959652Y8533003D02*
X70272002Y8289698D01*
X70272002Y8289698D02*
X70544403Y8002369D01*
X70544403Y8002369D02*
X70770712Y7677494D01*
X70770712Y7677494D02*
X70945827Y7322395D01*
X70945827Y7322395D02*
X71065800Y6945080D01*
X71065800Y6945080D02*
X71127927Y6554056D01*
X71127927Y6554056D02*
X71130806Y6158137D01*
X71130806Y6158137D02*
X71074373Y5766250D01*
X71074373Y5766250D02*
X70959900Y5387230D01*
X70959900Y5387230D02*
X70789968Y5029623D01*
X70789968Y5029623D02*
X70568408Y4701490D01*
X70568408Y4701490D02*
X70300215Y4410229D01*
X70300215Y4410229D02*
X69991436Y4162408D01*
X69991436Y4162408D02*
X69649032Y3963613D01*
X69649032Y3963613D02*
X69280723Y3818326D01*
X69280723Y3818326D02*
X68894812Y3729822D01*
X68894812Y3729822D02*
X68500000Y3700097D01*
X68500000Y3700097D02*
X68105188Y3729822D01*
X68105188Y3729822D02*
X67719277Y3818326D01*
X67719277Y3818326D02*
X67350968Y3963613D01*
X67350968Y3963613D02*
X67008564Y4162408D01*
X67008564Y4162408D02*
X66699785Y4410229D01*
X66699785Y4410229D02*
X66431592Y4701490D01*
X66431592Y4701490D02*
X66210032Y5029623D01*
X66210032Y5029623D02*
X66040100Y5387230D01*
X66040100Y5387230D02*
X65925627Y5766250D01*
X65925627Y5766250D02*
X65869194Y6158137D01*
X65869194Y6158137D02*
X65872073Y6554056D01*
X65872073Y6554056D02*
X65934200Y6945080D01*
X65934200Y6945080D02*
X66054173Y7322395D01*
X66054173Y7322395D02*
X66229288Y7677494D01*
X66229288Y7677494D02*
X66455597Y8002369D01*
X66455597Y8002369D02*
X66727998Y8289698D01*
X66727998Y8289698D02*
X67040348Y8533003D01*
X67040348Y8533003D02*
X67385607Y8726797D01*
D21*
X68500000Y9427122D03*
M02*
