%FSLAX46Y46*%
%MOMM*%
%TF.GenerationSoftware,cairn,packet-logger-carrier,1.0*%
%TF.CreationDate,2026-08-24T00:00:00*%
%TF.FileFunction,Legend,Top*%
%TF.FilePolarity,Positive*%
%TF.SameCoordinates,Original*%
G04 Packet Logger Carrier v1*
G01*
%LPD*%
D10*
%ADD10C,0.128000*%
%ADD11C,0.120000*%
%ADD12C,0.195000*%
%ADD13C,0.150000*%
%ADD14C,0.180000*%
%ADD15C,0.142000*%
%ADD16C,0.135000*%
X5625000Y19837500D02*
X6475000Y20120833D01*
X6475000Y20120833D02*
X5625000Y20404167D01*
X6475000Y20545833D02*
X5625000Y20545833D01*
X5625000Y20545833D02*
X5625000Y20970833D01*
X5625000Y20970833D02*
X5766667Y21112500D01*
X5766667Y21112500D02*
X6333333Y21112500D01*
X6333333Y21112500D02*
X6475000Y20970833D01*
X6475000Y20970833D02*
X6475000Y20545833D01*
X6475000Y21254167D02*
X5625000Y21254167D01*
X5625000Y21254167D02*
X5625000Y21679167D01*
X5625000Y21679167D02*
X5766667Y21820833D01*
X5766667Y21820833D02*
X6333333Y21820833D01*
X6333333Y21820833D02*
X6475000Y21679167D01*
X6475000Y21679167D02*
X6475000Y21254167D01*
X8306667Y20404167D02*
X8165000Y20262500D01*
X8165000Y20262500D02*
X8165000Y19979167D01*
X8165000Y19979167D02*
X8306667Y19837500D01*
X8306667Y19837500D02*
X8873333Y19837500D01*
X8873333Y19837500D02*
X9015000Y19979167D01*
X9015000Y19979167D02*
X9015000Y20262500D01*
X9015000Y20262500D02*
X8873333Y20404167D01*
X8873333Y20404167D02*
X8590000Y20404167D01*
X8590000Y20404167D02*
X8590000Y20120833D01*
X9015000Y20545833D02*
X8165000Y20545833D01*
X8165000Y20545833D02*
X9015000Y21112500D01*
X9015000Y21112500D02*
X8165000Y21112500D01*
X9015000Y21254167D02*
X8165000Y21254167D01*
X8165000Y21254167D02*
X8165000Y21679167D01*
X8165000Y21679167D02*
X8306667Y21820833D01*
X8306667Y21820833D02*
X8873333Y21820833D01*
X8873333Y21820833D02*
X9015000Y21679167D01*
X9015000Y21679167D02*
X9015000Y21254167D01*
X10846667Y20404167D02*
X10705000Y20262500D01*
X10705000Y20262500D02*
X10705000Y19979167D01*
X10705000Y19979167D02*
X10846667Y19837500D01*
X10846667Y19837500D02*
X10988333Y19837500D01*
X10988333Y19837500D02*
X11130000Y19979167D01*
X11130000Y19979167D02*
X11130000Y20262500D01*
X11130000Y20262500D02*
X11271667Y20404167D01*
X11271667Y20404167D02*
X11413333Y20404167D01*
X11413333Y20404167D02*
X11555000Y20262500D01*
X11555000Y20262500D02*
X11555000Y19979167D01*
X11555000Y19979167D02*
X11413333Y19837500D01*
X10846667Y21112500D02*
X10705000Y20970833D01*
X10705000Y20970833D02*
X10705000Y20687500D01*
X10705000Y20687500D02*
X10846667Y20545833D01*
X10846667Y20545833D02*
X11413333Y20545833D01*
X11413333Y20545833D02*
X11555000Y20687500D01*
X11555000Y20687500D02*
X11555000Y20970833D01*
X11555000Y20970833D02*
X11413333Y21112500D01*
X10705000Y21254167D02*
X11555000Y21254167D01*
X11555000Y21254167D02*
X11555000Y21820833D01*
X13386667Y20404167D02*
X13245000Y20262500D01*
X13245000Y20262500D02*
X13245000Y19979167D01*
X13245000Y19979167D02*
X13386667Y19837500D01*
X13386667Y19837500D02*
X13528333Y19837500D01*
X13528333Y19837500D02*
X13670000Y19979167D01*
X13670000Y19979167D02*
X13670000Y20262500D01*
X13670000Y20262500D02*
X13811667Y20404167D01*
X13811667Y20404167D02*
X13953333Y20404167D01*
X13953333Y20404167D02*
X14095000Y20262500D01*
X14095000Y20262500D02*
X14095000Y19979167D01*
X14095000Y19979167D02*
X13953333Y19837500D01*
X14095000Y20545833D02*
X13245000Y20545833D01*
X13245000Y20545833D02*
X13245000Y20970833D01*
X13245000Y20970833D02*
X13386667Y21112500D01*
X13386667Y21112500D02*
X13953333Y21112500D01*
X13953333Y21112500D02*
X14095000Y20970833D01*
X14095000Y20970833D02*
X14095000Y20545833D01*
X14095000Y21254167D02*
X13245000Y21537500D01*
X13245000Y21537500D02*
X14095000Y21820833D01*
X13811667Y21395833D02*
X13811667Y21679167D01*
X23885000Y18933333D02*
X23035000Y18933333D01*
X23035000Y18933333D02*
X23035000Y19358333D01*
X23035000Y19358333D02*
X23176667Y19500000D01*
X23176667Y19500000D02*
X23318333Y19500000D01*
X23318333Y19500000D02*
X23460000Y19358333D01*
X23460000Y19358333D02*
X23460000Y18933333D01*
X23460000Y19358333D02*
X23601667Y19500000D01*
X23601667Y19500000D02*
X23743333Y19500000D01*
X23743333Y19500000D02*
X23885000Y19358333D01*
X23885000Y19358333D02*
X23885000Y18933333D01*
X23885000Y19783333D02*
X23885000Y20066667D01*
X23885000Y20066667D02*
X23743333Y20208333D01*
X23743333Y20208333D02*
X23176667Y20208333D01*
X23176667Y20208333D02*
X23035000Y20066667D01*
X23035000Y20066667D02*
X23035000Y19783333D01*
X23035000Y19783333D02*
X23176667Y19641667D01*
X23176667Y19641667D02*
X23743333Y19641667D01*
X23743333Y19641667D02*
X23885000Y19783333D01*
X23885000Y20491667D02*
X23885000Y20775000D01*
X23885000Y20775000D02*
X23743333Y20916667D01*
X23743333Y20916667D02*
X23176667Y20916667D01*
X23176667Y20916667D02*
X23035000Y20775000D01*
X23035000Y20775000D02*
X23035000Y20491667D01*
X23035000Y20491667D02*
X23176667Y20350000D01*
X23176667Y20350000D02*
X23743333Y20350000D01*
X23743333Y20350000D02*
X23885000Y20491667D01*
X23035000Y21058333D02*
X23035000Y21625000D01*
X23035000Y21341667D02*
X23885000Y21341667D01*
X25716667Y19854167D02*
X25575000Y19712500D01*
X25575000Y19712500D02*
X25575000Y19429167D01*
X25575000Y19429167D02*
X25716667Y19287500D01*
X25716667Y19287500D02*
X26283333Y19287500D01*
X26283333Y19287500D02*
X26425000Y19429167D01*
X26425000Y19429167D02*
X26425000Y19712500D01*
X26425000Y19712500D02*
X26283333Y19854167D01*
X26283333Y19854167D02*
X26000000Y19854167D01*
X26000000Y19854167D02*
X26000000Y19570833D01*
X26425000Y19995833D02*
X25575000Y19995833D01*
X25575000Y19995833D02*
X26425000Y20562500D01*
X26425000Y20562500D02*
X25575000Y20562500D01*
X26425000Y20704167D02*
X25575000Y20704167D01*
X25575000Y20704167D02*
X25575000Y21129167D01*
X25575000Y21129167D02*
X25716667Y21270833D01*
X25716667Y21270833D02*
X26283333Y21270833D01*
X26283333Y21270833D02*
X26425000Y21129167D01*
X26425000Y21129167D02*
X26425000Y20704167D01*
X28115000Y19287500D02*
X28115000Y19854167D01*
X28115000Y19570833D02*
X28965000Y19570833D01*
X28965000Y19995833D02*
X28115000Y20562500D01*
X28115000Y19995833D02*
X28965000Y20562500D01*
X28965000Y20845833D02*
X28965000Y21129167D01*
X28965000Y21129167D02*
X28823333Y21270833D01*
X28823333Y21270833D02*
X28256667Y21270833D01*
X28256667Y21270833D02*
X28115000Y21129167D01*
X28115000Y21129167D02*
X28115000Y20845833D01*
X28115000Y20845833D02*
X28256667Y20704167D01*
X28256667Y20704167D02*
X28823333Y20704167D01*
X28823333Y20704167D02*
X28965000Y20845833D01*
X28795000Y20789167D02*
X28285000Y21185833D01*
X31505000Y19287500D02*
X30655000Y19287500D01*
X30655000Y19287500D02*
X30655000Y19712500D01*
X30655000Y19712500D02*
X30796667Y19854167D01*
X30796667Y19854167D02*
X30938333Y19854167D01*
X30938333Y19854167D02*
X31080000Y19712500D01*
X31080000Y19712500D02*
X31080000Y19287500D01*
X31080000Y19570833D02*
X31505000Y19854167D01*
X31505000Y19995833D02*
X30655000Y20562500D01*
X30655000Y19995833D02*
X31505000Y20562500D01*
X31505000Y20845833D02*
X31505000Y21129167D01*
X31505000Y21129167D02*
X31363333Y21270833D01*
X31363333Y21270833D02*
X30796667Y21270833D01*
X30796667Y21270833D02*
X30655000Y21129167D01*
X30655000Y21129167D02*
X30655000Y20845833D01*
X30655000Y20845833D02*
X30796667Y20704167D01*
X30796667Y20704167D02*
X31363333Y20704167D01*
X31363333Y20704167D02*
X31505000Y20845833D01*
X31335000Y20789167D02*
X30825000Y21185833D01*
D11*
X3000000Y20000000D02*
X4200000Y20000000D01*
X5400000Y20000000D02*
X6600000Y20000000D01*
X7800000Y20000000D02*
X9000000Y20000000D01*
X10200000Y20000000D02*
X11400000Y20000000D01*
X12600000Y20000000D02*
X13800000Y20000000D01*
X15000000Y20000000D02*
X16200000Y20000000D01*
X17400000Y20000000D02*
X18600000Y20000000D01*
X19800000Y20000000D02*
X21000000Y20000000D01*
X22200000Y20000000D02*
X23400000Y20000000D01*
X24600000Y20000000D02*
X25800000Y20000000D01*
X27000000Y20000000D02*
X28200000Y20000000D01*
X29400000Y20000000D02*
X30600000Y20000000D01*
X33380000Y20000000D02*
X33380000Y21200000D01*
X33380000Y22400000D02*
X33380000Y23600000D01*
X33380000Y24800000D02*
X33380000Y26000000D01*
X33380000Y27200000D02*
X33380000Y28400000D01*
X33380000Y29600000D02*
X33380000Y30800000D01*
X33380000Y32000000D02*
X33380000Y33200000D01*
X33380000Y34400000D02*
X33380000Y35600000D01*
X33380000Y36800000D02*
X33380000Y38000000D01*
X33380000Y39200000D02*
X33380000Y40400000D01*
X33380000Y41600000D02*
X33380000Y42800000D01*
X33380000Y44000000D02*
X33380000Y45200000D01*
X33380000Y46400000D02*
X33380000Y47600000D01*
X33380000Y48800000D02*
X33380000Y50000000D01*
X33380000Y51200000D02*
X33380000Y52400000D01*
X33380000Y55000000D02*
X32180000Y55000000D01*
X30980000Y55000000D02*
X29780000Y55000000D01*
X28580000Y55000000D02*
X27380000Y55000000D01*
X26180000Y55000000D02*
X24980000Y55000000D01*
X23780000Y55000000D02*
X22580000Y55000000D01*
X21380000Y55000000D02*
X20180000Y55000000D01*
X18980000Y55000000D02*
X17780000Y55000000D01*
X16580000Y55000000D02*
X15380000Y55000000D01*
X14180000Y55000000D02*
X12980000Y55000000D01*
X11780000Y55000000D02*
X10580000Y55000000D01*
X9380000Y55000000D02*
X8180000Y55000000D01*
X6980000Y55000000D02*
X5780000Y55000000D01*
X3000000Y55000000D02*
X3000000Y53800000D01*
X3000000Y52600000D02*
X3000000Y51400000D01*
X3000000Y50200000D02*
X3000000Y49000000D01*
X3000000Y47800000D02*
X3000000Y46600000D01*
X3000000Y45400000D02*
X3000000Y44200000D01*
X3000000Y43000000D02*
X3000000Y41800000D01*
X3000000Y40600000D02*
X3000000Y39400000D01*
X3000000Y38200000D02*
X3000000Y37000000D01*
X3000000Y35800000D02*
X3000000Y34600000D01*
X3000000Y33400000D02*
X3000000Y32200000D01*
X3000000Y31000000D02*
X3000000Y29800000D01*
X3000000Y28600000D02*
X3000000Y27400000D01*
X3000000Y26200000D02*
X3000000Y25000000D01*
X3000000Y23800000D02*
X3000000Y22600000D01*
D12*
X7898333Y51350000D02*
X7898333Y52650000D01*
X7898333Y52650000D02*
X8548333Y52650000D01*
X8548333Y52650000D02*
X8765000Y52433333D01*
X8765000Y52433333D02*
X8765000Y52216667D01*
X8765000Y52216667D02*
X8548333Y52000000D01*
X8548333Y52000000D02*
X7898333Y52000000D01*
X8331667Y52000000D02*
X8765000Y51350000D01*
X8981667Y51350000D02*
X9415000Y52650000D01*
X9415000Y52650000D02*
X9848333Y51350000D01*
X9198333Y51783333D02*
X9631667Y51783333D01*
X10065000Y51350000D02*
X10065000Y52650000D01*
X10931667Y52650000D02*
X10108333Y51956667D01*
X10411667Y52216667D02*
X10931667Y51350000D01*
X11321667Y52390000D02*
X11581667Y52650000D01*
X11581667Y52650000D02*
X11581667Y51350000D01*
X11321667Y51350000D02*
X11841667Y51350000D01*
X12231667Y51566667D02*
X12448333Y51350000D01*
X12448333Y51350000D02*
X12881667Y51350000D01*
X12881667Y51350000D02*
X13098333Y51566667D01*
X13098333Y51566667D02*
X13098333Y52433333D01*
X13098333Y52433333D02*
X12881667Y52650000D01*
X12881667Y52650000D02*
X12448333Y52650000D01*
X12448333Y52650000D02*
X12231667Y52433333D01*
X12231667Y52433333D02*
X12231667Y52216667D01*
X12231667Y52216667D02*
X12448333Y52000000D01*
X12448333Y52000000D02*
X12881667Y52000000D01*
X12881667Y52000000D02*
X13098333Y52216667D01*
X13531667Y51350000D02*
X13965000Y51350000D01*
X13965000Y51350000D02*
X14181667Y51566667D01*
X14181667Y51566667D02*
X14181667Y52433333D01*
X14181667Y52433333D02*
X13965000Y52650000D01*
X13965000Y52650000D02*
X13531667Y52650000D01*
X13531667Y52650000D02*
X13315000Y52433333D01*
X13315000Y52433333D02*
X13315000Y51566667D01*
X13315000Y51566667D02*
X13531667Y51350000D01*
X13445000Y51610000D02*
X14051667Y52390000D01*
X14615000Y51350000D02*
X15048333Y51350000D01*
X15048333Y51350000D02*
X15265000Y51566667D01*
X15265000Y51566667D02*
X15265000Y52433333D01*
X15265000Y52433333D02*
X15048333Y52650000D01*
X15048333Y52650000D02*
X14615000Y52650000D01*
X14615000Y52650000D02*
X14398333Y52433333D01*
X14398333Y52433333D02*
X14398333Y51566667D01*
X14398333Y51566667D02*
X14615000Y51350000D01*
X14528333Y51610000D02*
X15135000Y52390000D01*
X15481667Y52650000D02*
X16348333Y52650000D01*
X16348333Y52650000D02*
X15915000Y52086667D01*
X15915000Y52086667D02*
X16131667Y52086667D01*
X16131667Y52086667D02*
X16348333Y51870000D01*
X16348333Y51870000D02*
X16348333Y51566667D01*
X16348333Y51566667D02*
X16131667Y51350000D01*
X16131667Y51350000D02*
X15698333Y51350000D01*
X15698333Y51350000D02*
X15481667Y51566667D01*
X19381667Y52650000D02*
X19035000Y52260000D01*
X19035000Y52260000D02*
X19035000Y51740000D01*
X19035000Y51740000D02*
X19381667Y51350000D01*
X19815000Y52650000D02*
X20681667Y52650000D01*
X20681667Y52650000D02*
X20248333Y52086667D01*
X20248333Y52086667D02*
X20465000Y52086667D01*
X20465000Y52086667D02*
X20681667Y51870000D01*
X20681667Y51870000D02*
X20681667Y51566667D01*
X20681667Y51566667D02*
X20465000Y51350000D01*
X20465000Y51350000D02*
X20031667Y51350000D01*
X20031667Y51350000D02*
X19815000Y51566667D01*
X21765000Y52650000D02*
X20898333Y52650000D01*
X20898333Y52650000D02*
X20898333Y52086667D01*
X20898333Y52086667D02*
X21548333Y52086667D01*
X21548333Y52086667D02*
X21765000Y51870000D01*
X21765000Y51870000D02*
X21765000Y51566667D01*
X21765000Y51566667D02*
X21548333Y51350000D01*
X21548333Y51350000D02*
X21115000Y51350000D01*
X21115000Y51350000D02*
X20898333Y51566667D01*
X23065000Y51350000D02*
X23931667Y52650000D01*
X23065000Y52650000D02*
X23931667Y51350000D01*
X25231667Y52650000D02*
X26098333Y52650000D01*
X26098333Y52650000D02*
X25665000Y52086667D01*
X25665000Y52086667D02*
X25881667Y52086667D01*
X25881667Y52086667D02*
X26098333Y51870000D01*
X26098333Y51870000D02*
X26098333Y51566667D01*
X26098333Y51566667D02*
X25881667Y51350000D01*
X25881667Y51350000D02*
X25448333Y51350000D01*
X25448333Y51350000D02*
X25231667Y51566667D01*
X26531667Y51350000D02*
X26965000Y51350000D01*
X26965000Y51350000D02*
X27181667Y51566667D01*
X27181667Y51566667D02*
X27181667Y52433333D01*
X27181667Y52433333D02*
X26965000Y52650000D01*
X26965000Y52650000D02*
X26531667Y52650000D01*
X26531667Y52650000D02*
X26315000Y52433333D01*
X26315000Y52433333D02*
X26315000Y51566667D01*
X26315000Y51566667D02*
X26531667Y51350000D01*
X26445000Y51610000D02*
X27051667Y52390000D01*
X27615000Y52650000D02*
X27961667Y52260000D01*
X27961667Y52260000D02*
X27961667Y51740000D01*
X27961667Y51740000D02*
X27615000Y51350000D01*
D11*
X4523333Y50200000D02*
X4523333Y49533333D01*
X4523333Y49533333D02*
X4656667Y49400000D01*
X4656667Y49400000D02*
X4923333Y49400000D01*
X4923333Y49400000D02*
X5056667Y49533333D01*
X5056667Y49533333D02*
X5056667Y50200000D01*
X5723333Y50066667D02*
X5590000Y50200000D01*
X5590000Y50200000D02*
X5323333Y50200000D01*
X5323333Y50200000D02*
X5190000Y50066667D01*
X5190000Y50066667D02*
X5190000Y49933333D01*
X5190000Y49933333D02*
X5323333Y49800000D01*
X5323333Y49800000D02*
X5590000Y49800000D01*
X5590000Y49800000D02*
X5723333Y49666667D01*
X5723333Y49666667D02*
X5723333Y49533333D01*
X5723333Y49533333D02*
X5590000Y49400000D01*
X5590000Y49400000D02*
X5323333Y49400000D01*
X5323333Y49400000D02*
X5190000Y49533333D01*
X5856667Y49400000D02*
X5856667Y50200000D01*
X5856667Y50200000D02*
X6256667Y50200000D01*
X6256667Y50200000D02*
X6390000Y50066667D01*
X6390000Y50066667D02*
X6390000Y49933333D01*
X6390000Y49933333D02*
X6256667Y49800000D01*
X6256667Y49800000D02*
X5856667Y49800000D01*
X6256667Y49800000D02*
X6390000Y49666667D01*
X6390000Y49666667D02*
X6390000Y49533333D01*
X6390000Y49533333D02*
X6256667Y49400000D01*
X6256667Y49400000D02*
X5856667Y49400000D01*
X6603333Y49800000D02*
X6976667Y49800000D01*
X7723333Y50066667D02*
X7590000Y50200000D01*
X7590000Y50200000D02*
X7323333Y50200000D01*
X7323333Y50200000D02*
X7190000Y50066667D01*
X7190000Y50066667D02*
X7190000Y49533333D01*
X7190000Y49533333D02*
X7323333Y49400000D01*
X7323333Y49400000D02*
X7590000Y49400000D01*
X7590000Y49400000D02*
X7723333Y49533333D01*
X8523333Y49400000D02*
X9056667Y50200000D01*
X9856667Y49400000D02*
X9856667Y50200000D01*
X9856667Y50200000D02*
X10256667Y50200000D01*
X10256667Y50200000D02*
X10390000Y50066667D01*
X10390000Y50066667D02*
X10390000Y49933333D01*
X10390000Y49933333D02*
X10256667Y49800000D01*
X10256667Y49800000D02*
X9856667Y49800000D01*
X10256667Y49800000D02*
X10390000Y49666667D01*
X10390000Y49666667D02*
X10390000Y49533333D01*
X10390000Y49533333D02*
X10256667Y49400000D01*
X10256667Y49400000D02*
X9856667Y49400000D01*
X10523333Y49400000D02*
X10790000Y50200000D01*
X10790000Y50200000D02*
X11056667Y49400000D01*
X10656667Y49666667D02*
X10923333Y49666667D01*
X11190000Y50200000D02*
X11723333Y50200000D01*
X11456667Y50200000D02*
X11456667Y49400000D01*
X11856667Y50200000D02*
X12390000Y50200000D01*
X12123333Y50200000D02*
X12123333Y49400000D01*
X13190000Y49400000D02*
X13723333Y50200000D01*
X15056667Y50066667D02*
X14923333Y50200000D01*
X14923333Y50200000D02*
X14656667Y50200000D01*
X14656667Y50200000D02*
X14523333Y50066667D01*
X14523333Y50066667D02*
X14523333Y49933333D01*
X14523333Y49933333D02*
X14656667Y49800000D01*
X14656667Y49800000D02*
X14923333Y49800000D01*
X14923333Y49800000D02*
X15056667Y49666667D01*
X15056667Y49666667D02*
X15056667Y49533333D01*
X15056667Y49533333D02*
X14923333Y49400000D01*
X14923333Y49400000D02*
X14656667Y49400000D01*
X14656667Y49400000D02*
X14523333Y49533333D01*
X15323333Y49400000D02*
X15590000Y49400000D01*
X15590000Y49400000D02*
X15723333Y49533333D01*
X15723333Y49533333D02*
X15723333Y50066667D01*
X15723333Y50066667D02*
X15590000Y50200000D01*
X15590000Y50200000D02*
X15323333Y50200000D01*
X15323333Y50200000D02*
X15190000Y50066667D01*
X15190000Y50066667D02*
X15190000Y49533333D01*
X15190000Y49533333D02*
X15323333Y49400000D01*
X15856667Y50200000D02*
X15856667Y49400000D01*
X15856667Y49400000D02*
X16390000Y49400000D01*
X16523333Y49400000D02*
X16790000Y50200000D01*
X16790000Y50200000D02*
X17056667Y49400000D01*
X16656667Y49666667D02*
X16923333Y49666667D01*
X17190000Y49400000D02*
X17190000Y50200000D01*
X17190000Y50200000D02*
X17590000Y50200000D01*
X17590000Y50200000D02*
X17723333Y50066667D01*
X17723333Y50066667D02*
X17723333Y49933333D01*
X17723333Y49933333D02*
X17590000Y49800000D01*
X17590000Y49800000D02*
X17190000Y49800000D01*
X17456667Y49800000D02*
X17723333Y49400000D01*
X18523333Y49400000D02*
X19056667Y50200000D01*
X19856667Y49400000D02*
X19856667Y50200000D01*
X19856667Y50200000D02*
X20256667Y50200000D01*
X20256667Y50200000D02*
X20390000Y50066667D01*
X20390000Y50066667D02*
X20390000Y49933333D01*
X20390000Y49933333D02*
X20256667Y49800000D01*
X20256667Y49800000D02*
X19856667Y49800000D01*
X20123333Y49800000D02*
X20390000Y49400000D01*
X21056667Y50200000D02*
X20523333Y50200000D01*
X20523333Y50200000D02*
X20523333Y49400000D01*
X20523333Y49400000D02*
X21056667Y49400000D01*
X20523333Y49800000D02*
X20923333Y49800000D01*
X21723333Y50066667D02*
X21590000Y50200000D01*
X21590000Y50200000D02*
X21323333Y50200000D01*
X21323333Y50200000D02*
X21190000Y50066667D01*
X21190000Y50066667D02*
X21190000Y49933333D01*
X21190000Y49933333D02*
X21323333Y49800000D01*
X21323333Y49800000D02*
X21590000Y49800000D01*
X21590000Y49800000D02*
X21723333Y49666667D01*
X21723333Y49666667D02*
X21723333Y49533333D01*
X21723333Y49533333D02*
X21590000Y49400000D01*
X21590000Y49400000D02*
X21323333Y49400000D01*
X21323333Y49400000D02*
X21190000Y49533333D01*
X22390000Y50200000D02*
X21856667Y50200000D01*
X21856667Y50200000D02*
X21856667Y49400000D01*
X21856667Y49400000D02*
X22390000Y49400000D01*
X21856667Y49800000D02*
X22256667Y49800000D01*
X22523333Y50200000D02*
X23056667Y50200000D01*
X22790000Y50200000D02*
X22790000Y49400000D01*
X23990000Y49400000D02*
X24256667Y49400000D01*
X24256667Y49400000D02*
X24390000Y49533333D01*
X24390000Y49533333D02*
X24390000Y50066667D01*
X24390000Y50066667D02*
X24256667Y50200000D01*
X24256667Y50200000D02*
X23990000Y50200000D01*
X23990000Y50200000D02*
X23856667Y50066667D01*
X23856667Y50066667D02*
X23856667Y49533333D01*
X23856667Y49533333D02*
X23990000Y49400000D01*
X24523333Y49400000D02*
X24523333Y50200000D01*
X24523333Y50200000D02*
X25056667Y49400000D01*
X25056667Y49400000D02*
X25056667Y50200000D01*
X25856667Y50200000D02*
X26390000Y50200000D01*
X26123333Y50200000D02*
X26123333Y49400000D01*
X26523333Y49400000D02*
X26523333Y50200000D01*
X27056667Y49400000D02*
X27056667Y50200000D01*
X26523333Y49800000D02*
X27056667Y49800000D01*
X27323333Y49400000D02*
X27590000Y49400000D01*
X27456667Y49400000D02*
X27456667Y50200000D01*
X27323333Y50200000D02*
X27590000Y50200000D01*
X28390000Y50066667D02*
X28256667Y50200000D01*
X28256667Y50200000D02*
X27990000Y50200000D01*
X27990000Y50200000D02*
X27856667Y50066667D01*
X27856667Y50066667D02*
X27856667Y49933333D01*
X27856667Y49933333D02*
X27990000Y49800000D01*
X27990000Y49800000D02*
X28256667Y49800000D01*
X28256667Y49800000D02*
X28390000Y49666667D01*
X28390000Y49666667D02*
X28390000Y49533333D01*
X28390000Y49533333D02*
X28256667Y49400000D01*
X28256667Y49400000D02*
X27990000Y49400000D01*
X27990000Y49400000D02*
X27856667Y49533333D01*
X29723333Y50200000D02*
X29190000Y50200000D01*
X29190000Y50200000D02*
X29190000Y49400000D01*
X29190000Y49400000D02*
X29723333Y49400000D01*
X29190000Y49800000D02*
X29590000Y49800000D01*
X29856667Y49400000D02*
X29856667Y50200000D01*
X29856667Y50200000D02*
X30256667Y50200000D01*
X30256667Y50200000D02*
X30390000Y50066667D01*
X30390000Y50066667D02*
X30390000Y49533333D01*
X30390000Y49533333D02*
X30256667Y49400000D01*
X30256667Y49400000D02*
X29856667Y49400000D01*
X31056667Y50066667D02*
X30923333Y50200000D01*
X30923333Y50200000D02*
X30656667Y50200000D01*
X30656667Y50200000D02*
X30523333Y50066667D01*
X30523333Y50066667D02*
X30523333Y49533333D01*
X30523333Y49533333D02*
X30656667Y49400000D01*
X30656667Y49400000D02*
X30923333Y49400000D01*
X30923333Y49400000D02*
X31056667Y49533333D01*
X31056667Y49533333D02*
X31056667Y49800000D01*
X31056667Y49800000D02*
X30790000Y49800000D01*
X31723333Y50200000D02*
X31190000Y50200000D01*
X31190000Y50200000D02*
X31190000Y49400000D01*
X31190000Y49400000D02*
X31723333Y49400000D01*
X31190000Y49800000D02*
X31590000Y49800000D01*
D13*
X9526667Y25950000D02*
X9526667Y25116667D01*
X9526667Y25116667D02*
X9360000Y24950000D01*
X9360000Y24950000D02*
X9193333Y24950000D01*
X9193333Y24950000D02*
X9026667Y25116667D01*
X10526667Y25783333D02*
X10360000Y25950000D01*
X10360000Y25950000D02*
X10026667Y25950000D01*
X10026667Y25950000D02*
X9860000Y25783333D01*
X9860000Y25783333D02*
X9860000Y25116667D01*
X9860000Y25116667D02*
X10026667Y24950000D01*
X10026667Y24950000D02*
X10360000Y24950000D01*
X10360000Y24950000D02*
X10526667Y25116667D01*
X10526667Y25116667D02*
X10526667Y25283333D01*
X10526667Y25283333D02*
X10360000Y25450000D01*
X10360000Y25450000D02*
X10026667Y25450000D01*
X10026667Y25450000D02*
X9860000Y25283333D01*
X26936667Y25950000D02*
X26936667Y25116667D01*
X26936667Y25116667D02*
X26770000Y24950000D01*
X26770000Y24950000D02*
X26603333Y24950000D01*
X26603333Y24950000D02*
X26436667Y25116667D01*
X27270000Y25950000D02*
X27936667Y25950000D01*
X27936667Y25950000D02*
X27503333Y24950000D01*
D10*
X67305000Y18221667D02*
X66455000Y18221667D01*
X66455000Y18221667D02*
X66455000Y18646667D01*
X66455000Y18646667D02*
X66596667Y18788333D01*
X66596667Y18788333D02*
X67163333Y18788333D01*
X67163333Y18788333D02*
X67305000Y18646667D01*
X67305000Y18646667D02*
X67305000Y18221667D01*
X66455000Y18930000D02*
X66455000Y19496667D01*
X66455000Y19496667D02*
X67305000Y19128333D01*
X69845000Y18221667D02*
X68995000Y18221667D01*
X68995000Y18221667D02*
X68995000Y18646667D01*
X68995000Y18646667D02*
X69136667Y18788333D01*
X69136667Y18788333D02*
X69703333Y18788333D01*
X69703333Y18788333D02*
X69845000Y18646667D01*
X69845000Y18646667D02*
X69845000Y18221667D01*
X69420000Y19071667D02*
X69278333Y18930000D01*
X69278333Y18930000D02*
X69136667Y18930000D01*
X69136667Y18930000D02*
X68995000Y19071667D01*
X68995000Y19071667D02*
X68995000Y19355000D01*
X68995000Y19355000D02*
X69136667Y19496667D01*
X69136667Y19496667D02*
X69278333Y19496667D01*
X69278333Y19496667D02*
X69420000Y19355000D01*
X69420000Y19355000D02*
X69420000Y19071667D01*
X69420000Y19071667D02*
X69561667Y18930000D01*
X69561667Y18930000D02*
X69703333Y18930000D01*
X69703333Y18930000D02*
X69845000Y19071667D01*
X69845000Y19071667D02*
X69845000Y19355000D01*
X69845000Y19355000D02*
X69703333Y19496667D01*
X69703333Y19496667D02*
X69561667Y19496667D01*
X69561667Y19496667D02*
X69420000Y19355000D01*
X72385000Y18221667D02*
X71535000Y18221667D01*
X71535000Y18221667D02*
X71535000Y18646667D01*
X71535000Y18646667D02*
X71676667Y18788333D01*
X71676667Y18788333D02*
X72243333Y18788333D01*
X72243333Y18788333D02*
X72385000Y18646667D01*
X72385000Y18646667D02*
X72385000Y18221667D01*
X72243333Y18930000D02*
X72385000Y19071667D01*
X72385000Y19071667D02*
X72385000Y19355000D01*
X72385000Y19355000D02*
X72243333Y19496667D01*
X72243333Y19496667D02*
X71676667Y19496667D01*
X71676667Y19496667D02*
X71535000Y19355000D01*
X71535000Y19355000D02*
X71535000Y19071667D01*
X71535000Y19071667D02*
X71676667Y18930000D01*
X71676667Y18930000D02*
X71818333Y18930000D01*
X71818333Y18930000D02*
X71960000Y19071667D01*
X71960000Y19071667D02*
X71960000Y19355000D01*
X71960000Y19355000D02*
X71818333Y19496667D01*
X74925000Y17867500D02*
X74075000Y17867500D01*
X74075000Y17867500D02*
X74075000Y18292500D01*
X74075000Y18292500D02*
X74216667Y18434167D01*
X74216667Y18434167D02*
X74783333Y18434167D01*
X74783333Y18434167D02*
X74925000Y18292500D01*
X74925000Y18292500D02*
X74925000Y17867500D01*
X74245000Y18689167D02*
X74075000Y18859167D01*
X74075000Y18859167D02*
X74925000Y18859167D01*
X74925000Y18689167D02*
X74925000Y19029167D01*
X74925000Y19425833D02*
X74925000Y19709167D01*
X74925000Y19709167D02*
X74783333Y19850833D01*
X74783333Y19850833D02*
X74216667Y19850833D01*
X74216667Y19850833D02*
X74075000Y19709167D01*
X74075000Y19709167D02*
X74075000Y19425833D01*
X74075000Y19425833D02*
X74216667Y19284167D01*
X74216667Y19284167D02*
X74783333Y19284167D01*
X74783333Y19284167D02*
X74925000Y19425833D01*
X74755000Y19369167D02*
X74245000Y19765833D01*
X76615000Y17867500D02*
X76615000Y18434167D01*
X76615000Y18434167D02*
X76983333Y18150833D01*
X76983333Y18150833D02*
X76983333Y18292500D01*
X76983333Y18292500D02*
X77125000Y18434167D01*
X77125000Y18434167D02*
X77323333Y18434167D01*
X77323333Y18434167D02*
X77465000Y18292500D01*
X77465000Y18292500D02*
X77465000Y18009167D01*
X77465000Y18009167D02*
X77323333Y17867500D01*
X76615000Y18575833D02*
X77465000Y18859167D01*
X77465000Y18859167D02*
X76615000Y19142500D01*
X76615000Y19284167D02*
X76615000Y19850833D01*
X76615000Y19850833D02*
X76983333Y19567500D01*
X76983333Y19567500D02*
X76983333Y19709167D01*
X76983333Y19709167D02*
X77125000Y19850833D01*
X77125000Y19850833D02*
X77323333Y19850833D01*
X77323333Y19850833D02*
X77465000Y19709167D01*
X77465000Y19709167D02*
X77465000Y19425833D01*
X77465000Y19425833D02*
X77323333Y19284167D01*
X79296667Y18434167D02*
X79155000Y18292500D01*
X79155000Y18292500D02*
X79155000Y18009167D01*
X79155000Y18009167D02*
X79296667Y17867500D01*
X79296667Y17867500D02*
X79863333Y17867500D01*
X79863333Y17867500D02*
X80005000Y18009167D01*
X80005000Y18009167D02*
X80005000Y18292500D01*
X80005000Y18292500D02*
X79863333Y18434167D01*
X79863333Y18434167D02*
X79580000Y18434167D01*
X79580000Y18434167D02*
X79580000Y18150833D01*
X80005000Y18575833D02*
X79155000Y18575833D01*
X79155000Y18575833D02*
X80005000Y19142500D01*
X80005000Y19142500D02*
X79155000Y19142500D01*
X80005000Y19284167D02*
X79155000Y19284167D01*
X79155000Y19284167D02*
X79155000Y19709167D01*
X79155000Y19709167D02*
X79296667Y19850833D01*
X79296667Y19850833D02*
X79863333Y19850833D01*
X79863333Y19850833D02*
X80005000Y19709167D01*
X80005000Y19709167D02*
X80005000Y19284167D01*
X81695000Y18788333D02*
X81695000Y18221667D01*
X81695000Y18221667D02*
X82063333Y18221667D01*
X82063333Y18221667D02*
X82063333Y18646667D01*
X82063333Y18646667D02*
X82205000Y18788333D01*
X82205000Y18788333D02*
X82403333Y18788333D01*
X82403333Y18788333D02*
X82545000Y18646667D01*
X82545000Y18646667D02*
X82545000Y18363333D01*
X82545000Y18363333D02*
X82403333Y18221667D01*
X81695000Y18930000D02*
X82545000Y19213333D01*
X82545000Y19213333D02*
X81695000Y19496667D01*
X67305000Y38161667D02*
X66455000Y38161667D01*
X66455000Y38161667D02*
X66455000Y38586667D01*
X66455000Y38586667D02*
X66596667Y38728333D01*
X66596667Y38728333D02*
X67163333Y38728333D01*
X67163333Y38728333D02*
X67305000Y38586667D01*
X67305000Y38586667D02*
X67305000Y38161667D01*
X66596667Y39436667D02*
X66455000Y39295000D01*
X66455000Y39295000D02*
X66455000Y39011667D01*
X66455000Y39011667D02*
X66596667Y38870000D01*
X66596667Y38870000D02*
X67163333Y38870000D01*
X67163333Y38870000D02*
X67305000Y39011667D01*
X67305000Y39011667D02*
X67305000Y39295000D01*
X67305000Y39295000D02*
X67163333Y39436667D01*
X67163333Y39436667D02*
X67021667Y39436667D01*
X67021667Y39436667D02*
X66880000Y39295000D01*
X66880000Y39295000D02*
X66880000Y39011667D01*
X66880000Y39011667D02*
X67021667Y38870000D01*
X69845000Y38161667D02*
X68995000Y38161667D01*
X68995000Y38161667D02*
X68995000Y38586667D01*
X68995000Y38586667D02*
X69136667Y38728333D01*
X69136667Y38728333D02*
X69703333Y38728333D01*
X69703333Y38728333D02*
X69845000Y38586667D01*
X69845000Y38586667D02*
X69845000Y38161667D01*
X68995000Y39436667D02*
X68995000Y38870000D01*
X68995000Y38870000D02*
X69363333Y38870000D01*
X69363333Y38870000D02*
X69363333Y39295000D01*
X69363333Y39295000D02*
X69505000Y39436667D01*
X69505000Y39436667D02*
X69703333Y39436667D01*
X69703333Y39436667D02*
X69845000Y39295000D01*
X69845000Y39295000D02*
X69845000Y39011667D01*
X69845000Y39011667D02*
X69703333Y38870000D01*
X72385000Y38161667D02*
X71535000Y38161667D01*
X71535000Y38161667D02*
X71535000Y38586667D01*
X71535000Y38586667D02*
X71676667Y38728333D01*
X71676667Y38728333D02*
X72243333Y38728333D01*
X72243333Y38728333D02*
X72385000Y38586667D01*
X72385000Y38586667D02*
X72385000Y38161667D01*
X72385000Y39295000D02*
X71535000Y39295000D01*
X71535000Y39295000D02*
X72130000Y38870000D01*
X72130000Y38870000D02*
X72130000Y39436667D01*
X74925000Y38161667D02*
X74075000Y38161667D01*
X74075000Y38161667D02*
X74075000Y38586667D01*
X74075000Y38586667D02*
X74216667Y38728333D01*
X74216667Y38728333D02*
X74783333Y38728333D01*
X74783333Y38728333D02*
X74925000Y38586667D01*
X74925000Y38586667D02*
X74925000Y38161667D01*
X74075000Y38870000D02*
X74075000Y39436667D01*
X74075000Y39436667D02*
X74443333Y39153333D01*
X74443333Y39153333D02*
X74443333Y39295000D01*
X74443333Y39295000D02*
X74585000Y39436667D01*
X74585000Y39436667D02*
X74783333Y39436667D01*
X74783333Y39436667D02*
X74925000Y39295000D01*
X74925000Y39295000D02*
X74925000Y39011667D01*
X74925000Y39011667D02*
X74783333Y38870000D01*
X77465000Y38161667D02*
X76615000Y38161667D01*
X76615000Y38161667D02*
X76615000Y38586667D01*
X76615000Y38586667D02*
X76756667Y38728333D01*
X76756667Y38728333D02*
X77323333Y38728333D01*
X77323333Y38728333D02*
X77465000Y38586667D01*
X77465000Y38586667D02*
X77465000Y38161667D01*
X76756667Y38870000D02*
X76615000Y39011667D01*
X76615000Y39011667D02*
X76615000Y39295000D01*
X76615000Y39295000D02*
X76756667Y39436667D01*
X76756667Y39436667D02*
X76926667Y39436667D01*
X76926667Y39436667D02*
X77465000Y38870000D01*
X77465000Y38870000D02*
X77465000Y39436667D01*
X80005000Y38161667D02*
X79155000Y38161667D01*
X79155000Y38161667D02*
X79155000Y38586667D01*
X79155000Y38586667D02*
X79296667Y38728333D01*
X79296667Y38728333D02*
X79863333Y38728333D01*
X79863333Y38728333D02*
X80005000Y38586667D01*
X80005000Y38586667D02*
X80005000Y38161667D01*
X79325000Y38983333D02*
X79155000Y39153333D01*
X79155000Y39153333D02*
X80005000Y39153333D01*
X80005000Y38983333D02*
X80005000Y39323333D01*
X82545000Y38161667D02*
X81695000Y38161667D01*
X81695000Y38161667D02*
X81695000Y38586667D01*
X81695000Y38586667D02*
X81836667Y38728333D01*
X81836667Y38728333D02*
X82403333Y38728333D01*
X82403333Y38728333D02*
X82545000Y38586667D01*
X82545000Y38586667D02*
X82545000Y38161667D01*
X82545000Y39011667D02*
X82545000Y39295000D01*
X82545000Y39295000D02*
X82403333Y39436667D01*
X82403333Y39436667D02*
X81836667Y39436667D01*
X81836667Y39436667D02*
X81695000Y39295000D01*
X81695000Y39295000D02*
X81695000Y39011667D01*
X81695000Y39011667D02*
X81836667Y38870000D01*
X81836667Y38870000D02*
X82403333Y38870000D01*
X82403333Y38870000D02*
X82545000Y39011667D01*
X82375000Y38955000D02*
X81865000Y39351667D01*
D11*
X64000000Y20000000D02*
X65200000Y20000000D01*
X66400000Y20000000D02*
X67600000Y20000000D01*
X68800000Y20000000D02*
X70000000Y20000000D01*
X71200000Y20000000D02*
X72400000Y20000000D01*
X73600000Y20000000D02*
X74800000Y20000000D01*
X76000000Y20000000D02*
X77200000Y20000000D01*
X78400000Y20000000D02*
X79600000Y20000000D01*
X80800000Y20000000D02*
X82000000Y20000000D01*
X85000000Y20000000D02*
X85000000Y21200000D01*
X85000000Y22400000D02*
X85000000Y23600000D01*
X85000000Y24800000D02*
X85000000Y26000000D01*
X85000000Y27200000D02*
X85000000Y28400000D01*
X85000000Y29600000D02*
X85000000Y30800000D01*
X85000000Y32000000D02*
X85000000Y33200000D01*
X85000000Y34400000D02*
X85000000Y35600000D01*
X85000000Y37800000D02*
X83800000Y37800000D01*
X82600000Y37800000D02*
X81400000Y37800000D01*
X80200000Y37800000D02*
X79000000Y37800000D01*
X77800000Y37800000D02*
X76600000Y37800000D01*
X75400000Y37800000D02*
X74200000Y37800000D01*
X73000000Y37800000D02*
X71800000Y37800000D01*
X70600000Y37800000D02*
X69400000Y37800000D01*
X68200000Y37800000D02*
X67000000Y37800000D01*
X64000000Y37800000D02*
X64000000Y36600000D01*
X64000000Y35400000D02*
X64000000Y34200000D01*
X64000000Y33000000D02*
X64000000Y31800000D01*
X64000000Y30600000D02*
X64000000Y29400000D01*
X64000000Y28200000D02*
X64000000Y27000000D01*
X64000000Y25800000D02*
X64000000Y24600000D01*
X64000000Y23400000D02*
X64000000Y22200000D01*
D14*
X68000000Y27680000D02*
X68800000Y28880000D01*
X68000000Y28880000D02*
X68800000Y27680000D01*
X69200000Y27680000D02*
X69600000Y27680000D01*
X69400000Y27680000D02*
X69400000Y28880000D01*
X69200000Y28880000D02*
X69600000Y28880000D01*
X70000000Y27680000D02*
X70400000Y28880000D01*
X70400000Y28880000D02*
X70800000Y27680000D01*
X70200000Y28080000D02*
X70600000Y28080000D01*
X71200000Y27680000D02*
X71600000Y27680000D01*
X71600000Y27680000D02*
X71800000Y27880000D01*
X71800000Y27880000D02*
X71800000Y28680000D01*
X71800000Y28680000D02*
X71600000Y28880000D01*
X71600000Y28880000D02*
X71200000Y28880000D01*
X71200000Y28880000D02*
X71000000Y28680000D01*
X71000000Y28680000D02*
X71000000Y27880000D01*
X71000000Y27880000D02*
X71200000Y27680000D01*
X73800000Y28880000D02*
X73000000Y28880000D01*
X73000000Y28880000D02*
X73000000Y27680000D01*
X73000000Y27680000D02*
X73800000Y27680000D01*
X73000000Y28280000D02*
X73600000Y28280000D01*
X74800000Y28680000D02*
X74600000Y28880000D01*
X74600000Y28880000D02*
X74200000Y28880000D01*
X74200000Y28880000D02*
X74000000Y28680000D01*
X74000000Y28680000D02*
X74000000Y28480000D01*
X74000000Y28480000D02*
X74200000Y28280000D01*
X74200000Y28280000D02*
X74600000Y28280000D01*
X74600000Y28280000D02*
X74800000Y28080000D01*
X74800000Y28080000D02*
X74800000Y27880000D01*
X74800000Y27880000D02*
X74600000Y27680000D01*
X74600000Y27680000D02*
X74200000Y27680000D01*
X74200000Y27680000D02*
X74000000Y27880000D01*
X75000000Y27680000D02*
X75000000Y28880000D01*
X75000000Y28880000D02*
X75600000Y28880000D01*
X75600000Y28880000D02*
X75800000Y28680000D01*
X75800000Y28680000D02*
X75800000Y28480000D01*
X75800000Y28480000D02*
X75600000Y28280000D01*
X75600000Y28280000D02*
X75000000Y28280000D01*
X76000000Y28880000D02*
X76800000Y28880000D01*
X76800000Y28880000D02*
X76400000Y28360000D01*
X76400000Y28360000D02*
X76600000Y28360000D01*
X76600000Y28360000D02*
X76800000Y28160000D01*
X76800000Y28160000D02*
X76800000Y27880000D01*
X76800000Y27880000D02*
X76600000Y27680000D01*
X76600000Y27680000D02*
X76200000Y27680000D01*
X76200000Y27680000D02*
X76000000Y27880000D01*
X77000000Y28680000D02*
X77200000Y28880000D01*
X77200000Y28880000D02*
X77600000Y28880000D01*
X77600000Y28880000D02*
X77800000Y28680000D01*
X77800000Y28680000D02*
X77800000Y28440000D01*
X77800000Y28440000D02*
X77000000Y27680000D01*
X77000000Y27680000D02*
X77800000Y27680000D01*
X78120000Y28280000D02*
X78680000Y28280000D01*
X79800000Y28680000D02*
X79600000Y28880000D01*
X79600000Y28880000D02*
X79200000Y28880000D01*
X79200000Y28880000D02*
X79000000Y28680000D01*
X79000000Y28680000D02*
X79000000Y27880000D01*
X79000000Y27880000D02*
X79200000Y27680000D01*
X79200000Y27680000D02*
X79600000Y27680000D01*
X79600000Y27680000D02*
X79800000Y27880000D01*
X80800000Y28680000D02*
X80600000Y28880000D01*
X80600000Y28880000D02*
X80200000Y28880000D01*
X80200000Y28880000D02*
X80000000Y28680000D01*
X80000000Y28680000D02*
X80000000Y27880000D01*
X80000000Y27880000D02*
X80200000Y27680000D01*
X80200000Y27680000D02*
X80600000Y27680000D01*
X80600000Y27680000D02*
X80800000Y27880000D01*
X80800000Y27880000D02*
X80800000Y28080000D01*
X80800000Y28080000D02*
X80600000Y28280000D01*
X80600000Y28280000D02*
X80200000Y28280000D01*
X80200000Y28280000D02*
X80000000Y28080000D01*
D10*
X69187500Y26705000D02*
X69187500Y25996667D01*
X69187500Y25996667D02*
X69329167Y25855000D01*
X69329167Y25855000D02*
X69612500Y25855000D01*
X69612500Y25855000D02*
X69754167Y25996667D01*
X69754167Y25996667D02*
X69754167Y26705000D01*
X70462500Y26563333D02*
X70320833Y26705000D01*
X70320833Y26705000D02*
X70037500Y26705000D01*
X70037500Y26705000D02*
X69895833Y26563333D01*
X69895833Y26563333D02*
X69895833Y26421667D01*
X69895833Y26421667D02*
X70037500Y26280000D01*
X70037500Y26280000D02*
X70320833Y26280000D01*
X70320833Y26280000D02*
X70462500Y26138333D01*
X70462500Y26138333D02*
X70462500Y25996667D01*
X70462500Y25996667D02*
X70320833Y25855000D01*
X70320833Y25855000D02*
X70037500Y25855000D01*
X70037500Y25855000D02*
X69895833Y25996667D01*
X70604167Y25855000D02*
X70604167Y26705000D01*
X70604167Y26705000D02*
X71029167Y26705000D01*
X71029167Y26705000D02*
X71170833Y26563333D01*
X71170833Y26563333D02*
X71170833Y26421667D01*
X71170833Y26421667D02*
X71029167Y26280000D01*
X71029167Y26280000D02*
X70604167Y26280000D01*
X71029167Y26280000D02*
X71170833Y26138333D01*
X71170833Y26138333D02*
X71170833Y25996667D01*
X71170833Y25996667D02*
X71029167Y25855000D01*
X71029167Y25855000D02*
X70604167Y25855000D01*
X71397500Y26280000D02*
X71794167Y26280000D01*
X72587500Y26563333D02*
X72445833Y26705000D01*
X72445833Y26705000D02*
X72162500Y26705000D01*
X72162500Y26705000D02*
X72020833Y26563333D01*
X72020833Y26563333D02*
X72020833Y25996667D01*
X72020833Y25996667D02*
X72162500Y25855000D01*
X72162500Y25855000D02*
X72445833Y25855000D01*
X72445833Y25855000D02*
X72587500Y25996667D01*
X74230833Y26280000D02*
X74627500Y26280000D01*
X74939167Y26563333D02*
X75364167Y26280000D01*
X75364167Y26280000D02*
X74939167Y25996667D01*
X77545833Y26705000D02*
X76979167Y26705000D01*
X76979167Y26705000D02*
X76979167Y25855000D01*
X76979167Y25855000D02*
X77545833Y25855000D01*
X76979167Y26280000D02*
X77404167Y26280000D01*
X77687500Y25855000D02*
X77970833Y26705000D01*
X77970833Y26705000D02*
X78254167Y25855000D01*
X77829167Y26138333D02*
X78112500Y26138333D01*
X78962500Y26563333D02*
X78820833Y26705000D01*
X78820833Y26705000D02*
X78537500Y26705000D01*
X78537500Y26705000D02*
X78395833Y26563333D01*
X78395833Y26563333D02*
X78395833Y26421667D01*
X78395833Y26421667D02*
X78537500Y26280000D01*
X78537500Y26280000D02*
X78820833Y26280000D01*
X78820833Y26280000D02*
X78962500Y26138333D01*
X78962500Y26138333D02*
X78962500Y25996667D01*
X78962500Y25996667D02*
X78820833Y25855000D01*
X78820833Y25855000D02*
X78537500Y25855000D01*
X78537500Y25855000D02*
X78395833Y25996667D01*
X79104167Y26705000D02*
X79670833Y26705000D01*
X79387500Y26705000D02*
X79387500Y25855000D01*
X42366667Y19154167D02*
X42225000Y19012500D01*
X42225000Y19012500D02*
X42225000Y18729167D01*
X42225000Y18729167D02*
X42366667Y18587500D01*
X42366667Y18587500D02*
X42933333Y18587500D01*
X42933333Y18587500D02*
X43075000Y18729167D01*
X43075000Y18729167D02*
X43075000Y19012500D01*
X43075000Y19012500D02*
X42933333Y19154167D01*
X42933333Y19154167D02*
X42650000Y19154167D01*
X42650000Y19154167D02*
X42650000Y18870833D01*
X43075000Y19295833D02*
X42225000Y19295833D01*
X42225000Y19295833D02*
X43075000Y19862500D01*
X43075000Y19862500D02*
X42225000Y19862500D01*
X43075000Y20004167D02*
X42225000Y20004167D01*
X42225000Y20004167D02*
X42225000Y20429167D01*
X42225000Y20429167D02*
X42366667Y20570833D01*
X42366667Y20570833D02*
X42933333Y20570833D01*
X42933333Y20570833D02*
X43075000Y20429167D01*
X43075000Y20429167D02*
X43075000Y20004167D01*
X45615000Y18233333D02*
X44765000Y18233333D01*
X44765000Y18233333D02*
X45190000Y18516667D01*
X45190000Y18516667D02*
X44765000Y18800000D01*
X44765000Y18800000D02*
X45615000Y18800000D01*
X45615000Y19083333D02*
X45615000Y19366667D01*
X45615000Y19225000D02*
X44765000Y19225000D01*
X44765000Y19083333D02*
X44765000Y19366667D01*
X44906667Y20216667D02*
X44765000Y20075000D01*
X44765000Y20075000D02*
X44765000Y19791667D01*
X44765000Y19791667D02*
X44906667Y19650000D01*
X44906667Y19650000D02*
X45048333Y19650000D01*
X45048333Y19650000D02*
X45190000Y19791667D01*
X45190000Y19791667D02*
X45190000Y20075000D01*
X45190000Y20075000D02*
X45331667Y20216667D01*
X45331667Y20216667D02*
X45473333Y20216667D01*
X45473333Y20216667D02*
X45615000Y20075000D01*
X45615000Y20075000D02*
X45615000Y19791667D01*
X45615000Y19791667D02*
X45473333Y19650000D01*
X45615000Y20500000D02*
X45615000Y20783333D01*
X45615000Y20783333D02*
X45473333Y20925000D01*
X45473333Y20925000D02*
X44906667Y20925000D01*
X44906667Y20925000D02*
X44765000Y20783333D01*
X44765000Y20783333D02*
X44765000Y20500000D01*
X44765000Y20500000D02*
X44906667Y20358333D01*
X44906667Y20358333D02*
X45473333Y20358333D01*
X45473333Y20358333D02*
X45615000Y20500000D01*
X47446667Y19154167D02*
X47305000Y19012500D01*
X47305000Y19012500D02*
X47305000Y18729167D01*
X47305000Y18729167D02*
X47446667Y18587500D01*
X47446667Y18587500D02*
X48013333Y18587500D01*
X48013333Y18587500D02*
X48155000Y18729167D01*
X48155000Y18729167D02*
X48155000Y19012500D01*
X48155000Y19012500D02*
X48013333Y19154167D01*
X47305000Y19295833D02*
X48155000Y19295833D01*
X48155000Y19295833D02*
X48155000Y19862500D01*
X48155000Y20004167D02*
X47305000Y20004167D01*
X47305000Y20570833D02*
X47758333Y20032500D01*
X47588333Y20230833D02*
X48155000Y20570833D01*
X50695000Y18233333D02*
X49845000Y18233333D01*
X49845000Y18233333D02*
X50270000Y18516667D01*
X50270000Y18516667D02*
X49845000Y18800000D01*
X49845000Y18800000D02*
X50695000Y18800000D01*
X50695000Y19083333D02*
X50695000Y19366667D01*
X50695000Y19366667D02*
X50553333Y19508333D01*
X50553333Y19508333D02*
X49986667Y19508333D01*
X49986667Y19508333D02*
X49845000Y19366667D01*
X49845000Y19366667D02*
X49845000Y19083333D01*
X49845000Y19083333D02*
X49986667Y18941667D01*
X49986667Y18941667D02*
X50553333Y18941667D01*
X50553333Y18941667D02*
X50695000Y19083333D01*
X49986667Y20216667D02*
X49845000Y20075000D01*
X49845000Y20075000D02*
X49845000Y19791667D01*
X49845000Y19791667D02*
X49986667Y19650000D01*
X49986667Y19650000D02*
X50128333Y19650000D01*
X50128333Y19650000D02*
X50270000Y19791667D01*
X50270000Y19791667D02*
X50270000Y20075000D01*
X50270000Y20075000D02*
X50411667Y20216667D01*
X50411667Y20216667D02*
X50553333Y20216667D01*
X50553333Y20216667D02*
X50695000Y20075000D01*
X50695000Y20075000D02*
X50695000Y19791667D01*
X50695000Y19791667D02*
X50553333Y19650000D01*
X50695000Y20500000D02*
X50695000Y20783333D01*
X50695000Y20641667D02*
X49845000Y20641667D01*
X49845000Y20500000D02*
X49845000Y20783333D01*
X52526667Y19508333D02*
X52385000Y19366667D01*
X52385000Y19366667D02*
X52385000Y19083333D01*
X52385000Y19083333D02*
X52526667Y18941667D01*
X52526667Y18941667D02*
X53093333Y18941667D01*
X53093333Y18941667D02*
X53235000Y19083333D01*
X53235000Y19083333D02*
X53235000Y19366667D01*
X53235000Y19366667D02*
X53093333Y19508333D01*
X52526667Y20216667D02*
X52385000Y20075000D01*
X52385000Y20075000D02*
X52385000Y19791667D01*
X52385000Y19791667D02*
X52526667Y19650000D01*
X52526667Y19650000D02*
X52668333Y19650000D01*
X52668333Y19650000D02*
X52810000Y19791667D01*
X52810000Y19791667D02*
X52810000Y20075000D01*
X52810000Y20075000D02*
X52951667Y20216667D01*
X52951667Y20216667D02*
X53093333Y20216667D01*
X53093333Y20216667D02*
X53235000Y20075000D01*
X53235000Y20075000D02*
X53235000Y19791667D01*
X53235000Y19791667D02*
X53093333Y19650000D01*
X54925000Y18587500D02*
X54925000Y19154167D01*
X54925000Y19154167D02*
X55293333Y18870833D01*
X55293333Y18870833D02*
X55293333Y19012500D01*
X55293333Y19012500D02*
X55435000Y19154167D01*
X55435000Y19154167D02*
X55633333Y19154167D01*
X55633333Y19154167D02*
X55775000Y19012500D01*
X55775000Y19012500D02*
X55775000Y18729167D01*
X55775000Y18729167D02*
X55633333Y18587500D01*
X54925000Y19295833D02*
X55775000Y19579167D01*
X55775000Y19579167D02*
X54925000Y19862500D01*
X54925000Y20004167D02*
X54925000Y20570833D01*
X54925000Y20570833D02*
X55293333Y20287500D01*
X55293333Y20287500D02*
X55293333Y20429167D01*
X55293333Y20429167D02*
X55435000Y20570833D01*
X55435000Y20570833D02*
X55633333Y20570833D01*
X55633333Y20570833D02*
X55775000Y20429167D01*
X55775000Y20429167D02*
X55775000Y20145833D01*
X55775000Y20145833D02*
X55633333Y20004167D01*
D11*
X39000000Y20000000D02*
X40200000Y20000000D01*
X41400000Y20000000D02*
X42600000Y20000000D01*
X43800000Y20000000D02*
X45000000Y20000000D01*
X46200000Y20000000D02*
X47400000Y20000000D01*
X48600000Y20000000D02*
X49800000Y20000000D01*
X51000000Y20000000D02*
X52200000Y20000000D01*
X53400000Y20000000D02*
X54600000Y20000000D01*
X55800000Y20000000D02*
X57000000Y20000000D01*
X58200000Y20000000D02*
X59400000Y20000000D01*
X60600000Y20000000D02*
X61800000Y20000000D01*
X63000000Y20000000D02*
X63000000Y21200000D01*
X63000000Y22400000D02*
X63000000Y23600000D01*
X63000000Y24800000D02*
X63000000Y26000000D01*
X63000000Y27200000D02*
X63000000Y28400000D01*
X63000000Y29600000D02*
X63000000Y30800000D01*
X63000000Y32000000D02*
X63000000Y33200000D01*
X63000000Y34400000D02*
X63000000Y35600000D01*
X63000000Y36800000D02*
X63000000Y38000000D01*
X63000000Y39200000D02*
X63000000Y40400000D01*
X63000000Y42000000D02*
X61800000Y42000000D01*
X60600000Y42000000D02*
X59400000Y42000000D01*
X58200000Y42000000D02*
X57000000Y42000000D01*
X55800000Y42000000D02*
X54600000Y42000000D01*
X53400000Y42000000D02*
X52200000Y42000000D01*
X51000000Y42000000D02*
X49800000Y42000000D01*
X48600000Y42000000D02*
X47400000Y42000000D01*
X46200000Y42000000D02*
X45000000Y42000000D01*
X43800000Y42000000D02*
X42600000Y42000000D01*
X41400000Y42000000D02*
X40200000Y42000000D01*
X39000000Y42000000D02*
X39000000Y40800000D01*
X39000000Y39600000D02*
X39000000Y38400000D01*
X39000000Y37200000D02*
X39000000Y36000000D01*
X39000000Y34800000D02*
X39000000Y33600000D01*
X39000000Y32400000D02*
X39000000Y31200000D01*
X39000000Y30000000D02*
X39000000Y28800000D01*
X39000000Y27600000D02*
X39000000Y26400000D01*
X39000000Y25200000D02*
X39000000Y24000000D01*
X39000000Y22800000D02*
X39000000Y21600000D01*
D14*
X43000000Y38800000D02*
X43000000Y40000000D01*
X43000000Y40000000D02*
X43400000Y39400000D01*
X43400000Y39400000D02*
X43800000Y40000000D01*
X43800000Y40000000D02*
X43800000Y38800000D01*
X44200000Y38800000D02*
X44600000Y38800000D01*
X44400000Y38800000D02*
X44400000Y40000000D01*
X44200000Y40000000D02*
X44600000Y40000000D01*
X45800000Y39800000D02*
X45600000Y40000000D01*
X45600000Y40000000D02*
X45200000Y40000000D01*
X45200000Y40000000D02*
X45000000Y39800000D01*
X45000000Y39800000D02*
X45000000Y39000000D01*
X45000000Y39000000D02*
X45200000Y38800000D01*
X45200000Y38800000D02*
X45600000Y38800000D01*
X45600000Y38800000D02*
X45800000Y39000000D01*
X46000000Y38800000D02*
X46000000Y40000000D01*
X46000000Y40000000D02*
X46600000Y40000000D01*
X46600000Y40000000D02*
X46800000Y39800000D01*
X46800000Y39800000D02*
X46800000Y39600000D01*
X46800000Y39600000D02*
X46600000Y39400000D01*
X46600000Y39400000D02*
X46000000Y39400000D01*
X46400000Y39400000D02*
X46800000Y38800000D01*
X47200000Y38800000D02*
X47600000Y38800000D01*
X47600000Y38800000D02*
X47800000Y39000000D01*
X47800000Y39000000D02*
X47800000Y39800000D01*
X47800000Y39800000D02*
X47600000Y40000000D01*
X47600000Y40000000D02*
X47200000Y40000000D01*
X47200000Y40000000D02*
X47000000Y39800000D01*
X47000000Y39800000D02*
X47000000Y39000000D01*
X47000000Y39000000D02*
X47200000Y38800000D01*
X48800000Y39800000D02*
X48600000Y40000000D01*
X48600000Y40000000D02*
X48200000Y40000000D01*
X48200000Y40000000D02*
X48000000Y39800000D01*
X48000000Y39800000D02*
X48000000Y39600000D01*
X48000000Y39600000D02*
X48200000Y39400000D01*
X48200000Y39400000D02*
X48600000Y39400000D01*
X48600000Y39400000D02*
X48800000Y39200000D01*
X48800000Y39200000D02*
X48800000Y39000000D01*
X48800000Y39000000D02*
X48600000Y38800000D01*
X48600000Y38800000D02*
X48200000Y38800000D01*
X48200000Y38800000D02*
X48000000Y39000000D01*
X49000000Y38800000D02*
X49000000Y40000000D01*
X49000000Y40000000D02*
X49600000Y40000000D01*
X49600000Y40000000D02*
X49800000Y39800000D01*
X49800000Y39800000D02*
X49800000Y39000000D01*
X49800000Y39000000D02*
X49600000Y38800000D01*
X49600000Y38800000D02*
X49000000Y38800000D01*
X51000000Y38800000D02*
X51000000Y40000000D01*
X51000000Y40000000D02*
X51600000Y40000000D01*
X51600000Y40000000D02*
X51800000Y39800000D01*
X51800000Y39800000D02*
X51800000Y39600000D01*
X51800000Y39600000D02*
X51600000Y39400000D01*
X51600000Y39400000D02*
X51000000Y39400000D01*
X51600000Y39400000D02*
X51800000Y39200000D01*
X51800000Y39200000D02*
X51800000Y39000000D01*
X51800000Y39000000D02*
X51600000Y38800000D01*
X51600000Y38800000D02*
X51000000Y38800000D01*
X52000000Y38800000D02*
X52000000Y40000000D01*
X52000000Y40000000D02*
X52600000Y40000000D01*
X52600000Y40000000D02*
X52800000Y39800000D01*
X52800000Y39800000D02*
X52800000Y39600000D01*
X52800000Y39600000D02*
X52600000Y39400000D01*
X52600000Y39400000D02*
X52000000Y39400000D01*
X52400000Y39400000D02*
X52800000Y38800000D01*
X53800000Y40000000D02*
X53000000Y40000000D01*
X53000000Y40000000D02*
X53000000Y38800000D01*
X53000000Y38800000D02*
X53800000Y38800000D01*
X53000000Y39400000D02*
X53600000Y39400000D01*
X54000000Y38800000D02*
X54400000Y40000000D01*
X54400000Y40000000D02*
X54800000Y38800000D01*
X54200000Y39200000D02*
X54600000Y39200000D01*
X55000000Y38800000D02*
X55000000Y40000000D01*
X55800000Y40000000D02*
X55040000Y39360000D01*
X55320000Y39600000D02*
X55800000Y38800000D01*
X56200000Y38800000D02*
X56600000Y38800000D01*
X56600000Y38800000D02*
X56800000Y39000000D01*
X56800000Y39000000D02*
X56800000Y39800000D01*
X56800000Y39800000D02*
X56600000Y40000000D01*
X56600000Y40000000D02*
X56200000Y40000000D01*
X56200000Y40000000D02*
X56000000Y39800000D01*
X56000000Y39800000D02*
X56000000Y39000000D01*
X56000000Y39000000D02*
X56200000Y38800000D01*
X57000000Y40000000D02*
X57000000Y39000000D01*
X57000000Y39000000D02*
X57200000Y38800000D01*
X57200000Y38800000D02*
X57600000Y38800000D01*
X57600000Y38800000D02*
X57800000Y39000000D01*
X57800000Y39000000D02*
X57800000Y40000000D01*
X58000000Y40000000D02*
X58800000Y40000000D01*
X58400000Y40000000D02*
X58400000Y38800000D01*
D11*
X41666667Y37000000D02*
X41666667Y37800000D01*
X41666667Y37800000D02*
X41933333Y37400000D01*
X41933333Y37400000D02*
X42200000Y37800000D01*
X42200000Y37800000D02*
X42200000Y37000000D01*
X42466667Y37000000D02*
X42733333Y37000000D01*
X42733333Y37000000D02*
X42866667Y37133333D01*
X42866667Y37133333D02*
X42866667Y37666667D01*
X42866667Y37666667D02*
X42733333Y37800000D01*
X42733333Y37800000D02*
X42466667Y37800000D01*
X42466667Y37800000D02*
X42333333Y37666667D01*
X42333333Y37666667D02*
X42333333Y37133333D01*
X42333333Y37133333D02*
X42466667Y37000000D01*
X43000000Y37000000D02*
X43000000Y37800000D01*
X43000000Y37800000D02*
X43400000Y37800000D01*
X43400000Y37800000D02*
X43533333Y37666667D01*
X43533333Y37666667D02*
X43533333Y37133333D01*
X43533333Y37133333D02*
X43400000Y37000000D01*
X43400000Y37000000D02*
X43000000Y37000000D01*
X43666667Y37800000D02*
X43666667Y37133333D01*
X43666667Y37133333D02*
X43800000Y37000000D01*
X43800000Y37000000D02*
X44066667Y37000000D01*
X44066667Y37000000D02*
X44200000Y37133333D01*
X44200000Y37133333D02*
X44200000Y37800000D01*
X44333333Y37800000D02*
X44333333Y37000000D01*
X44333333Y37000000D02*
X44866667Y37000000D01*
X45533333Y37800000D02*
X45000000Y37800000D01*
X45000000Y37800000D02*
X45000000Y37000000D01*
X45000000Y37000000D02*
X45533333Y37000000D01*
X45000000Y37400000D02*
X45400000Y37400000D01*
X46333333Y37000000D02*
X46333333Y37800000D01*
X46333333Y37800000D02*
X46733333Y37800000D01*
X46733333Y37800000D02*
X46866667Y37666667D01*
X46866667Y37666667D02*
X46866667Y37533333D01*
X46866667Y37533333D02*
X46733333Y37400000D01*
X46733333Y37400000D02*
X46333333Y37400000D01*
X46733333Y37400000D02*
X46866667Y37266667D01*
X46866667Y37266667D02*
X46866667Y37133333D01*
X46866667Y37133333D02*
X46733333Y37000000D01*
X46733333Y37000000D02*
X46333333Y37000000D01*
X47133333Y37000000D02*
X47400000Y37000000D01*
X47400000Y37000000D02*
X47533333Y37133333D01*
X47533333Y37133333D02*
X47533333Y37666667D01*
X47533333Y37666667D02*
X47400000Y37800000D01*
X47400000Y37800000D02*
X47133333Y37800000D01*
X47133333Y37800000D02*
X47000000Y37666667D01*
X47000000Y37666667D02*
X47000000Y37133333D01*
X47000000Y37133333D02*
X47133333Y37000000D01*
X47666667Y37000000D02*
X47666667Y37800000D01*
X47666667Y37800000D02*
X48066667Y37800000D01*
X48066667Y37800000D02*
X48200000Y37666667D01*
X48200000Y37666667D02*
X48200000Y37133333D01*
X48200000Y37133333D02*
X48066667Y37000000D01*
X48066667Y37000000D02*
X47666667Y37000000D01*
X48333333Y37800000D02*
X48600000Y37400000D01*
X48600000Y37400000D02*
X48866667Y37800000D01*
X48600000Y37400000D02*
X48600000Y37000000D01*
X50200000Y37666667D02*
X50066667Y37800000D01*
X50066667Y37800000D02*
X49800000Y37800000D01*
X49800000Y37800000D02*
X49666667Y37666667D01*
X49666667Y37666667D02*
X49666667Y37533333D01*
X49666667Y37533333D02*
X49800000Y37400000D01*
X49800000Y37400000D02*
X50066667Y37400000D01*
X50066667Y37400000D02*
X50200000Y37266667D01*
X50200000Y37266667D02*
X50200000Y37133333D01*
X50200000Y37133333D02*
X50066667Y37000000D01*
X50066667Y37000000D02*
X49800000Y37000000D01*
X49800000Y37000000D02*
X49666667Y37133333D01*
X50466667Y37000000D02*
X50733333Y37000000D01*
X50600000Y37000000D02*
X50600000Y37800000D01*
X50466667Y37800000D02*
X50733333Y37800000D01*
X51000000Y37800000D02*
X51533333Y37800000D01*
X51266667Y37800000D02*
X51266667Y37000000D01*
X52200000Y37666667D02*
X52066667Y37800000D01*
X52066667Y37800000D02*
X51800000Y37800000D01*
X51800000Y37800000D02*
X51666667Y37666667D01*
X51666667Y37666667D02*
X51666667Y37533333D01*
X51666667Y37533333D02*
X51800000Y37400000D01*
X51800000Y37400000D02*
X52066667Y37400000D01*
X52066667Y37400000D02*
X52200000Y37266667D01*
X52200000Y37266667D02*
X52200000Y37133333D01*
X52200000Y37133333D02*
X52066667Y37000000D01*
X52066667Y37000000D02*
X51800000Y37000000D01*
X51800000Y37000000D02*
X51666667Y37133333D01*
X53133333Y37000000D02*
X53400000Y37000000D01*
X53266667Y37000000D02*
X53266667Y37800000D01*
X53133333Y37800000D02*
X53400000Y37800000D01*
X53666667Y37000000D02*
X53666667Y37800000D01*
X53666667Y37800000D02*
X54200000Y37000000D01*
X54200000Y37000000D02*
X54200000Y37800000D01*
X55000000Y37800000D02*
X55533333Y37800000D01*
X55266667Y37800000D02*
X55266667Y37000000D01*
X55666667Y37000000D02*
X55666667Y37800000D01*
X56200000Y37000000D02*
X56200000Y37800000D01*
X55666667Y37400000D02*
X56200000Y37400000D01*
X56466667Y37000000D02*
X56733333Y37000000D01*
X56600000Y37000000D02*
X56600000Y37800000D01*
X56466667Y37800000D02*
X56733333Y37800000D01*
X57533333Y37666667D02*
X57400000Y37800000D01*
X57400000Y37800000D02*
X57133333Y37800000D01*
X57133333Y37800000D02*
X57000000Y37666667D01*
X57000000Y37666667D02*
X57000000Y37533333D01*
X57000000Y37533333D02*
X57133333Y37400000D01*
X57133333Y37400000D02*
X57400000Y37400000D01*
X57400000Y37400000D02*
X57533333Y37266667D01*
X57533333Y37266667D02*
X57533333Y37133333D01*
X57533333Y37133333D02*
X57400000Y37000000D01*
X57400000Y37000000D02*
X57133333Y37000000D01*
X57133333Y37000000D02*
X57000000Y37133333D01*
X58333333Y37000000D02*
X58333333Y37800000D01*
X58333333Y37800000D02*
X58733333Y37800000D01*
X58733333Y37800000D02*
X58866667Y37666667D01*
X58866667Y37666667D02*
X58866667Y37533333D01*
X58866667Y37533333D02*
X58733333Y37400000D01*
X58733333Y37400000D02*
X58333333Y37400000D01*
X58733333Y37400000D02*
X58866667Y37266667D01*
X58866667Y37266667D02*
X58866667Y37133333D01*
X58866667Y37133333D02*
X58733333Y37000000D01*
X58733333Y37000000D02*
X58333333Y37000000D01*
X59133333Y37000000D02*
X59400000Y37000000D01*
X59400000Y37000000D02*
X59533333Y37133333D01*
X59533333Y37133333D02*
X59533333Y37666667D01*
X59533333Y37666667D02*
X59400000Y37800000D01*
X59400000Y37800000D02*
X59133333Y37800000D01*
X59133333Y37800000D02*
X59000000Y37666667D01*
X59000000Y37666667D02*
X59000000Y37133333D01*
X59000000Y37133333D02*
X59133333Y37000000D01*
X59666667Y37000000D02*
X60200000Y37800000D01*
X59666667Y37800000D02*
X60200000Y37000000D01*
X41725000Y36150000D02*
X41538333Y35940000D01*
X41538333Y35940000D02*
X41538333Y35660000D01*
X41538333Y35660000D02*
X41725000Y35450000D01*
X41958333Y36033333D02*
X42075000Y36150000D01*
X42075000Y36150000D02*
X42308333Y36150000D01*
X42308333Y36150000D02*
X42425000Y36033333D01*
X42425000Y36033333D02*
X42425000Y35893333D01*
X42425000Y35893333D02*
X41958333Y35450000D01*
X41958333Y35450000D02*
X42425000Y35450000D01*
X42891667Y35450000D02*
X42891667Y36150000D01*
X42891667Y36150000D02*
X42541667Y35660000D01*
X42541667Y35660000D02*
X43008333Y35660000D01*
X43708333Y35450000D02*
X44175000Y36150000D01*
X43708333Y36150000D02*
X44175000Y35450000D01*
X44875000Y36033333D02*
X44991667Y36150000D01*
X44991667Y36150000D02*
X45225000Y36150000D01*
X45225000Y36150000D02*
X45341667Y36033333D01*
X45341667Y36033333D02*
X45341667Y35893333D01*
X45341667Y35893333D02*
X44875000Y35450000D01*
X44875000Y35450000D02*
X45341667Y35450000D01*
X45458333Y36033333D02*
X45575000Y36150000D01*
X45575000Y36150000D02*
X45808333Y36150000D01*
X45808333Y36150000D02*
X45925000Y36033333D01*
X45925000Y36033333D02*
X45925000Y35893333D01*
X45925000Y35893333D02*
X45458333Y35450000D01*
X45458333Y35450000D02*
X45925000Y35450000D01*
X46625000Y35450000D02*
X46625000Y36150000D01*
X46625000Y36150000D02*
X46975000Y36150000D01*
X46975000Y36150000D02*
X47091667Y36033333D01*
X47091667Y36033333D02*
X47091667Y35916667D01*
X47091667Y35916667D02*
X46975000Y35800000D01*
X46975000Y35800000D02*
X46625000Y35800000D01*
X46858333Y35800000D02*
X47091667Y35450000D01*
X47675000Y36150000D02*
X47208333Y36150000D01*
X47208333Y36150000D02*
X47208333Y35450000D01*
X47208333Y35450000D02*
X47675000Y35450000D01*
X47208333Y35800000D02*
X47558333Y35800000D01*
X48258333Y36033333D02*
X48141667Y36150000D01*
X48141667Y36150000D02*
X47908333Y36150000D01*
X47908333Y36150000D02*
X47791667Y36033333D01*
X47791667Y36033333D02*
X47791667Y35916667D01*
X47791667Y35916667D02*
X47908333Y35800000D01*
X47908333Y35800000D02*
X48141667Y35800000D01*
X48141667Y35800000D02*
X48258333Y35683333D01*
X48258333Y35683333D02*
X48258333Y35566667D01*
X48258333Y35566667D02*
X48141667Y35450000D01*
X48141667Y35450000D02*
X47908333Y35450000D01*
X47908333Y35450000D02*
X47791667Y35566667D01*
X48841667Y36150000D02*
X48375000Y36150000D01*
X48375000Y36150000D02*
X48375000Y35450000D01*
X48375000Y35450000D02*
X48841667Y35450000D01*
X48375000Y35800000D02*
X48725000Y35800000D01*
X48958333Y35450000D02*
X48958333Y36150000D01*
X48958333Y36150000D02*
X49308333Y36150000D01*
X49308333Y36150000D02*
X49425000Y36033333D01*
X49425000Y36033333D02*
X49425000Y35916667D01*
X49425000Y35916667D02*
X49308333Y35800000D01*
X49308333Y35800000D02*
X48958333Y35800000D01*
X49191667Y35800000D02*
X49425000Y35450000D01*
X49541667Y36150000D02*
X49775000Y35450000D01*
X49775000Y35450000D02*
X50008333Y36150000D01*
X50591667Y36150000D02*
X50125000Y36150000D01*
X50125000Y36150000D02*
X50125000Y35450000D01*
X50125000Y35450000D02*
X50591667Y35450000D01*
X50125000Y35800000D02*
X50475000Y35800000D01*
X50708333Y35450000D02*
X50708333Y36150000D01*
X50708333Y36150000D02*
X51058333Y36150000D01*
X51058333Y36150000D02*
X51175000Y36033333D01*
X51175000Y36033333D02*
X51175000Y35566667D01*
X51175000Y35566667D02*
X51058333Y35450000D01*
X51058333Y35450000D02*
X50708333Y35450000D01*
X51945000Y35800000D02*
X52271667Y35800000D01*
X53041667Y35450000D02*
X53041667Y36150000D01*
X53041667Y36150000D02*
X53275000Y35800000D01*
X53275000Y35800000D02*
X53508333Y36150000D01*
X53508333Y36150000D02*
X53508333Y35450000D01*
X53625000Y35450000D02*
X53858333Y36150000D01*
X53858333Y36150000D02*
X54091667Y35450000D01*
X53741667Y35683333D02*
X53975000Y35683333D01*
X54208333Y36150000D02*
X54441667Y35800000D01*
X54441667Y35800000D02*
X54675000Y36150000D01*
X54441667Y35800000D02*
X54441667Y35450000D01*
X55491667Y35450000D02*
X55725000Y35450000D01*
X55725000Y35450000D02*
X55841667Y35566667D01*
X55841667Y35566667D02*
X55841667Y36033333D01*
X55841667Y36033333D02*
X55725000Y36150000D01*
X55725000Y36150000D02*
X55491667Y36150000D01*
X55491667Y36150000D02*
X55375000Y36033333D01*
X55375000Y36033333D02*
X55375000Y35566667D01*
X55375000Y35566667D02*
X55491667Y35450000D01*
X55958333Y36150000D02*
X56191667Y35450000D01*
X56191667Y35450000D02*
X56425000Y36150000D01*
X57008333Y36150000D02*
X56541667Y36150000D01*
X56541667Y36150000D02*
X56541667Y35450000D01*
X56541667Y35450000D02*
X57008333Y35450000D01*
X56541667Y35800000D02*
X56891667Y35800000D01*
X57125000Y35450000D02*
X57125000Y36150000D01*
X57125000Y36150000D02*
X57475000Y36150000D01*
X57475000Y36150000D02*
X57591667Y36033333D01*
X57591667Y36033333D02*
X57591667Y35916667D01*
X57591667Y35916667D02*
X57475000Y35800000D01*
X57475000Y35800000D02*
X57125000Y35800000D01*
X57358333Y35800000D02*
X57591667Y35450000D01*
X57708333Y35450000D02*
X57708333Y36150000D01*
X58175000Y35450000D02*
X58175000Y36150000D01*
X57708333Y35800000D02*
X58175000Y35800000D01*
X58291667Y35450000D02*
X58525000Y36150000D01*
X58525000Y36150000D02*
X58758333Y35450000D01*
X58408333Y35683333D02*
X58641667Y35683333D01*
X58875000Y35450000D02*
X58875000Y36150000D01*
X58875000Y36150000D02*
X59341667Y35450000D01*
X59341667Y35450000D02*
X59341667Y36150000D01*
X59925000Y36033333D02*
X59808333Y36150000D01*
X59808333Y36150000D02*
X59575000Y36150000D01*
X59575000Y36150000D02*
X59458333Y36033333D01*
X59458333Y36033333D02*
X59458333Y35566667D01*
X59458333Y35566667D02*
X59575000Y35450000D01*
X59575000Y35450000D02*
X59808333Y35450000D01*
X59808333Y35450000D02*
X59925000Y35566667D01*
X59925000Y35566667D02*
X59925000Y35800000D01*
X59925000Y35800000D02*
X59691667Y35800000D01*
X60158333Y36150000D02*
X60345000Y35940000D01*
X60345000Y35940000D02*
X60345000Y35660000D01*
X60345000Y35660000D02*
X60158333Y35450000D01*
D10*
X57716667Y50154167D02*
X57575000Y50012500D01*
X57575000Y50012500D02*
X57575000Y49729167D01*
X57575000Y49729167D02*
X57716667Y49587500D01*
X57716667Y49587500D02*
X58283333Y49587500D01*
X58283333Y49587500D02*
X58425000Y49729167D01*
X58425000Y49729167D02*
X58425000Y50012500D01*
X58425000Y50012500D02*
X58283333Y50154167D01*
X58283333Y50154167D02*
X58000000Y50154167D01*
X58000000Y50154167D02*
X58000000Y49870833D01*
X58425000Y50295833D02*
X57575000Y50295833D01*
X57575000Y50295833D02*
X58425000Y50862500D01*
X58425000Y50862500D02*
X57575000Y50862500D01*
X58425000Y51004167D02*
X57575000Y51004167D01*
X57575000Y51004167D02*
X57575000Y51429167D01*
X57575000Y51429167D02*
X57716667Y51570833D01*
X57716667Y51570833D02*
X58283333Y51570833D01*
X58283333Y51570833D02*
X58425000Y51429167D01*
X58425000Y51429167D02*
X58425000Y51004167D01*
X60115000Y49587500D02*
X60115000Y50154167D01*
X60115000Y50154167D02*
X60483333Y49870833D01*
X60483333Y49870833D02*
X60483333Y50012500D01*
X60483333Y50012500D02*
X60625000Y50154167D01*
X60625000Y50154167D02*
X60823333Y50154167D01*
X60823333Y50154167D02*
X60965000Y50012500D01*
X60965000Y50012500D02*
X60965000Y49729167D01*
X60965000Y49729167D02*
X60823333Y49587500D01*
X60115000Y50295833D02*
X60965000Y50579167D01*
X60965000Y50579167D02*
X60115000Y50862500D01*
X60115000Y51004167D02*
X60115000Y51570833D01*
X60115000Y51570833D02*
X60483333Y51287500D01*
X60483333Y51287500D02*
X60483333Y51429167D01*
X60483333Y51429167D02*
X60625000Y51570833D01*
X60625000Y51570833D02*
X60823333Y51570833D01*
X60823333Y51570833D02*
X60965000Y51429167D01*
X60965000Y51429167D02*
X60965000Y51145833D01*
X60965000Y51145833D02*
X60823333Y51004167D01*
X62796667Y50154167D02*
X62655000Y50012500D01*
X62655000Y50012500D02*
X62655000Y49729167D01*
X62655000Y49729167D02*
X62796667Y49587500D01*
X62796667Y49587500D02*
X62938333Y49587500D01*
X62938333Y49587500D02*
X63080000Y49729167D01*
X63080000Y49729167D02*
X63080000Y50012500D01*
X63080000Y50012500D02*
X63221667Y50154167D01*
X63221667Y50154167D02*
X63363333Y50154167D01*
X63363333Y50154167D02*
X63505000Y50012500D01*
X63505000Y50012500D02*
X63505000Y49729167D01*
X63505000Y49729167D02*
X63363333Y49587500D01*
X62796667Y50862500D02*
X62655000Y50720833D01*
X62655000Y50720833D02*
X62655000Y50437500D01*
X62655000Y50437500D02*
X62796667Y50295833D01*
X62796667Y50295833D02*
X63363333Y50295833D01*
X63363333Y50295833D02*
X63505000Y50437500D01*
X63505000Y50437500D02*
X63505000Y50720833D01*
X63505000Y50720833D02*
X63363333Y50862500D01*
X62655000Y51004167D02*
X63505000Y51004167D01*
X63505000Y51004167D02*
X63505000Y51570833D01*
X65336667Y50154167D02*
X65195000Y50012500D01*
X65195000Y50012500D02*
X65195000Y49729167D01*
X65195000Y49729167D02*
X65336667Y49587500D01*
X65336667Y49587500D02*
X65478333Y49587500D01*
X65478333Y49587500D02*
X65620000Y49729167D01*
X65620000Y49729167D02*
X65620000Y50012500D01*
X65620000Y50012500D02*
X65761667Y50154167D01*
X65761667Y50154167D02*
X65903333Y50154167D01*
X65903333Y50154167D02*
X66045000Y50012500D01*
X66045000Y50012500D02*
X66045000Y49729167D01*
X66045000Y49729167D02*
X65903333Y49587500D01*
X66045000Y50295833D02*
X65195000Y50295833D01*
X65195000Y50295833D02*
X65195000Y50720833D01*
X65195000Y50720833D02*
X65336667Y50862500D01*
X65336667Y50862500D02*
X65903333Y50862500D01*
X65903333Y50862500D02*
X66045000Y50720833D01*
X66045000Y50720833D02*
X66045000Y50295833D01*
X66045000Y51004167D02*
X65195000Y51287500D01*
X65195000Y51287500D02*
X66045000Y51570833D01*
X65761667Y51145833D02*
X65761667Y51429167D01*
X68585000Y49587500D02*
X67735000Y49587500D01*
X67735000Y49587500D02*
X67735000Y50012500D01*
X67735000Y50012500D02*
X67876667Y50154167D01*
X67876667Y50154167D02*
X68018333Y50154167D01*
X68018333Y50154167D02*
X68160000Y50012500D01*
X68160000Y50012500D02*
X68160000Y49587500D01*
X68160000Y50012500D02*
X68301667Y50154167D01*
X68301667Y50154167D02*
X68443333Y50154167D01*
X68443333Y50154167D02*
X68585000Y50012500D01*
X68585000Y50012500D02*
X68585000Y49587500D01*
X67735000Y50295833D02*
X67735000Y50862500D01*
X67735000Y50579167D02*
X68585000Y50579167D01*
X68585000Y51004167D02*
X67735000Y51004167D01*
X67735000Y51004167D02*
X68585000Y51570833D01*
X68585000Y51570833D02*
X67735000Y51570833D01*
D15*
X56825833Y56075000D02*
X56825833Y55283333D01*
X56825833Y55283333D02*
X56667500Y55125000D01*
X56667500Y55125000D02*
X56509167Y55125000D01*
X56509167Y55125000D02*
X56350833Y55283333D01*
X57775833Y56075000D02*
X57142500Y56075000D01*
X57142500Y56075000D02*
X57142500Y55663333D01*
X57142500Y55663333D02*
X57617500Y55663333D01*
X57617500Y55663333D02*
X57775833Y55505000D01*
X57775833Y55505000D02*
X57775833Y55283333D01*
X57775833Y55283333D02*
X57617500Y55125000D01*
X57617500Y55125000D02*
X57300833Y55125000D01*
X57300833Y55125000D02*
X57142500Y55283333D01*
X59675833Y55125000D02*
X59992500Y55125000D01*
X59992500Y55125000D02*
X60150833Y55283333D01*
X60150833Y55283333D02*
X60150833Y55916667D01*
X60150833Y55916667D02*
X59992500Y56075000D01*
X59992500Y56075000D02*
X59675833Y56075000D01*
X59675833Y56075000D02*
X59517500Y55916667D01*
X59517500Y55916667D02*
X59517500Y55283333D01*
X59517500Y55283333D02*
X59675833Y55125000D01*
X60309167Y56075000D02*
X60309167Y55125000D01*
X60309167Y55125000D02*
X60942500Y55125000D01*
X61734167Y56075000D02*
X61100833Y56075000D01*
X61100833Y56075000D02*
X61100833Y55125000D01*
X61100833Y55125000D02*
X61734167Y55125000D01*
X61100833Y55600000D02*
X61575833Y55600000D01*
X61892500Y55125000D02*
X61892500Y56075000D01*
X61892500Y56075000D02*
X62367500Y56075000D01*
X62367500Y56075000D02*
X62525833Y55916667D01*
X62525833Y55916667D02*
X62525833Y55283333D01*
X62525833Y55283333D02*
X62367500Y55125000D01*
X62367500Y55125000D02*
X61892500Y55125000D01*
X63570833Y55600000D02*
X64014167Y55600000D01*
X63792500Y55378333D02*
X63792500Y55821667D01*
X65059167Y55125000D02*
X65059167Y56075000D01*
X65059167Y56075000D02*
X65534167Y56075000D01*
X65534167Y56075000D02*
X65692500Y55916667D01*
X65692500Y55916667D02*
X65692500Y55758333D01*
X65692500Y55758333D02*
X65534167Y55600000D01*
X65534167Y55600000D02*
X65059167Y55600000D01*
X65534167Y55600000D02*
X65692500Y55441667D01*
X65692500Y55441667D02*
X65692500Y55283333D01*
X65692500Y55283333D02*
X65534167Y55125000D01*
X65534167Y55125000D02*
X65059167Y55125000D01*
X65850833Y56075000D02*
X65850833Y55283333D01*
X65850833Y55283333D02*
X66009167Y55125000D01*
X66009167Y55125000D02*
X66325833Y55125000D01*
X66325833Y55125000D02*
X66484167Y55283333D01*
X66484167Y55283333D02*
X66484167Y56075000D01*
X66642500Y56075000D02*
X67275833Y56075000D01*
X66959167Y56075000D02*
X66959167Y55125000D01*
X67434167Y56075000D02*
X68067500Y56075000D01*
X67750833Y56075000D02*
X67750833Y55125000D01*
X68384167Y55125000D02*
X68700833Y55125000D01*
X68700833Y55125000D02*
X68859167Y55283333D01*
X68859167Y55283333D02*
X68859167Y55916667D01*
X68859167Y55916667D02*
X68700833Y56075000D01*
X68700833Y56075000D02*
X68384167Y56075000D01*
X68384167Y56075000D02*
X68225833Y55916667D01*
X68225833Y55916667D02*
X68225833Y55283333D01*
X68225833Y55283333D02*
X68384167Y55125000D01*
X69017500Y55125000D02*
X69017500Y56075000D01*
X69017500Y56075000D02*
X69650833Y55125000D01*
X69650833Y55125000D02*
X69650833Y56075000D01*
D11*
X16400000Y9316667D02*
X15600000Y9316667D01*
X15600000Y9316667D02*
X15600000Y9716667D01*
X15600000Y9716667D02*
X15733333Y9850000D01*
X15733333Y9850000D02*
X15866667Y9850000D01*
X15866667Y9850000D02*
X16000000Y9716667D01*
X16000000Y9716667D02*
X16000000Y9316667D01*
X16000000Y9716667D02*
X16133333Y9850000D01*
X16133333Y9850000D02*
X16266667Y9850000D01*
X16266667Y9850000D02*
X16400000Y9716667D01*
X16400000Y9716667D02*
X16400000Y9316667D01*
X16400000Y10116667D02*
X16400000Y10383333D01*
X16400000Y10383333D02*
X16266667Y10516667D01*
X16266667Y10516667D02*
X15733333Y10516667D01*
X15733333Y10516667D02*
X15600000Y10383333D01*
X15600000Y10383333D02*
X15600000Y10116667D01*
X15600000Y10116667D02*
X15733333Y9983333D01*
X15733333Y9983333D02*
X16266667Y9983333D01*
X16266667Y9983333D02*
X16400000Y10116667D01*
X16400000Y10783333D02*
X16400000Y11050000D01*
X16400000Y11050000D02*
X16266667Y11183333D01*
X16266667Y11183333D02*
X15733333Y11183333D01*
X15733333Y11183333D02*
X15600000Y11050000D01*
X15600000Y11050000D02*
X15600000Y10783333D01*
X15600000Y10783333D02*
X15733333Y10650000D01*
X15733333Y10650000D02*
X16266667Y10650000D01*
X16266667Y10650000D02*
X16400000Y10783333D01*
X15600000Y11316667D02*
X15600000Y11850000D01*
X15600000Y11583333D02*
X16400000Y11583333D01*
X18940000Y9316667D02*
X18140000Y9316667D01*
X18140000Y9316667D02*
X18140000Y9716667D01*
X18140000Y9716667D02*
X18273333Y9850000D01*
X18273333Y9850000D02*
X18406667Y9850000D01*
X18406667Y9850000D02*
X18540000Y9716667D01*
X18540000Y9716667D02*
X18540000Y9316667D01*
X18540000Y9583333D02*
X18940000Y9850000D01*
X18273333Y10516667D02*
X18140000Y10383333D01*
X18140000Y10383333D02*
X18140000Y10116667D01*
X18140000Y10116667D02*
X18273333Y9983333D01*
X18273333Y9983333D02*
X18406667Y9983333D01*
X18406667Y9983333D02*
X18540000Y10116667D01*
X18540000Y10116667D02*
X18540000Y10383333D01*
X18540000Y10383333D02*
X18673333Y10516667D01*
X18673333Y10516667D02*
X18806667Y10516667D01*
X18806667Y10516667D02*
X18940000Y10383333D01*
X18940000Y10383333D02*
X18940000Y10116667D01*
X18940000Y10116667D02*
X18806667Y9983333D01*
X18273333Y11183333D02*
X18140000Y11050000D01*
X18140000Y11050000D02*
X18140000Y10783333D01*
X18140000Y10783333D02*
X18273333Y10650000D01*
X18273333Y10650000D02*
X18806667Y10650000D01*
X18806667Y10650000D02*
X18940000Y10783333D01*
X18940000Y10783333D02*
X18940000Y11050000D01*
X18940000Y11050000D02*
X18806667Y11183333D01*
X18140000Y11316667D02*
X18940000Y11316667D01*
X18940000Y11316667D02*
X18940000Y11850000D01*
X21480000Y9316667D02*
X20680000Y9316667D01*
X20680000Y9316667D02*
X20680000Y9716667D01*
X20680000Y9716667D02*
X20813333Y9850000D01*
X20813333Y9850000D02*
X20946667Y9850000D01*
X20946667Y9850000D02*
X21080000Y9716667D01*
X21080000Y9716667D02*
X21080000Y9316667D01*
X21080000Y9583333D02*
X21480000Y9850000D01*
X20813333Y10516667D02*
X20680000Y10383333D01*
X20680000Y10383333D02*
X20680000Y10116667D01*
X20680000Y10116667D02*
X20813333Y9983333D01*
X20813333Y9983333D02*
X20946667Y9983333D01*
X20946667Y9983333D02*
X21080000Y10116667D01*
X21080000Y10116667D02*
X21080000Y10383333D01*
X21080000Y10383333D02*
X21213333Y10516667D01*
X21213333Y10516667D02*
X21346667Y10516667D01*
X21346667Y10516667D02*
X21480000Y10383333D01*
X21480000Y10383333D02*
X21480000Y10116667D01*
X21480000Y10116667D02*
X21346667Y9983333D01*
X21480000Y10650000D02*
X20680000Y10650000D01*
X20680000Y10650000D02*
X20680000Y11050000D01*
X20680000Y11050000D02*
X20813333Y11183333D01*
X20813333Y11183333D02*
X21346667Y11183333D01*
X21346667Y11183333D02*
X21480000Y11050000D01*
X21480000Y11050000D02*
X21480000Y10650000D01*
X21480000Y11316667D02*
X20680000Y11583333D01*
X20680000Y11583333D02*
X21480000Y11850000D01*
X21213333Y11450000D02*
X21213333Y11716667D01*
X23353333Y10183333D02*
X23220000Y10050000D01*
X23220000Y10050000D02*
X23220000Y9783333D01*
X23220000Y9783333D02*
X23353333Y9650000D01*
X23353333Y9650000D02*
X23886667Y9650000D01*
X23886667Y9650000D02*
X24020000Y9783333D01*
X24020000Y9783333D02*
X24020000Y10050000D01*
X24020000Y10050000D02*
X23886667Y10183333D01*
X23886667Y10183333D02*
X23620000Y10183333D01*
X23620000Y10183333D02*
X23620000Y9916667D01*
X24020000Y10316667D02*
X23220000Y10316667D01*
X23220000Y10316667D02*
X24020000Y10850000D01*
X24020000Y10850000D02*
X23220000Y10850000D01*
X24020000Y10983333D02*
X23220000Y10983333D01*
X23220000Y10983333D02*
X23220000Y11383333D01*
X23220000Y11383333D02*
X23353333Y11516667D01*
X23353333Y11516667D02*
X23886667Y11516667D01*
X23886667Y11516667D02*
X24020000Y11383333D01*
X24020000Y11383333D02*
X24020000Y10983333D01*
D16*
X15010000Y15850000D02*
X15010000Y15100000D01*
X15010000Y15100000D02*
X14860000Y14950000D01*
X14860000Y14950000D02*
X14710000Y14950000D01*
X14710000Y14950000D02*
X14560000Y15100000D01*
X15430000Y15670000D02*
X15610000Y15850000D01*
X15610000Y15850000D02*
X15610000Y14950000D01*
X15430000Y14950000D02*
X15790000Y14950000D01*
X16210000Y14950000D02*
X16510000Y14950000D01*
X16510000Y14950000D02*
X16660000Y15100000D01*
X16660000Y15100000D02*
X16660000Y15700000D01*
X16660000Y15700000D02*
X16510000Y15850000D01*
X16510000Y15850000D02*
X16210000Y15850000D01*
X16210000Y15850000D02*
X16060000Y15700000D01*
X16060000Y15700000D02*
X16060000Y15100000D01*
X16060000Y15100000D02*
X16210000Y14950000D01*
X16150000Y15130000D02*
X16570000Y15670000D01*
X18310000Y14950000D02*
X18310000Y15850000D01*
X18310000Y15850000D02*
X18760000Y15850000D01*
X18760000Y15850000D02*
X18910000Y15700000D01*
X18910000Y15700000D02*
X18910000Y15550000D01*
X18910000Y15550000D02*
X18760000Y15400000D01*
X18760000Y15400000D02*
X18310000Y15400000D01*
X18610000Y15400000D02*
X18910000Y14950000D01*
X19060000Y14950000D02*
X19360000Y15850000D01*
X19360000Y15850000D02*
X19660000Y14950000D01*
X19210000Y15250000D02*
X19510000Y15250000D01*
X19810000Y14950000D02*
X19810000Y15850000D01*
X20410000Y15850000D02*
X19840000Y15370000D01*
X20050000Y15550000D02*
X20410000Y14950000D01*
X21910000Y15700000D02*
X21760000Y15850000D01*
X21760000Y15850000D02*
X21460000Y15850000D01*
X21460000Y15850000D02*
X21310000Y15700000D01*
X21310000Y15700000D02*
X21310000Y15550000D01*
X21310000Y15550000D02*
X21460000Y15400000D01*
X21460000Y15400000D02*
X21760000Y15400000D01*
X21760000Y15400000D02*
X21910000Y15250000D01*
X21910000Y15250000D02*
X21910000Y15100000D01*
X21910000Y15100000D02*
X21760000Y14950000D01*
X21760000Y14950000D02*
X21460000Y14950000D01*
X21460000Y14950000D02*
X21310000Y15100000D01*
X22060000Y14950000D02*
X22060000Y15850000D01*
X22060000Y15850000D02*
X22510000Y15850000D01*
X22510000Y15850000D02*
X22660000Y15700000D01*
X22660000Y15700000D02*
X22660000Y15550000D01*
X22660000Y15550000D02*
X22510000Y15400000D01*
X22510000Y15400000D02*
X22060000Y15400000D01*
X22810000Y14950000D02*
X23110000Y15850000D01*
X23110000Y15850000D02*
X23410000Y14950000D01*
X22960000Y15250000D02*
X23260000Y15250000D01*
X23560000Y14950000D02*
X23560000Y15850000D01*
X23560000Y15850000D02*
X24010000Y15850000D01*
X24010000Y15850000D02*
X24160000Y15700000D01*
X24160000Y15700000D02*
X24160000Y15550000D01*
X24160000Y15550000D02*
X24010000Y15400000D01*
X24010000Y15400000D02*
X23560000Y15400000D01*
X23860000Y15400000D02*
X24160000Y14950000D01*
X24910000Y15850000D02*
X24310000Y15850000D01*
X24310000Y15850000D02*
X24310000Y14950000D01*
X24310000Y14950000D02*
X24910000Y14950000D01*
X24310000Y15400000D02*
X24760000Y15400000D01*
D11*
X71600000Y50516667D02*
X71600000Y49983333D01*
X71600000Y49983333D02*
X71946667Y49983333D01*
X71946667Y49983333D02*
X71946667Y50383333D01*
X71946667Y50383333D02*
X72080000Y50516667D01*
X72080000Y50516667D02*
X72266667Y50516667D01*
X72266667Y50516667D02*
X72400000Y50383333D01*
X72400000Y50383333D02*
X72400000Y50116667D01*
X72400000Y50116667D02*
X72266667Y49983333D01*
X71600000Y50650000D02*
X72400000Y50916667D01*
X72400000Y50916667D02*
X71600000Y51183333D01*
X74940000Y49983333D02*
X74140000Y49983333D01*
X74140000Y49983333D02*
X74140000Y50383333D01*
X74140000Y50383333D02*
X74273333Y50516667D01*
X74273333Y50516667D02*
X74806667Y50516667D01*
X74806667Y50516667D02*
X74940000Y50383333D01*
X74940000Y50383333D02*
X74940000Y49983333D01*
X74300000Y50756667D02*
X74140000Y50916667D01*
X74140000Y50916667D02*
X74940000Y50916667D01*
X74940000Y50756667D02*
X74940000Y51076667D01*
X77480000Y49983333D02*
X76680000Y49983333D01*
X76680000Y49983333D02*
X76680000Y50383333D01*
X76680000Y50383333D02*
X76813333Y50516667D01*
X76813333Y50516667D02*
X77346667Y50516667D01*
X77346667Y50516667D02*
X77480000Y50383333D01*
X77480000Y50383333D02*
X77480000Y49983333D01*
X76813333Y50650000D02*
X76680000Y50783333D01*
X76680000Y50783333D02*
X76680000Y51050000D01*
X76680000Y51050000D02*
X76813333Y51183333D01*
X76813333Y51183333D02*
X76973333Y51183333D01*
X76973333Y51183333D02*
X77480000Y50650000D01*
X77480000Y50650000D02*
X77480000Y51183333D01*
X79353333Y50183333D02*
X79220000Y50050000D01*
X79220000Y50050000D02*
X79220000Y49783333D01*
X79220000Y49783333D02*
X79353333Y49650000D01*
X79353333Y49650000D02*
X79886667Y49650000D01*
X79886667Y49650000D02*
X80020000Y49783333D01*
X80020000Y49783333D02*
X80020000Y50050000D01*
X80020000Y50050000D02*
X79886667Y50183333D01*
X79886667Y50183333D02*
X79620000Y50183333D01*
X79620000Y50183333D02*
X79620000Y49916667D01*
X80020000Y50316667D02*
X79220000Y50316667D01*
X79220000Y50316667D02*
X80020000Y50850000D01*
X80020000Y50850000D02*
X79220000Y50850000D01*
X80020000Y50983333D02*
X79220000Y50983333D01*
X79220000Y50983333D02*
X79220000Y51383333D01*
X79220000Y51383333D02*
X79353333Y51516667D01*
X79353333Y51516667D02*
X79886667Y51516667D01*
X79886667Y51516667D02*
X80020000Y51383333D01*
X80020000Y51383333D02*
X80020000Y50983333D01*
D16*
X72885000Y56050000D02*
X72885000Y55300000D01*
X72885000Y55300000D02*
X72735000Y55150000D01*
X72735000Y55150000D02*
X72585000Y55150000D01*
X72585000Y55150000D02*
X72435000Y55300000D01*
X73305000Y55870000D02*
X73485000Y56050000D01*
X73485000Y56050000D02*
X73485000Y55150000D01*
X73305000Y55150000D02*
X73665000Y55150000D01*
X74055000Y55870000D02*
X74235000Y56050000D01*
X74235000Y56050000D02*
X74235000Y55150000D01*
X74055000Y55150000D02*
X74415000Y55150000D01*
X76035000Y55900000D02*
X75885000Y56050000D01*
X75885000Y56050000D02*
X75585000Y56050000D01*
X75585000Y56050000D02*
X75435000Y55900000D01*
X75435000Y55900000D02*
X75435000Y55750000D01*
X75435000Y55750000D02*
X75585000Y55600000D01*
X75585000Y55600000D02*
X75885000Y55600000D01*
X75885000Y55600000D02*
X76035000Y55450000D01*
X76035000Y55450000D02*
X76035000Y55300000D01*
X76035000Y55300000D02*
X75885000Y55150000D01*
X75885000Y55150000D02*
X75585000Y55150000D01*
X75585000Y55150000D02*
X75435000Y55300000D01*
X76185000Y55150000D02*
X76185000Y56050000D01*
X76185000Y56050000D02*
X76635000Y56050000D01*
X76635000Y56050000D02*
X76785000Y55900000D01*
X76785000Y55900000D02*
X76785000Y55750000D01*
X76785000Y55750000D02*
X76635000Y55600000D01*
X76635000Y55600000D02*
X76185000Y55600000D01*
X76935000Y55150000D02*
X77235000Y56050000D01*
X77235000Y56050000D02*
X77535000Y55150000D01*
X77085000Y55450000D02*
X77385000Y55450000D01*
X77685000Y55150000D02*
X77685000Y56050000D01*
X77685000Y56050000D02*
X78135000Y56050000D01*
X78135000Y56050000D02*
X78285000Y55900000D01*
X78285000Y55900000D02*
X78285000Y55750000D01*
X78285000Y55750000D02*
X78135000Y55600000D01*
X78135000Y55600000D02*
X77685000Y55600000D01*
X77985000Y55600000D02*
X78285000Y55150000D01*
X79035000Y56050000D02*
X78435000Y56050000D01*
X78435000Y56050000D02*
X78435000Y55150000D01*
X78435000Y55150000D02*
X79035000Y55150000D01*
X78435000Y55600000D02*
X78885000Y55600000D01*
D13*
X75000000Y41500000D02*
X81000000Y41500000D01*
X81000000Y41500000D02*
X81000000Y47500000D01*
X81000000Y47500000D02*
X75000000Y47500000D01*
X75000000Y47500000D02*
X75000000Y41500000D01*
D10*
X73254167Y48983333D02*
X73112500Y49125000D01*
X73112500Y49125000D02*
X72829167Y49125000D01*
X72829167Y49125000D02*
X72687500Y48983333D01*
X72687500Y48983333D02*
X72687500Y48841667D01*
X72687500Y48841667D02*
X72829167Y48700000D01*
X72829167Y48700000D02*
X73112500Y48700000D01*
X73112500Y48700000D02*
X73254167Y48558333D01*
X73254167Y48558333D02*
X73254167Y48416667D01*
X73254167Y48416667D02*
X73112500Y48275000D01*
X73112500Y48275000D02*
X72829167Y48275000D01*
X72829167Y48275000D02*
X72687500Y48416667D01*
X73395833Y49125000D02*
X73537500Y48275000D01*
X73537500Y48275000D02*
X73679167Y48785000D01*
X73679167Y48785000D02*
X73820833Y48275000D01*
X73820833Y48275000D02*
X73962500Y49125000D01*
X74217500Y48955000D02*
X74387500Y49125000D01*
X74387500Y49125000D02*
X74387500Y48275000D01*
X74217500Y48275000D02*
X74557500Y48275000D01*
X75520833Y49125000D02*
X75520833Y48416667D01*
X75520833Y48416667D02*
X75662500Y48275000D01*
X75662500Y48275000D02*
X75945833Y48275000D01*
X75945833Y48275000D02*
X76087500Y48416667D01*
X76087500Y48416667D02*
X76087500Y49125000D01*
X76795833Y48983333D02*
X76654167Y49125000D01*
X76654167Y49125000D02*
X76370833Y49125000D01*
X76370833Y49125000D02*
X76229167Y48983333D01*
X76229167Y48983333D02*
X76229167Y48841667D01*
X76229167Y48841667D02*
X76370833Y48700000D01*
X76370833Y48700000D02*
X76654167Y48700000D01*
X76654167Y48700000D02*
X76795833Y48558333D01*
X76795833Y48558333D02*
X76795833Y48416667D01*
X76795833Y48416667D02*
X76654167Y48275000D01*
X76654167Y48275000D02*
X76370833Y48275000D01*
X76370833Y48275000D02*
X76229167Y48416667D01*
X77504167Y49125000D02*
X76937500Y49125000D01*
X76937500Y49125000D02*
X76937500Y48275000D01*
X76937500Y48275000D02*
X77504167Y48275000D01*
X76937500Y48700000D02*
X77362500Y48700000D01*
X77645833Y48275000D02*
X77645833Y49125000D01*
X77645833Y49125000D02*
X78070833Y49125000D01*
X78070833Y49125000D02*
X78212500Y48983333D01*
X78212500Y48983333D02*
X78212500Y48841667D01*
X78212500Y48841667D02*
X78070833Y48700000D01*
X78070833Y48700000D02*
X77645833Y48700000D01*
X77929167Y48700000D02*
X78212500Y48275000D01*
X79062500Y48275000D02*
X79062500Y49125000D01*
X79062500Y49125000D02*
X79487500Y49125000D01*
X79487500Y49125000D02*
X79629167Y48983333D01*
X79629167Y48983333D02*
X79629167Y48841667D01*
X79629167Y48841667D02*
X79487500Y48700000D01*
X79487500Y48700000D02*
X79062500Y48700000D01*
X79487500Y48700000D02*
X79629167Y48558333D01*
X79629167Y48558333D02*
X79629167Y48416667D01*
X79629167Y48416667D02*
X79487500Y48275000D01*
X79487500Y48275000D02*
X79062500Y48275000D01*
X79770833Y49125000D02*
X79770833Y48416667D01*
X79770833Y48416667D02*
X79912500Y48275000D01*
X79912500Y48275000D02*
X80195833Y48275000D01*
X80195833Y48275000D02*
X80337500Y48416667D01*
X80337500Y48416667D02*
X80337500Y49125000D01*
X80479167Y49125000D02*
X81045833Y49125000D01*
X80762500Y49125000D02*
X80762500Y48275000D01*
X81187500Y49125000D02*
X81754167Y49125000D01*
X81470833Y49125000D02*
X81470833Y48275000D01*
X82037500Y48275000D02*
X82320833Y48275000D01*
X82320833Y48275000D02*
X82462500Y48416667D01*
X82462500Y48416667D02*
X82462500Y48983333D01*
X82462500Y48983333D02*
X82320833Y49125000D01*
X82320833Y49125000D02*
X82037500Y49125000D01*
X82037500Y49125000D02*
X81895833Y48983333D01*
X81895833Y48983333D02*
X81895833Y48416667D01*
X81895833Y48416667D02*
X82037500Y48275000D01*
X82604167Y48275000D02*
X82604167Y49125000D01*
X82604167Y49125000D02*
X83170833Y48275000D01*
X83170833Y48275000D02*
X83170833Y49125000D01*
D11*
X73875000Y39850000D02*
X73875000Y40550000D01*
X73875000Y40550000D02*
X74225000Y40550000D01*
X74225000Y40550000D02*
X74341667Y40433333D01*
X74341667Y40433333D02*
X74341667Y40316667D01*
X74341667Y40316667D02*
X74225000Y40200000D01*
X74225000Y40200000D02*
X73875000Y40200000D01*
X74225000Y40200000D02*
X74341667Y40083333D01*
X74341667Y40083333D02*
X74341667Y39966667D01*
X74341667Y39966667D02*
X74225000Y39850000D01*
X74225000Y39850000D02*
X73875000Y39850000D01*
X74458333Y40550000D02*
X74925000Y40550000D01*
X74691667Y40550000D02*
X74691667Y39850000D01*
X75041667Y39850000D02*
X75041667Y40550000D01*
X75041667Y40550000D02*
X75508333Y39850000D01*
X75508333Y39850000D02*
X75508333Y40550000D01*
X6400000Y2983333D02*
X5600000Y2983333D01*
X5600000Y2983333D02*
X5600000Y3383333D01*
X5600000Y3383333D02*
X5733333Y3516667D01*
X5733333Y3516667D02*
X5866667Y3516667D01*
X5866667Y3516667D02*
X6000000Y3383333D01*
X6000000Y3383333D02*
X6000000Y2983333D01*
X6000000Y3383333D02*
X6133333Y3516667D01*
X6133333Y3516667D02*
X6266667Y3516667D01*
X6266667Y3516667D02*
X6400000Y3383333D01*
X6400000Y3383333D02*
X6400000Y2983333D01*
X6000000Y3730000D02*
X6000000Y4103333D01*
X6186667Y3916667D02*
X5813333Y3916667D01*
X8940000Y2983333D02*
X8140000Y2983333D01*
X8140000Y2983333D02*
X8140000Y3383333D01*
X8140000Y3383333D02*
X8273333Y3516667D01*
X8273333Y3516667D02*
X8406667Y3516667D01*
X8406667Y3516667D02*
X8540000Y3383333D01*
X8540000Y3383333D02*
X8540000Y2983333D01*
X8540000Y3383333D02*
X8673333Y3516667D01*
X8673333Y3516667D02*
X8806667Y3516667D01*
X8806667Y3516667D02*
X8940000Y3383333D01*
X8940000Y3383333D02*
X8940000Y2983333D01*
X8540000Y3730000D02*
X8540000Y4103333D01*
D10*
X4861667Y8825000D02*
X4861667Y8116667D01*
X4861667Y8116667D02*
X4720000Y7975000D01*
X4720000Y7975000D02*
X4578333Y7975000D01*
X4578333Y7975000D02*
X4436667Y8116667D01*
X5258333Y8655000D02*
X5428333Y8825000D01*
X5428333Y8825000D02*
X5428333Y7975000D01*
X5258333Y7975000D02*
X5598333Y7975000D01*
X5853333Y8683333D02*
X5995000Y8825000D01*
X5995000Y8825000D02*
X6278333Y8825000D01*
X6278333Y8825000D02*
X6420000Y8683333D01*
X6420000Y8683333D02*
X6420000Y8513333D01*
X6420000Y8513333D02*
X5853333Y7975000D01*
X5853333Y7975000D02*
X6420000Y7975000D01*
X7270000Y7975000D02*
X7270000Y8825000D01*
X7270000Y8825000D02*
X7695000Y8825000D01*
X7695000Y8825000D02*
X7836667Y8683333D01*
X7836667Y8683333D02*
X7836667Y8541667D01*
X7836667Y8541667D02*
X7695000Y8400000D01*
X7695000Y8400000D02*
X7270000Y8400000D01*
X7695000Y8400000D02*
X7836667Y8258333D01*
X7836667Y8258333D02*
X7836667Y8116667D01*
X7836667Y8116667D02*
X7695000Y7975000D01*
X7695000Y7975000D02*
X7270000Y7975000D01*
X7978333Y7975000D02*
X8261667Y8825000D01*
X8261667Y8825000D02*
X8545000Y7975000D01*
X8120000Y8258333D02*
X8403333Y8258333D01*
X8686667Y8825000D02*
X9253333Y8825000D01*
X8970000Y8825000D02*
X8970000Y7975000D01*
X9395000Y8825000D02*
X9961667Y8825000D01*
X9678333Y8825000D02*
X9678333Y7975000D01*
D13*
X11050000Y3600000D02*
X16950000Y3600000D01*
X16950000Y3600000D02*
X16950000Y8400000D01*
X16950000Y8400000D02*
X11050000Y8400000D01*
X11050000Y8400000D02*
X11050000Y3600000D01*
D11*
X11250000Y3075000D02*
X11250000Y2450000D01*
X11250000Y2450000D02*
X11125000Y2325000D01*
X11125000Y2325000D02*
X11000000Y2325000D01*
X11000000Y2325000D02*
X10875000Y2450000D01*
X11600000Y2925000D02*
X11750000Y3075000D01*
X11750000Y3075000D02*
X11750000Y2325000D01*
X11600000Y2325000D02*
X11900000Y2325000D01*
X12125000Y3075000D02*
X12625000Y3075000D01*
X12625000Y3075000D02*
X12375000Y2750000D01*
X12375000Y2750000D02*
X12500000Y2750000D01*
X12500000Y2750000D02*
X12625000Y2625000D01*
X12625000Y2625000D02*
X12625000Y2450000D01*
X12625000Y2450000D02*
X12500000Y2325000D01*
X12500000Y2325000D02*
X12250000Y2325000D01*
X12250000Y2325000D02*
X12125000Y2450000D01*
X13750000Y3075000D02*
X13750000Y2450000D01*
X13750000Y2450000D02*
X13625000Y2325000D01*
X13625000Y2325000D02*
X13500000Y2325000D01*
X13500000Y2325000D02*
X13375000Y2450000D01*
X14500000Y2950000D02*
X14375000Y3075000D01*
X14375000Y3075000D02*
X14125000Y3075000D01*
X14125000Y3075000D02*
X14000000Y2950000D01*
X14000000Y2950000D02*
X14000000Y2825000D01*
X14000000Y2825000D02*
X14125000Y2700000D01*
X14125000Y2700000D02*
X14375000Y2700000D01*
X14375000Y2700000D02*
X14500000Y2575000D01*
X14500000Y2575000D02*
X14500000Y2450000D01*
X14500000Y2450000D02*
X14375000Y2325000D01*
X14375000Y2325000D02*
X14125000Y2325000D01*
X14125000Y2325000D02*
X14000000Y2450000D01*
X14625000Y3075000D02*
X15125000Y3075000D01*
X14875000Y3075000D02*
X14875000Y2325000D01*
X15325000Y2700000D02*
X15675000Y2700000D01*
X15875000Y2325000D02*
X15875000Y3075000D01*
X15875000Y3075000D02*
X16250000Y3075000D01*
X16250000Y3075000D02*
X16375000Y2950000D01*
X16375000Y2950000D02*
X16375000Y2825000D01*
X16375000Y2825000D02*
X16250000Y2700000D01*
X16250000Y2700000D02*
X15875000Y2700000D01*
X16500000Y2325000D02*
X16500000Y3075000D01*
X17000000Y2325000D02*
X17000000Y3075000D01*
X16500000Y2700000D02*
X17000000Y2700000D01*
X20400000Y2783333D02*
X20400000Y3050000D01*
X20400000Y3050000D02*
X20266667Y3183333D01*
X20266667Y3183333D02*
X19733333Y3183333D01*
X19733333Y3183333D02*
X19600000Y3050000D01*
X19600000Y3050000D02*
X19600000Y2783333D01*
X19600000Y2783333D02*
X19733333Y2650000D01*
X19733333Y2650000D02*
X20266667Y2650000D01*
X20266667Y2650000D02*
X20400000Y2783333D01*
X19600000Y3316667D02*
X20266667Y3316667D01*
X20266667Y3316667D02*
X20400000Y3450000D01*
X20400000Y3450000D02*
X20400000Y3716667D01*
X20400000Y3716667D02*
X20266667Y3850000D01*
X20266667Y3850000D02*
X19600000Y3850000D01*
X19600000Y3983333D02*
X19600000Y4516667D01*
X19600000Y4250000D02*
X20400000Y4250000D01*
X22940000Y3116667D02*
X22940000Y3383333D01*
X22940000Y3250000D02*
X22140000Y3250000D01*
X22140000Y3116667D02*
X22140000Y3383333D01*
X22940000Y3650000D02*
X22140000Y3650000D01*
X22140000Y3650000D02*
X22940000Y4183333D01*
X22940000Y4183333D02*
X22140000Y4183333D01*
X25480000Y2983333D02*
X24680000Y2983333D01*
X24680000Y2983333D02*
X25480000Y3516667D01*
X25480000Y3516667D02*
X24680000Y3516667D01*
X24813333Y4183333D02*
X24680000Y4050000D01*
X24680000Y4050000D02*
X24680000Y3783333D01*
X24680000Y3783333D02*
X24813333Y3650000D01*
X24813333Y3650000D02*
X25346667Y3650000D01*
X25346667Y3650000D02*
X25480000Y3783333D01*
X25480000Y3783333D02*
X25480000Y4050000D01*
X25480000Y4050000D02*
X25346667Y4183333D01*
D10*
X19919167Y8683333D02*
X19777500Y8825000D01*
X19777500Y8825000D02*
X19494167Y8825000D01*
X19494167Y8825000D02*
X19352500Y8683333D01*
X19352500Y8683333D02*
X19352500Y8541667D01*
X19352500Y8541667D02*
X19494167Y8400000D01*
X19494167Y8400000D02*
X19777500Y8400000D01*
X19777500Y8400000D02*
X19919167Y8258333D01*
X19919167Y8258333D02*
X19919167Y8116667D01*
X19919167Y8116667D02*
X19777500Y7975000D01*
X19777500Y7975000D02*
X19494167Y7975000D01*
X19494167Y7975000D02*
X19352500Y8116667D01*
X20060833Y8825000D02*
X20202500Y7975000D01*
X20202500Y7975000D02*
X20344167Y8485000D01*
X20344167Y8485000D02*
X20485833Y7975000D01*
X20485833Y7975000D02*
X20627500Y8825000D01*
X20769167Y8683333D02*
X20910833Y8825000D01*
X20910833Y8825000D02*
X21194167Y8825000D01*
X21194167Y8825000D02*
X21335833Y8683333D01*
X21335833Y8683333D02*
X21335833Y8513333D01*
X21335833Y8513333D02*
X20769167Y7975000D01*
X20769167Y7975000D02*
X21335833Y7975000D01*
X22185833Y7975000D02*
X22185833Y8825000D01*
X22185833Y8825000D02*
X22610833Y8825000D01*
X22610833Y8825000D02*
X22752500Y8683333D01*
X22752500Y8683333D02*
X22752500Y8541667D01*
X22752500Y8541667D02*
X22610833Y8400000D01*
X22610833Y8400000D02*
X22185833Y8400000D01*
X23035833Y7975000D02*
X23319167Y7975000D01*
X23319167Y7975000D02*
X23460833Y8116667D01*
X23460833Y8116667D02*
X23460833Y8683333D01*
X23460833Y8683333D02*
X23319167Y8825000D01*
X23319167Y8825000D02*
X23035833Y8825000D01*
X23035833Y8825000D02*
X22894167Y8683333D01*
X22894167Y8683333D02*
X22894167Y8116667D01*
X22894167Y8116667D02*
X23035833Y7975000D01*
X23602500Y8825000D02*
X23744167Y7975000D01*
X23744167Y7975000D02*
X23885833Y8485000D01*
X23885833Y8485000D02*
X24027500Y7975000D01*
X24027500Y7975000D02*
X24169167Y8825000D01*
X24877500Y8825000D02*
X24310833Y8825000D01*
X24310833Y8825000D02*
X24310833Y7975000D01*
X24310833Y7975000D02*
X24877500Y7975000D01*
X24310833Y8400000D02*
X24735833Y8400000D01*
X25019167Y7975000D02*
X25019167Y8825000D01*
X25019167Y8825000D02*
X25444167Y8825000D01*
X25444167Y8825000D02*
X25585833Y8683333D01*
X25585833Y8683333D02*
X25585833Y8541667D01*
X25585833Y8541667D02*
X25444167Y8400000D01*
X25444167Y8400000D02*
X25019167Y8400000D01*
X25302500Y8400000D02*
X25585833Y7975000D01*
D11*
X30000000Y3396667D02*
X30000000Y3770000D01*
X30186667Y3583333D02*
X29813333Y3583333D01*
X32540000Y3396667D02*
X32540000Y3770000D01*
D10*
X28153333Y8825000D02*
X28153333Y8116667D01*
X28153333Y8116667D02*
X28011667Y7975000D01*
X28011667Y7975000D02*
X27870000Y7975000D01*
X27870000Y7975000D02*
X27728333Y8116667D01*
X28550000Y8655000D02*
X28720000Y8825000D01*
X28720000Y8825000D02*
X28720000Y7975000D01*
X28550000Y7975000D02*
X28890000Y7975000D01*
X29570000Y7975000D02*
X29570000Y8825000D01*
X29570000Y8825000D02*
X29145000Y8230000D01*
X29145000Y8230000D02*
X29711667Y8230000D01*
X30561667Y8825000D02*
X31128333Y8825000D01*
X30845000Y8825000D02*
X30845000Y7975000D01*
X31411667Y7975000D02*
X31695000Y7975000D01*
X31695000Y7975000D02*
X31836667Y8116667D01*
X31836667Y8116667D02*
X31836667Y8683333D01*
X31836667Y8683333D02*
X31695000Y8825000D01*
X31695000Y8825000D02*
X31411667Y8825000D01*
X31411667Y8825000D02*
X31270000Y8683333D01*
X31270000Y8683333D02*
X31270000Y8116667D01*
X31270000Y8116667D02*
X31411667Y7975000D01*
X32686667Y7975000D02*
X32686667Y8825000D01*
X32686667Y8825000D02*
X33111667Y8825000D01*
X33111667Y8825000D02*
X33253333Y8683333D01*
X33253333Y8683333D02*
X33253333Y8541667D01*
X33253333Y8541667D02*
X33111667Y8400000D01*
X33111667Y8400000D02*
X32686667Y8400000D01*
X32970000Y8400000D02*
X33253333Y7975000D01*
X33395000Y7975000D02*
X33678333Y8825000D01*
X33678333Y8825000D02*
X33961667Y7975000D01*
X33536667Y8258333D02*
X33820000Y8258333D01*
X34103333Y7975000D02*
X34103333Y8825000D01*
X34670000Y8825000D02*
X34131667Y8371667D01*
X34330000Y8541667D02*
X34670000Y7975000D01*
X7215833Y15825000D02*
X7215833Y15116667D01*
X7215833Y15116667D02*
X7074167Y14975000D01*
X7074167Y14975000D02*
X6932500Y14975000D01*
X6932500Y14975000D02*
X6790833Y15116667D01*
X7499167Y14975000D02*
X7499167Y15825000D01*
X7499167Y15825000D02*
X7924167Y15825000D01*
X7924167Y15825000D02*
X8065833Y15683333D01*
X8065833Y15683333D02*
X8065833Y15541667D01*
X8065833Y15541667D02*
X7924167Y15400000D01*
X7924167Y15400000D02*
X7499167Y15400000D01*
X8320833Y15655000D02*
X8490833Y15825000D01*
X8490833Y15825000D02*
X8490833Y14975000D01*
X8320833Y14975000D02*
X8660833Y14975000D01*
X9624167Y15825000D02*
X10190833Y15825000D01*
X10190833Y15825000D02*
X9907500Y15456667D01*
X9907500Y15456667D02*
X10049167Y15456667D01*
X10049167Y15456667D02*
X10190833Y15315000D01*
X10190833Y15315000D02*
X10190833Y15116667D01*
X10190833Y15116667D02*
X10049167Y14975000D01*
X10049167Y14975000D02*
X9765833Y14975000D01*
X9765833Y14975000D02*
X9624167Y15116667D01*
X10332500Y15825000D02*
X10615833Y14975000D01*
X10615833Y14975000D02*
X10899167Y15825000D01*
X11040833Y15825000D02*
X11607500Y15825000D01*
X11607500Y15825000D02*
X11324167Y15456667D01*
X11324167Y15456667D02*
X11465833Y15456667D01*
X11465833Y15456667D02*
X11607500Y15315000D01*
X11607500Y15315000D02*
X11607500Y15116667D01*
X11607500Y15116667D02*
X11465833Y14975000D01*
X11465833Y14975000D02*
X11182500Y14975000D01*
X11182500Y14975000D02*
X11040833Y15116667D01*
D11*
X4650000Y12650000D02*
X4650000Y13350000D01*
X4650000Y13350000D02*
X5000000Y13350000D01*
X5000000Y13350000D02*
X5116667Y13233333D01*
X5116667Y13233333D02*
X5116667Y13116667D01*
X5116667Y13116667D02*
X5000000Y13000000D01*
X5000000Y13000000D02*
X4650000Y13000000D01*
X4883333Y13000000D02*
X5116667Y12650000D01*
X5233333Y12650000D02*
X5466667Y13350000D01*
X5466667Y13350000D02*
X5700000Y12650000D01*
X5350000Y12883333D02*
X5583333Y12883333D01*
X5816667Y12650000D02*
X5816667Y13350000D01*
X6283333Y13350000D02*
X5840000Y12976667D01*
X6003333Y13116667D02*
X6283333Y12650000D01*
X12606667Y13233333D02*
X12490000Y13350000D01*
X12490000Y13350000D02*
X12256667Y13350000D01*
X12256667Y13350000D02*
X12140000Y13233333D01*
X12140000Y13233333D02*
X12140000Y13116667D01*
X12140000Y13116667D02*
X12256667Y13000000D01*
X12256667Y13000000D02*
X12490000Y13000000D01*
X12490000Y13000000D02*
X12606667Y12883333D01*
X12606667Y12883333D02*
X12606667Y12766667D01*
X12606667Y12766667D02*
X12490000Y12650000D01*
X12490000Y12650000D02*
X12256667Y12650000D01*
X12256667Y12650000D02*
X12140000Y12766667D01*
X12723333Y13350000D02*
X12956667Y13000000D01*
X12956667Y13000000D02*
X13190000Y13350000D01*
X12956667Y13000000D02*
X12956667Y12650000D01*
X13773333Y13233333D02*
X13656667Y13350000D01*
X13656667Y13350000D02*
X13423333Y13350000D01*
X13423333Y13350000D02*
X13306667Y13233333D01*
X13306667Y13233333D02*
X13306667Y13116667D01*
X13306667Y13116667D02*
X13423333Y13000000D01*
X13423333Y13000000D02*
X13656667Y13000000D01*
X13656667Y13000000D02*
X13773333Y12883333D01*
X13773333Y12883333D02*
X13773333Y12766667D01*
X13773333Y12766667D02*
X13656667Y12650000D01*
X13656667Y12650000D02*
X13423333Y12650000D01*
X13423333Y12650000D02*
X13306667Y12766667D01*
X71582500Y12450000D02*
X71457500Y12575000D01*
X71457500Y12575000D02*
X71207500Y12575000D01*
X71207500Y12575000D02*
X71082500Y12450000D01*
X71082500Y12450000D02*
X71082500Y11950000D01*
X71082500Y11950000D02*
X71207500Y11825000D01*
X71207500Y11825000D02*
X71457500Y11825000D01*
X71457500Y11825000D02*
X71582500Y11950000D01*
X71807500Y12425000D02*
X71957500Y12575000D01*
X71957500Y12575000D02*
X71957500Y11825000D01*
X71807500Y11825000D02*
X72107500Y11825000D01*
X73057500Y12425000D02*
X73207500Y12575000D01*
X73207500Y12575000D02*
X73207500Y11825000D01*
X73057500Y11825000D02*
X73357500Y11825000D01*
X73707500Y11825000D02*
X73957500Y11825000D01*
X73957500Y11825000D02*
X74082500Y11950000D01*
X74082500Y11950000D02*
X74082500Y12450000D01*
X74082500Y12450000D02*
X73957500Y12575000D01*
X73957500Y12575000D02*
X73707500Y12575000D01*
X73707500Y12575000D02*
X73582500Y12450000D01*
X73582500Y12450000D02*
X73582500Y11950000D01*
X73582500Y11950000D02*
X73707500Y11825000D01*
X73657500Y11975000D02*
X74007500Y12425000D01*
X74332500Y11825000D02*
X74582500Y11825000D01*
X74582500Y11825000D02*
X74707500Y11950000D01*
X74707500Y11950000D02*
X74707500Y12450000D01*
X74707500Y12450000D02*
X74582500Y12575000D01*
X74582500Y12575000D02*
X74332500Y12575000D01*
X74332500Y12575000D02*
X74207500Y12450000D01*
X74207500Y12450000D02*
X74207500Y11950000D01*
X74207500Y11950000D02*
X74332500Y11825000D01*
X74282500Y11975000D02*
X74632500Y12425000D01*
X74832500Y12575000D02*
X74832500Y11950000D01*
X74832500Y11950000D02*
X74957500Y11825000D01*
X74957500Y11825000D02*
X75207500Y11825000D01*
X75207500Y11825000D02*
X75332500Y11950000D01*
X75332500Y11950000D02*
X75332500Y12575000D01*
X57895000Y12450000D02*
X57770000Y12575000D01*
X57770000Y12575000D02*
X57520000Y12575000D01*
X57520000Y12575000D02*
X57395000Y12450000D01*
X57395000Y12450000D02*
X57395000Y11950000D01*
X57395000Y11950000D02*
X57520000Y11825000D01*
X57520000Y11825000D02*
X57770000Y11825000D01*
X57770000Y11825000D02*
X57895000Y11950000D01*
X58020000Y12450000D02*
X58145000Y12575000D01*
X58145000Y12575000D02*
X58395000Y12575000D01*
X58395000Y12575000D02*
X58520000Y12450000D01*
X58520000Y12450000D02*
X58520000Y12300000D01*
X58520000Y12300000D02*
X58020000Y11825000D01*
X58020000Y11825000D02*
X58520000Y11825000D01*
X59370000Y12425000D02*
X59520000Y12575000D01*
X59520000Y12575000D02*
X59520000Y11825000D01*
X59370000Y11825000D02*
X59670000Y11825000D01*
X60020000Y11825000D02*
X60270000Y11825000D01*
X60270000Y11825000D02*
X60395000Y11950000D01*
X60395000Y11950000D02*
X60395000Y12450000D01*
X60395000Y12450000D02*
X60270000Y12575000D01*
X60270000Y12575000D02*
X60020000Y12575000D01*
X60020000Y12575000D02*
X59895000Y12450000D01*
X59895000Y12450000D02*
X59895000Y11950000D01*
X59895000Y11950000D02*
X60020000Y11825000D01*
X59970000Y11975000D02*
X60320000Y12425000D01*
X60520000Y12575000D02*
X60520000Y11950000D01*
X60520000Y11950000D02*
X60645000Y11825000D01*
X60645000Y11825000D02*
X60895000Y11825000D01*
X60895000Y11825000D02*
X61020000Y11950000D01*
X61020000Y11950000D02*
X61020000Y12575000D01*
X57582500Y16950000D02*
X57457500Y17075000D01*
X57457500Y17075000D02*
X57207500Y17075000D01*
X57207500Y17075000D02*
X57082500Y16950000D01*
X57082500Y16950000D02*
X57082500Y16450000D01*
X57082500Y16450000D02*
X57207500Y16325000D01*
X57207500Y16325000D02*
X57457500Y16325000D01*
X57457500Y16325000D02*
X57582500Y16450000D01*
X57707500Y17075000D02*
X58207500Y17075000D01*
X58207500Y17075000D02*
X57957500Y16750000D01*
X57957500Y16750000D02*
X58082500Y16750000D01*
X58082500Y16750000D02*
X58207500Y16625000D01*
X58207500Y16625000D02*
X58207500Y16450000D01*
X58207500Y16450000D02*
X58082500Y16325000D01*
X58082500Y16325000D02*
X57832500Y16325000D01*
X57832500Y16325000D02*
X57707500Y16450000D01*
X59057500Y16925000D02*
X59207500Y17075000D01*
X59207500Y17075000D02*
X59207500Y16325000D01*
X59057500Y16325000D02*
X59357500Y16325000D01*
X59707500Y16325000D02*
X59957500Y16325000D01*
X59957500Y16325000D02*
X60082500Y16450000D01*
X60082500Y16450000D02*
X60082500Y16950000D01*
X60082500Y16950000D02*
X59957500Y17075000D01*
X59957500Y17075000D02*
X59707500Y17075000D01*
X59707500Y17075000D02*
X59582500Y16950000D01*
X59582500Y16950000D02*
X59582500Y16450000D01*
X59582500Y16450000D02*
X59707500Y16325000D01*
X59657500Y16475000D02*
X60007500Y16925000D01*
X60332500Y16325000D02*
X60582500Y16325000D01*
X60582500Y16325000D02*
X60707500Y16450000D01*
X60707500Y16450000D02*
X60707500Y16950000D01*
X60707500Y16950000D02*
X60582500Y17075000D01*
X60582500Y17075000D02*
X60332500Y17075000D01*
X60332500Y17075000D02*
X60207500Y16950000D01*
X60207500Y16950000D02*
X60207500Y16450000D01*
X60207500Y16450000D02*
X60332500Y16325000D01*
X60282500Y16475000D02*
X60632500Y16925000D01*
X60832500Y16325000D02*
X60832500Y17075000D01*
X60832500Y17075000D02*
X61332500Y16325000D01*
X61332500Y16325000D02*
X61332500Y17075000D01*
X48582500Y55450000D02*
X48457500Y55575000D01*
X48457500Y55575000D02*
X48207500Y55575000D01*
X48207500Y55575000D02*
X48082500Y55450000D01*
X48082500Y55450000D02*
X48082500Y54950000D01*
X48082500Y54950000D02*
X48207500Y54825000D01*
X48207500Y54825000D02*
X48457500Y54825000D01*
X48457500Y54825000D02*
X48582500Y54950000D01*
X49082500Y54825000D02*
X49082500Y55575000D01*
X49082500Y55575000D02*
X48707500Y55050000D01*
X48707500Y55050000D02*
X49207500Y55050000D01*
X50057500Y55425000D02*
X50207500Y55575000D01*
X50207500Y55575000D02*
X50207500Y54825000D01*
X50057500Y54825000D02*
X50357500Y54825000D01*
X50707500Y54825000D02*
X50957500Y54825000D01*
X50957500Y54825000D02*
X51082500Y54950000D01*
X51082500Y54950000D02*
X51082500Y55450000D01*
X51082500Y55450000D02*
X50957500Y55575000D01*
X50957500Y55575000D02*
X50707500Y55575000D01*
X50707500Y55575000D02*
X50582500Y55450000D01*
X50582500Y55450000D02*
X50582500Y54950000D01*
X50582500Y54950000D02*
X50707500Y54825000D01*
X50657500Y54975000D02*
X51007500Y55425000D01*
X51332500Y54825000D02*
X51582500Y54825000D01*
X51582500Y54825000D02*
X51707500Y54950000D01*
X51707500Y54950000D02*
X51707500Y55450000D01*
X51707500Y55450000D02*
X51582500Y55575000D01*
X51582500Y55575000D02*
X51332500Y55575000D01*
X51332500Y55575000D02*
X51207500Y55450000D01*
X51207500Y55450000D02*
X51207500Y54950000D01*
X51207500Y54950000D02*
X51332500Y54825000D01*
X51282500Y54975000D02*
X51632500Y55425000D01*
X51832500Y54825000D02*
X51832500Y55575000D01*
X51832500Y55575000D02*
X52332500Y54825000D01*
X52332500Y54825000D02*
X52332500Y55575000D01*
X43466667Y3133333D02*
X43350000Y3250000D01*
X43350000Y3250000D02*
X43116667Y3250000D01*
X43116667Y3250000D02*
X43000000Y3133333D01*
X43000000Y3133333D02*
X43000000Y2666667D01*
X43000000Y2666667D02*
X43116667Y2550000D01*
X43116667Y2550000D02*
X43350000Y2550000D01*
X43350000Y2550000D02*
X43466667Y2666667D01*
X43676667Y3110000D02*
X43816667Y3250000D01*
X43816667Y3250000D02*
X43816667Y2550000D01*
X43676667Y2550000D02*
X43956667Y2550000D01*
X44376667Y2550000D02*
X44423333Y2550000D01*
X44960000Y2550000D02*
X45006667Y2550000D01*
X45800000Y3133333D02*
X45683333Y3250000D01*
X45683333Y3250000D02*
X45450000Y3250000D01*
X45450000Y3250000D02*
X45333333Y3133333D01*
X45333333Y3133333D02*
X45333333Y2666667D01*
X45333333Y2666667D02*
X45450000Y2550000D01*
X45450000Y2550000D02*
X45683333Y2550000D01*
X45683333Y2550000D02*
X45800000Y2666667D01*
X46266667Y2550000D02*
X46266667Y3250000D01*
X46266667Y3250000D02*
X45916667Y2760000D01*
X45916667Y2760000D02*
X46383333Y2760000D01*
X47200000Y2550000D02*
X47433333Y2550000D01*
X47433333Y2550000D02*
X47550000Y2666667D01*
X47550000Y2666667D02*
X47550000Y3133333D01*
X47550000Y3133333D02*
X47433333Y3250000D01*
X47433333Y3250000D02*
X47200000Y3250000D01*
X47200000Y3250000D02*
X47083333Y3133333D01*
X47083333Y3133333D02*
X47083333Y2666667D01*
X47083333Y2666667D02*
X47200000Y2550000D01*
X47666667Y2550000D02*
X47666667Y3250000D01*
X47666667Y3250000D02*
X48016667Y3250000D01*
X48016667Y3250000D02*
X48133333Y3133333D01*
X48133333Y3133333D02*
X48133333Y3016667D01*
X48133333Y3016667D02*
X48016667Y2900000D01*
X48016667Y2900000D02*
X47666667Y2900000D01*
X48250000Y3250000D02*
X48716667Y3250000D01*
X48483333Y3250000D02*
X48483333Y2550000D01*
X48950000Y2550000D02*
X49183333Y2550000D01*
X49066667Y2550000D02*
X49066667Y3250000D01*
X48950000Y3250000D02*
X49183333Y3250000D01*
X49533333Y2550000D02*
X49766667Y2550000D01*
X49766667Y2550000D02*
X49883333Y2666667D01*
X49883333Y2666667D02*
X49883333Y3133333D01*
X49883333Y3133333D02*
X49766667Y3250000D01*
X49766667Y3250000D02*
X49533333Y3250000D01*
X49533333Y3250000D02*
X49416667Y3133333D01*
X49416667Y3133333D02*
X49416667Y2666667D01*
X49416667Y2666667D02*
X49533333Y2550000D01*
X50000000Y2550000D02*
X50000000Y3250000D01*
X50000000Y3250000D02*
X50466667Y2550000D01*
X50466667Y2550000D02*
X50466667Y3250000D01*
X50583333Y2550000D02*
X50816667Y3250000D01*
X50816667Y3250000D02*
X51050000Y2550000D01*
X50700000Y2783333D02*
X50933333Y2783333D01*
X51166667Y3250000D02*
X51166667Y2550000D01*
X51166667Y2550000D02*
X51633333Y2550000D01*
X52403333Y2900000D02*
X52730000Y2900000D01*
X53500000Y2550000D02*
X53500000Y3250000D01*
X53500000Y3250000D02*
X53850000Y3250000D01*
X53850000Y3250000D02*
X53966667Y3133333D01*
X53966667Y3133333D02*
X53966667Y3016667D01*
X53966667Y3016667D02*
X53850000Y2900000D01*
X53850000Y2900000D02*
X53500000Y2900000D01*
X53850000Y2900000D02*
X53966667Y2783333D01*
X53966667Y2783333D02*
X53966667Y2666667D01*
X53966667Y2666667D02*
X53850000Y2550000D01*
X53850000Y2550000D02*
X53500000Y2550000D01*
X54200000Y2550000D02*
X54433333Y2550000D01*
X54433333Y2550000D02*
X54550000Y2666667D01*
X54550000Y2666667D02*
X54550000Y3133333D01*
X54550000Y3133333D02*
X54433333Y3250000D01*
X54433333Y3250000D02*
X54200000Y3250000D01*
X54200000Y3250000D02*
X54083333Y3133333D01*
X54083333Y3133333D02*
X54083333Y2666667D01*
X54083333Y2666667D02*
X54200000Y2550000D01*
X54666667Y2550000D02*
X54900000Y3250000D01*
X54900000Y3250000D02*
X55133333Y2550000D01*
X54783333Y2783333D02*
X55016667Y2783333D01*
X55250000Y2550000D02*
X55250000Y3250000D01*
X55250000Y3250000D02*
X55600000Y3250000D01*
X55600000Y3250000D02*
X55716667Y3133333D01*
X55716667Y3133333D02*
X55716667Y3016667D01*
X55716667Y3016667D02*
X55600000Y2900000D01*
X55600000Y2900000D02*
X55250000Y2900000D01*
X55483333Y2900000D02*
X55716667Y2550000D01*
X55833333Y2550000D02*
X55833333Y3250000D01*
X55833333Y3250000D02*
X56183333Y3250000D01*
X56183333Y3250000D02*
X56300000Y3133333D01*
X56300000Y3133333D02*
X56300000Y2666667D01*
X56300000Y2666667D02*
X56183333Y2550000D01*
X56183333Y2550000D02*
X55833333Y2550000D01*
X57000000Y3250000D02*
X57116667Y2550000D01*
X57116667Y2550000D02*
X57233333Y2970000D01*
X57233333Y2970000D02*
X57350000Y2550000D01*
X57350000Y2550000D02*
X57466667Y3250000D01*
X57700000Y2550000D02*
X57933333Y2550000D01*
X57933333Y2550000D02*
X58050000Y2666667D01*
X58050000Y2666667D02*
X58050000Y3133333D01*
X58050000Y3133333D02*
X57933333Y3250000D01*
X57933333Y3250000D02*
X57700000Y3250000D01*
X57700000Y3250000D02*
X57583333Y3133333D01*
X57583333Y3133333D02*
X57583333Y2666667D01*
X57583333Y2666667D02*
X57700000Y2550000D01*
X58166667Y2550000D02*
X58166667Y3250000D01*
X58166667Y3250000D02*
X58516667Y3250000D01*
X58516667Y3250000D02*
X58633333Y3133333D01*
X58633333Y3133333D02*
X58633333Y3016667D01*
X58633333Y3016667D02*
X58516667Y2900000D01*
X58516667Y2900000D02*
X58166667Y2900000D01*
X58400000Y2900000D02*
X58633333Y2550000D01*
X58750000Y2550000D02*
X58750000Y3250000D01*
X59216667Y3250000D02*
X58773333Y2876667D01*
X58936667Y3016667D02*
X59216667Y2550000D01*
X59800000Y3133333D02*
X59683333Y3250000D01*
X59683333Y3250000D02*
X59450000Y3250000D01*
X59450000Y3250000D02*
X59333333Y3133333D01*
X59333333Y3133333D02*
X59333333Y3016667D01*
X59333333Y3016667D02*
X59450000Y2900000D01*
X59450000Y2900000D02*
X59683333Y2900000D01*
X59683333Y2900000D02*
X59800000Y2783333D01*
X59800000Y2783333D02*
X59800000Y2666667D01*
X59800000Y2666667D02*
X59683333Y2550000D01*
X59683333Y2550000D02*
X59450000Y2550000D01*
X59450000Y2550000D02*
X59333333Y2666667D01*
X60500000Y3250000D02*
X60616667Y2550000D01*
X60616667Y2550000D02*
X60733333Y2970000D01*
X60733333Y2970000D02*
X60850000Y2550000D01*
X60850000Y2550000D02*
X60966667Y3250000D01*
X61200000Y2550000D02*
X61433333Y2550000D01*
X61316667Y2550000D02*
X61316667Y3250000D01*
X61200000Y3250000D02*
X61433333Y3250000D01*
X61666667Y3250000D02*
X62133333Y3250000D01*
X61900000Y3250000D02*
X61900000Y2550000D01*
X62250000Y2550000D02*
X62250000Y3250000D01*
X62716667Y2550000D02*
X62716667Y3250000D01*
X62250000Y2900000D02*
X62716667Y2900000D01*
X62950000Y2550000D02*
X63183333Y2550000D01*
X63183333Y2550000D02*
X63300000Y2666667D01*
X63300000Y2666667D02*
X63300000Y3133333D01*
X63300000Y3133333D02*
X63183333Y3250000D01*
X63183333Y3250000D02*
X62950000Y3250000D01*
X62950000Y3250000D02*
X62833333Y3133333D01*
X62833333Y3133333D02*
X62833333Y2666667D01*
X62833333Y2666667D02*
X62950000Y2550000D01*
X63416667Y3250000D02*
X63416667Y2666667D01*
X63416667Y2666667D02*
X63533333Y2550000D01*
X63533333Y2550000D02*
X63766667Y2550000D01*
X63766667Y2550000D02*
X63883333Y2666667D01*
X63883333Y2666667D02*
X63883333Y3250000D01*
X64000000Y3250000D02*
X64466667Y3250000D01*
X64233333Y3250000D02*
X64233333Y2550000D01*
X65166667Y3250000D02*
X65633333Y3250000D01*
X65400000Y3250000D02*
X65400000Y2550000D01*
X65750000Y2550000D02*
X65750000Y3250000D01*
X66216667Y2550000D02*
X66216667Y3250000D01*
X65750000Y2900000D02*
X66216667Y2900000D01*
X66800000Y3250000D02*
X66333333Y3250000D01*
X66333333Y3250000D02*
X66333333Y2550000D01*
X66333333Y2550000D02*
X66800000Y2550000D01*
X66333333Y2900000D02*
X66683333Y2900000D01*
X66916667Y2550000D02*
X66916667Y3250000D01*
X66916667Y3250000D02*
X67150000Y2900000D01*
X67150000Y2900000D02*
X67383333Y3250000D01*
X67383333Y3250000D02*
X67383333Y2550000D01*
D13*
X21333333Y1100000D02*
X21333333Y2100000D01*
X21333333Y2100000D02*
X21833333Y2100000D01*
X21833333Y2100000D02*
X22000000Y1933333D01*
X22000000Y1933333D02*
X22000000Y1766667D01*
X22000000Y1766667D02*
X21833333Y1600000D01*
X21833333Y1600000D02*
X21333333Y1600000D01*
X22166667Y1100000D02*
X22500000Y2100000D01*
X22500000Y2100000D02*
X22833333Y1100000D01*
X22333333Y1433333D02*
X22666667Y1433333D01*
X23666667Y1933333D02*
X23500000Y2100000D01*
X23500000Y2100000D02*
X23166667Y2100000D01*
X23166667Y2100000D02*
X23000000Y1933333D01*
X23000000Y1933333D02*
X23000000Y1266667D01*
X23000000Y1266667D02*
X23166667Y1100000D01*
X23166667Y1100000D02*
X23500000Y1100000D01*
X23500000Y1100000D02*
X23666667Y1266667D01*
X23833333Y1100000D02*
X23833333Y2100000D01*
X24500000Y2100000D02*
X23866667Y1566667D01*
X24100000Y1766667D02*
X24500000Y1100000D01*
X25333333Y2100000D02*
X24666667Y2100000D01*
X24666667Y2100000D02*
X24666667Y1100000D01*
X24666667Y1100000D02*
X25333333Y1100000D01*
X24666667Y1600000D02*
X25166667Y1600000D01*
X25500000Y2100000D02*
X26166667Y2100000D01*
X25833333Y2100000D02*
X25833333Y1100000D01*
X27166667Y2100000D02*
X27166667Y1100000D01*
X27166667Y1100000D02*
X27833333Y1100000D01*
X28166667Y1100000D02*
X28500000Y1100000D01*
X28500000Y1100000D02*
X28666667Y1266667D01*
X28666667Y1266667D02*
X28666667Y1933333D01*
X28666667Y1933333D02*
X28500000Y2100000D01*
X28500000Y2100000D02*
X28166667Y2100000D01*
X28166667Y2100000D02*
X28000000Y1933333D01*
X28000000Y1933333D02*
X28000000Y1266667D01*
X28000000Y1266667D02*
X28166667Y1100000D01*
X29500000Y1933333D02*
X29333333Y2100000D01*
X29333333Y2100000D02*
X29000000Y2100000D01*
X29000000Y2100000D02*
X28833333Y1933333D01*
X28833333Y1933333D02*
X28833333Y1266667D01*
X28833333Y1266667D02*
X29000000Y1100000D01*
X29000000Y1100000D02*
X29333333Y1100000D01*
X29333333Y1100000D02*
X29500000Y1266667D01*
X29500000Y1266667D02*
X29500000Y1600000D01*
X29500000Y1600000D02*
X29166667Y1600000D01*
X30333333Y1933333D02*
X30166667Y2100000D01*
X30166667Y2100000D02*
X29833333Y2100000D01*
X29833333Y2100000D02*
X29666667Y1933333D01*
X29666667Y1933333D02*
X29666667Y1266667D01*
X29666667Y1266667D02*
X29833333Y1100000D01*
X29833333Y1100000D02*
X30166667Y1100000D01*
X30166667Y1100000D02*
X30333333Y1266667D01*
X30333333Y1266667D02*
X30333333Y1600000D01*
X30333333Y1600000D02*
X30000000Y1600000D01*
X31166667Y2100000D02*
X30500000Y2100000D01*
X30500000Y2100000D02*
X30500000Y1100000D01*
X30500000Y1100000D02*
X31166667Y1100000D01*
X30500000Y1600000D02*
X31000000Y1600000D01*
X31333333Y1100000D02*
X31333333Y2100000D01*
X31333333Y2100000D02*
X31833333Y2100000D01*
X31833333Y2100000D02*
X32000000Y1933333D01*
X32000000Y1933333D02*
X32000000Y1766667D01*
X32000000Y1766667D02*
X31833333Y1600000D01*
X31833333Y1600000D02*
X31333333Y1600000D01*
X31666667Y1600000D02*
X32000000Y1100000D01*
X33666667Y1933333D02*
X33500000Y2100000D01*
X33500000Y2100000D02*
X33166667Y2100000D01*
X33166667Y2100000D02*
X33000000Y1933333D01*
X33000000Y1933333D02*
X33000000Y1266667D01*
X33000000Y1266667D02*
X33166667Y1100000D01*
X33166667Y1100000D02*
X33500000Y1100000D01*
X33500000Y1100000D02*
X33666667Y1266667D01*
X33833333Y1100000D02*
X34166667Y2100000D01*
X34166667Y2100000D02*
X34500000Y1100000D01*
X34000000Y1433333D02*
X34333333Y1433333D01*
X34666667Y1100000D02*
X34666667Y2100000D01*
X34666667Y2100000D02*
X35166667Y2100000D01*
X35166667Y2100000D02*
X35333333Y1933333D01*
X35333333Y1933333D02*
X35333333Y1766667D01*
X35333333Y1766667D02*
X35166667Y1600000D01*
X35166667Y1600000D02*
X34666667Y1600000D01*
X35000000Y1600000D02*
X35333333Y1100000D01*
X35500000Y1100000D02*
X35500000Y2100000D01*
X35500000Y2100000D02*
X36000000Y2100000D01*
X36000000Y2100000D02*
X36166667Y1933333D01*
X36166667Y1933333D02*
X36166667Y1766667D01*
X36166667Y1766667D02*
X36000000Y1600000D01*
X36000000Y1600000D02*
X35500000Y1600000D01*
X35833333Y1600000D02*
X36166667Y1100000D01*
X36500000Y1100000D02*
X36833333Y1100000D01*
X36666667Y1100000D02*
X36666667Y2100000D01*
X36500000Y2100000D02*
X36833333Y2100000D01*
X37833333Y2100000D02*
X37166667Y2100000D01*
X37166667Y2100000D02*
X37166667Y1100000D01*
X37166667Y1100000D02*
X37833333Y1100000D01*
X37166667Y1600000D02*
X37666667Y1600000D01*
X38000000Y1100000D02*
X38000000Y2100000D01*
X38000000Y2100000D02*
X38500000Y2100000D01*
X38500000Y2100000D02*
X38666667Y1933333D01*
X38666667Y1933333D02*
X38666667Y1766667D01*
X38666667Y1766667D02*
X38500000Y1600000D01*
X38500000Y1600000D02*
X38000000Y1600000D01*
X38333333Y1600000D02*
X38666667Y1100000D01*
X40500000Y2100000D02*
X40833333Y1100000D01*
X40833333Y1100000D02*
X41166667Y2100000D01*
X41466667Y1900000D02*
X41666667Y2100000D01*
X41666667Y2100000D02*
X41666667Y1100000D01*
X41466667Y1100000D02*
X41866667Y1100000D01*
X43933333Y1600000D02*
X44400000Y1600000D01*
X46500000Y1600000D02*
X46333333Y1766667D01*
X46333333Y1766667D02*
X46333333Y1933333D01*
X46333333Y1933333D02*
X46500000Y2100000D01*
X46500000Y2100000D02*
X46833333Y2100000D01*
X46833333Y2100000D02*
X47000000Y1933333D01*
X47000000Y1933333D02*
X47000000Y1766667D01*
X47000000Y1766667D02*
X46833333Y1600000D01*
X46833333Y1600000D02*
X46500000Y1600000D01*
X46500000Y1600000D02*
X46333333Y1433333D01*
X46333333Y1433333D02*
X46333333Y1266667D01*
X46333333Y1266667D02*
X46500000Y1100000D01*
X46500000Y1100000D02*
X46833333Y1100000D01*
X46833333Y1100000D02*
X47000000Y1266667D01*
X47000000Y1266667D02*
X47000000Y1433333D01*
X47000000Y1433333D02*
X46833333Y1600000D01*
X47833333Y1933333D02*
X47666667Y2100000D01*
X47666667Y2100000D02*
X47333333Y2100000D01*
X47333333Y2100000D02*
X47166667Y1933333D01*
X47166667Y1933333D02*
X47166667Y1266667D01*
X47166667Y1266667D02*
X47333333Y1100000D01*
X47333333Y1100000D02*
X47666667Y1100000D01*
X47666667Y1100000D02*
X47833333Y1266667D01*
X47833333Y1266667D02*
X47833333Y1433333D01*
X47833333Y1433333D02*
X47666667Y1600000D01*
X47666667Y1600000D02*
X47333333Y1600000D01*
X47333333Y1600000D02*
X47166667Y1433333D01*
X48833333Y1100000D02*
X49500000Y2100000D01*
X48833333Y2100000D02*
X49500000Y1100000D01*
X51166667Y2100000D02*
X50500000Y2100000D01*
X50500000Y2100000D02*
X50500000Y1666667D01*
X50500000Y1666667D02*
X51000000Y1666667D01*
X51000000Y1666667D02*
X51166667Y1500000D01*
X51166667Y1500000D02*
X51166667Y1266667D01*
X51166667Y1266667D02*
X51000000Y1100000D01*
X51000000Y1100000D02*
X50666667Y1100000D01*
X50666667Y1100000D02*
X50500000Y1266667D01*
X51500000Y1600000D02*
X51333333Y1766667D01*
X51333333Y1766667D02*
X51333333Y1933333D01*
X51333333Y1933333D02*
X51500000Y2100000D01*
X51500000Y2100000D02*
X51833333Y2100000D01*
X51833333Y2100000D02*
X52000000Y1933333D01*
X52000000Y1933333D02*
X52000000Y1766667D01*
X52000000Y1766667D02*
X51833333Y1600000D01*
X51833333Y1600000D02*
X51500000Y1600000D01*
X51500000Y1600000D02*
X51333333Y1433333D01*
X51333333Y1433333D02*
X51333333Y1266667D01*
X51333333Y1266667D02*
X51500000Y1100000D01*
X51500000Y1100000D02*
X51833333Y1100000D01*
X51833333Y1100000D02*
X52000000Y1266667D01*
X52000000Y1266667D02*
X52000000Y1433333D01*
X52000000Y1433333D02*
X51833333Y1600000D01*
X53000000Y1100000D02*
X53000000Y2100000D01*
X53000000Y2100000D02*
X53333333Y1600000D01*
X53333333Y1600000D02*
X53666667Y2100000D01*
X53666667Y2100000D02*
X53666667Y1100000D01*
X53833333Y1100000D02*
X53833333Y2100000D01*
X53833333Y2100000D02*
X54166667Y1600000D01*
X54166667Y1600000D02*
X54500000Y2100000D01*
X54500000Y2100000D02*
X54500000Y1100000D01*
X56433333Y1600000D02*
X56900000Y1600000D01*
X58833333Y1933333D02*
X59000000Y2100000D01*
X59000000Y2100000D02*
X59333333Y2100000D01*
X59333333Y2100000D02*
X59500000Y1933333D01*
X59500000Y1933333D02*
X59500000Y1733333D01*
X59500000Y1733333D02*
X58833333Y1100000D01*
X58833333Y1100000D02*
X59500000Y1100000D01*
X60500000Y2100000D02*
X60500000Y1100000D01*
X60500000Y1100000D02*
X61166667Y1100000D01*
X61333333Y1100000D02*
X61666667Y2100000D01*
X61666667Y2100000D02*
X62000000Y1100000D01*
X61500000Y1433333D02*
X61833333Y1433333D01*
X62166667Y2100000D02*
X62500000Y1600000D01*
X62500000Y1600000D02*
X62833333Y2100000D01*
X62500000Y1600000D02*
X62500000Y1100000D01*
X63666667Y2100000D02*
X63000000Y2100000D01*
X63000000Y2100000D02*
X63000000Y1100000D01*
X63000000Y1100000D02*
X63666667Y1100000D01*
X63000000Y1600000D02*
X63500000Y1600000D01*
X63833333Y1100000D02*
X63833333Y2100000D01*
X63833333Y2100000D02*
X64333333Y2100000D01*
X64333333Y2100000D02*
X64500000Y1933333D01*
X64500000Y1933333D02*
X64500000Y1766667D01*
X64500000Y1766667D02*
X64333333Y1600000D01*
X64333333Y1600000D02*
X63833333Y1600000D01*
X64166667Y1600000D02*
X64500000Y1100000D01*
M02*
