M48
;DRILL file {packet-logger-carrier} date 2026-08-24
;FORMAT={-:-/ absolute / metric / decimal}
FMAT,2
METRIC,TZ
;TYPE=PLATED
T1C0.400
T2C0.800
T3C0.900
T4C1.000
T5C1.100
%
G90
G05
T1
X55.500Y36.500
X51.300Y19.600
X48.800Y19.600
X57.500Y24.600
X71.800Y50.800
X77.900Y42.700
X42.900Y43.300
X22.600Y42.200
T2
X72.000Y12.500
X74.540Y12.500
X39.500Y26.500
X42.040Y26.500
X39.500Y30.500
X42.040Y30.500
X48.000Y53.000
X50.540Y53.000
T3
X13.000Y6.000
X15.000Y6.000
T4
X6.050Y23.250
X8.590Y23.250
X11.130Y23.250
X13.670Y23.250
X23.460Y22.750G85X23.460Y23.750
X26.000Y22.750G85X26.000Y23.750
X28.540Y22.750G85X28.540Y23.750
X31.080Y22.750G85X31.080Y23.750
X66.880Y21.280
X69.420Y21.280
X71.960Y21.280
X74.500Y21.280
X77.040Y21.280
X79.580Y21.280
X82.120Y21.280
X66.880Y36.520
X69.420Y36.520
X71.960Y36.520
X74.500Y36.520
X77.040Y36.520
X79.580Y36.520
X82.120Y36.520
X43.650Y22.000
X46.190Y22.000
X48.730Y22.000
X51.270Y22.000
X53.810Y22.000
X56.350Y22.000
X54.000Y53.000
X56.540Y53.000
X59.080Y53.000
X61.620Y53.000
X65.000Y53.000
X67.540Y53.000
X71.000Y53.000
X73.540Y53.000
X76.080Y53.000
X78.620Y53.000
X6.000Y6.000
X8.540Y6.000
X30.000Y6.000
X32.540Y6.000
X36.000Y46.000
X38.540Y46.000
X43.000Y46.000
X45.540Y46.000
X48.080Y46.000
X50.620Y46.000
T5
X74.750Y42.250
X81.250Y42.250
X74.750Y46.750
X81.250Y46.750
X20.000Y6.000
X22.540Y6.000
X25.080Y6.000
T0
M30
